<?xml version="1.0" encoding="UTF-8"?>
<svg width="162px" height="49px" viewBox="0 0 162 49" version="1.1" xmlns="http://www.w3.org/2000/svg" xmlns:xlink="http://www.w3.org/1999/xlink">
    <title>yuraio</title>
    <defs>
        <linearGradient x1="37.5919716%" y1="51.0195718%" x2="123.778858%" y2="48.217032%" id="linearGradient-1">
            <stop stop-color="#0034DA" offset="0%"></stop>
            <stop stop-color="#5AFF96" offset="100%"></stop>
        </linearGradient>
        <linearGradient x1="0.0102211523%" y1="50.0007847%" x2="99.9912593%" y2="50.0007847%" id="linearGradient-2">
            <stop stop-color="#912AD1" offset="0%"></stop>
            <stop stop-color="#EA288B" offset="100%"></stop>
        </linearGradient>
        <linearGradient x1="6.14657085e-06%" y1="49.9973958%" x2="99.9994553%" y2="49.9973958%" id="linearGradient-3">
            <stop stop-color="#FF6400" offset="0%"></stop>
            <stop stop-color="#DC1F00" offset="100%"></stop>
        </linearGradient>
    </defs>
    <g id="Copy-Changes" stroke="none" stroke-width="1" fill="none" fill-rule="evenodd">
        <g id="01-Sign-in" transform="translate(-862.000000, -117.000000)" fill-rule="nonzero">
            <g id="yuraio" transform="translate(862.000000, 117.000000)">
                <g id="logo-2" transform="translate(0.000000, 10.452962)" fill="#0034DA">
                    <polygon id="Path" points="21.7019566 0.686143125 14.7359957 17.8209595 7.03832753 0.686143125 0.134012329 0.686143125 16.9418386 37.9817743 23.8970785 37.9817743 18.3918521 25.9635486 28.5794693 0.686143125"></polygon>
                    <path d="M32.3746985,0.686143125 L39.3138569,0.686143125 L39.3138569,13.7416242 C39.2258201,15.527557 39.4019349,17.3167028 39.836505,19.0511927 C40.153362,19.9762472 40.7500086,20.7798937 41.543822,21.3508443 C42.4035076,21.9091843 43.4139978,22.189876 44.4384883,22.1549183 C45.4682614,22.1848767 46.4832813,21.9047424 47.3519164,21.3508443 C48.1805275,20.7631858 48.8001899,19.9266416 49.1208791,18.9627446 C49.5012998,17.3245892 49.6439221,15.6402016 49.5443581,13.9614044 L49.5443581,0.686143125 L56.3950683,0.686143125 L56.3950683,12.1924417 C56.3950683,16.9132494 56.0144733,20.1581345 55.2532833,21.9270973 C54.4336304,23.9383782 53.0162486,25.6495276 51.1927097,26.8292683 C49.1252048,28.0144674 46.7662875,28.5949096 44.3848834,28.5044224 C41.8116656,28.6167325 39.2678857,27.9203329 37.1106942,26.5129992 C35.2352734,25.1348792 33.8642401,23.1790851 33.2082552,20.946127 C32.6722058,19.2897347 32.4041812,16.3173412 32.4041812,11.9619405 L32.4041812,0.686143125 L32.3746985,0.686143125 Z" id="Path-2"></path>
                    <path d="M61.4580541,0.739748057 L67.2902707,0.739748057 L67.2902707,4.15706245 C67.8291427,2.92538747 68.6995122,1.86758225 69.804342,1.10158135 C70.8121195,0.407443614 72.0060042,0.0337707922 73.2296971,0.0294827124 C74.1903589,0.0483163753 75.1342437,0.284745757 75.9903511,0.720986331 L73.902439,6.5880461 C73.3004708,6.24235546 72.6296616,6.03369993 71.9378183,5.97694988 C70.8925221,5.97694988 70.0080407,6.63093005 69.2816939,7.92548915 C68.5553471,9.22004824 68.1935138,11.7662825 68.1935138,15.5534709 L68.1935138,27.8450817 L61.4580541,27.8450817 L61.4580541,0.739748057 Z" id="Path-3"></path>
                    <path d="M92.5060306,6.32538194 C90.5332245,6.26863775 88.6357381,7.08450786 87.3197534,8.55534709 C85.9097502,10.1155368 85.161106,12.1625355 85.2318413,14.2642723 C85.1576331,16.3944903 85.9283457,18.4677074 87.3760386,20.032163 C90.1057611,22.9183907 94.6582799,23.0455829 97.5448941,20.3162691 L97.8290003,20.032163 C99.2577091,18.4369837 100.002702,16.3444579 99.9035111,14.2053069 C99.9998109,12.0955799 99.2535132,10.0341012 97.8290003,8.47493969 C96.4401468,7.04160737 94.5146053,6.25525548 92.5194318,6.30662021 L92.5060306,6.32538194 Z M99.5845618,0.739748057 L106.338783,0.739748057 L106.338783,27.8102385 L99.5952828,27.8102385 L99.5952828,24.9423747 C98.4616413,26.0918822 97.118911,27.014327 95.6392388,27.6601447 C94.2719751,28.2338971 92.8013327,28.5203622 91.3186813,28.5017422 C87.8682644,28.5121461 84.5836681,27.0224379 82.3184133,24.4197266 C79.7818156,21.6740381 78.4222174,18.043632 78.5312249,14.3071563 C78.3798324,10.5339764 79.6925836,6.84828565 82.195122,4.02036987 C84.4545655,1.46065131 87.7142621,0.00831121871 91.1283838,0.0402036987 C92.7007997,0.0154978543 94.2612982,0.316646689 95.7116055,0.924685071 C97.1876122,1.57908098 98.5200949,2.5181033 99.6328062,3.6880193 L99.6328062,0.739748057 L99.5845618,0.739748057 Z" id="Shape"></path>
                </g>
                <path d="M114.88609,31.1203431 C115.921675,31.1029212 116.918903,31.5118916 117.644063,32.2514071 C118.39201,32.967463 118.806891,33.9633708 118.788529,34.9986599 C118.733075,37.1148243 117.00164,38.8014811 114.884749,38.8014811 C112.767858,38.8014811 111.036424,37.1148243 110.98097,34.9986599 C110.962608,33.9633708 111.377489,32.967463 112.125436,32.2514071 C112.851059,31.510941 113.849519,31.1018632 114.88609,31.1203431 L114.88609,31.1203431 Z" id="Path" fill="url(#linearGradient-1)"></path>
                <path d="M126.038596,0.0134012329 C127.195142,-0.00151360034 128.305482,0.466713656 129.102117,1.30528009 C129.938771,2.13072833 130.399972,3.26338539 130.377915,4.43848834 C130.398777,5.60024084 129.941369,6.71953178 129.112838,7.53417314 C128.328059,8.36449061 127.231938,8.82898173 126.08952,8.81533101 C124.922037,8.83083906 123.801717,8.35528651 123.001876,7.50469043 C122.162892,6.66540288 121.702195,5.52043592 121.726079,4.33395872 C121.70788,3.18424184 122.164574,2.07789906 122.988475,1.27579737 C123.786633,0.450974507 124.890986,-0.0060994834 126.038596,0.0134012329 Z M122.645403,11.152506 L129.434468,11.152506 L129.434468,38.206915 L122.645403,38.206915 L122.645403,11.152506 Z" id="Shape" fill="url(#linearGradient-2)"></path>
                <g id="Group" transform="translate(122.487269, 15.277406)">
                    <g opacity="0.5" fill="#F9A7D2" id="Path">
                        <path d="M3.56472795,18.6437963 C2.67193371,18.6445083 1.81554019,18.2899794 1.18449059,17.658427 C0.553440993,17.0268745 0.199594294,16.1701989 0.201018494,15.2774055 L0.201018494,3.48432056 C0.166460235,2.26042625 0.799658566,1.11441736 1.85419724,0.492276124 C2.90873592,-0.129865116 4.21803974,-0.129865116 5.27257842,0.492276124 C6.3271171,1.11441736 6.96031543,2.26042625 6.92575717,3.48432056 L6.92575717,15.2774055 C6.92789444,16.169952 6.57464501,17.0266355 5.9440206,17.6582657 C5.3133962,18.2898959 4.45727673,18.6445101 3.56472795,18.6437963 Z"></path>
                    </g>
                    <circle id="Oval" fill="#F484C7" cx="3.56472795" cy="11.141785" r="3.36370946"></circle>
                </g>
                <g id="Group" transform="translate(132.136157, 10.452962)">
                    <path d="M14.1329402,-5.40218454e-05 C16.6592716,-0.00693111132 19.1426595,0.653209988 21.3320826,1.91369606 C25.7669076,4.41207743 28.502025,9.11520761 28.4804547,14.2053069 C28.4920344,16.7189961 27.8352791,19.1906163 26.5773251,21.3669258 C25.3551304,23.5425663 23.5630367,25.3439263 21.3937282,26.5773251 C19.19037,27.8329105 16.692917,28.4803983 14.1570624,28.4534977 C10.4157028,28.5098921 6.81868043,27.0112945 4.22406861,24.315197 C1.47949611,21.554543 0.108103279,18.2015545 0.109888366,14.2562316 C0.109888366,10.0303761 1.65907263,6.5076387 4.75743768,3.6880193 C7.48235504,1.22933977 10.6075226,-5.40218454e-05 14.1329402,-5.40218454e-05 Z M14.2455106,6.38970785 C12.2560136,6.34027773 10.3396347,7.14055601 8.97614581,8.5901903 C7.57348343,10.0589654 6.87215224,11.935138 6.87215224,14.2187081 C6.87215224,16.5719646 7.56544269,18.4776199 8.95202359,19.9356741 C10.3386045,21.3937282 12.0950594,22.1236487 14.2213884,22.1254355 C16.2240093,22.1762632 18.1533364,21.3709958 19.5255964,19.9115519 C20.9354061,18.4374162 21.6412043,16.5398017 21.6429946,14.2187081 C21.644778,11.8976146 20.952381,10.0169749 19.5658001,8.57678906 C18.1792192,7.12230859 16.4057893,6.39417493 14.2455106,6.3923881 L14.2455106,6.38970785 Z" id="Shape" fill="url(#linearGradient-3)"></path>
                    <g opacity="0.3" transform="translate(13.401233, 13.401233)" fill="#FFDACC" id="Path">
                        <path d="M3.48432056,14.8056821 C1.80910925,14.7405467 0.439928982,13.4472029 0.27954669,11.778415 C0.119164397,10.1096271 1.21695936,8.57918954 2.84910212,8.19619405 C5.51058697,7.5716966 7.44304476,5.53202895 8.01393728,2.73385151 C8.41391286,0.953486898 10.1651001,-0.179385037 11.9529592,0.185633165 C13.7408184,0.550651366 14.9077819,2.27930744 14.5778612,4.07397481 C13.4843206,9.43446797 9.57652104,13.4977218 4.37684267,14.717234 C4.08455429,14.7860476 3.78442995,14.8157897 3.48432056,14.8056821 Z"></path>
                    </g>
                    <ellipse id="Oval-2" fill="#FF884D" cx="22.1147146" cy="21.9431788" rx="3.2162959" ry="3.2967033"></ellipse>
                </g>
            </g>
        </g>
    </g>
</svg>