<?xml version="1.0" encoding="utf-8"?>
<!-- Generator: Adobe Illustrator 24.3.0, SVG Export Plug-In . SVG Version: 6.00 Build 0)  -->
<svg version="1.1" id="Warstwa_1" xmlns="http://www.w3.org/2000/svg" xmlns:xlink="http://www.w3.org/1999/xlink" x="0px" y="0px"
	 viewBox="0 0 600 182" style="enable-background:new 0 0 600 182;" xml:space="preserve">
<style type="text/css">
	.st0{fill:#FFFFFF;}
</style>
<g id="Logo" transform="translate(0.000000, 39.000000)">
	<g id="yuraApplogo">
		<g id="Yura-agency">
			<g id="logo-2">
				<polygon id="Path" class="st0" points="182.3,-14.4 156.4,49.6 127.6,-14.4 101.9,-14.4 164.6,124.8 190.5,124.8 170,80 
					208,-14.4 				"/>
				<path id="Path-2" class="st0" d="M222.2-14.4h25.9v48.7c-0.3,6.7,0.3,13.3,1.9,19.8c1.2,3.4,3.4,6.4,6.4,8.6
					c3.2,2.1,7,3.1,10.8,3c3.8,0.1,7.6-0.9,10.9-3c3.1-2.2,5.4-5.3,6.6-8.9c1.4-6.1,1.9-12.4,1.6-18.7v-49.5h25.6v42.9
					c0,17.6-1.4,29.7-4.3,36.3c-3.1,7.5-8.4,13.9-15.1,18.3c-7.7,4.4-16.5,6.6-25.4,6.3c-9.6,0.4-19.1-2.2-27.1-7.4
					c-7-5.1-12.1-12.4-14.6-20.8c-2-6.2-3-17.3-3-33.5v-42.1H222.2z"/>
				<path id="Path-3" class="st0" d="M330.7-14.2h21.8v12.8c2-4.6,5.3-8.5,9.4-11.4c3.8-2.6,8.2-4,12.8-4c3.6,0.1,7.1,0.9,10.3,2.6
					l-7.8,21.9c-2.3-1.3-4.8-2.1-7.3-2.3c-3.9,0-7.2,2.4-9.9,7.3c-2.7,4.8-4.1,14.3-4.1,28.5V87h-25.1V-14.2z"/>
				<path id="Shape" class="st0" d="M446.5,6.7c-7.4-0.2-14.4,2.8-19.4,8.3c-5.3,5.8-8,13.5-7.8,21.3c-0.3,8,2.6,15.7,8,21.5
					c10.2,10.8,27.2,11.2,37.9,1.1l1.1-1.1c5.3-5.9,8.1-13.8,7.7-21.7c0.4-7.9-2.4-15.6-7.7-21.4C461.2,9.4,454,6.4,446.5,6.7
					L446.5,6.7z M472.9-14.2h25.2v101H473V76.2c-4.2,4.3-9.2,7.7-14.8,10.1c-5.1,2.1-10.6,3.2-16.1,3.1c-12.9,0-25.1-5.5-33.6-15.2
					C399,64,394,50.4,394.4,36.5c-0.6-14.1,4.3-27.8,13.7-38.4c8.4-9.6,20.6-15,33.3-14.9c5.9-0.1,11.7,1,17.1,3.3
					C464-11,469-7.5,473.1-3.2v-11C473.1-14.2,472.9-14.2,472.9-14.2z"/>
			</g>
		</g>
	</g>
</g>
</svg>
