<?xml version="1.0" encoding="UTF-8"?>
<svg width="21px" height="26px" viewBox="0 0 21 26" version="1.1" xmlns="http://www.w3.org/2000/svg" xmlns:xlink="http://www.w3.org/1999/xlink">
    <!-- Generator: Sketch 52.6 (67491) - http://www.bohemiancoding.com/sketch -->
    <title>apple-black (3)</title>
    <desc>Created with Sketch.</desc>
    <g id="Page-1" stroke="none" stroke-width="1" fill="none" fill-rule="evenodd">
        <g id="Dashboard" transform="translate(-67.000000, -476.000000)" fill="#000000" fill-rule="nonzero">
            <g id="apple-black-(3)" transform="translate(67.000000, 476.000000)">
                <path d="M17.4843019,13.6593641 C17.5204325,17.5502736 20.8976164,18.8450551 20.9350325,18.8615366 C20.9064769,18.9528044 20.395414,20.7066794 19.1557696,22.5183084 C18.0841076,24.0845978 16.9719535,25.6450568 15.2199148,25.6773769 C13.49836,25.7091003 12.944785,24.6565366 10.9765592,24.6565366 C9.00893019,24.6565366 8.39388258,25.6451027 6.76423826,25.7091462 C5.0730754,25.7731898 3.78522621,24.0155043 2.70474957,22.4549535 C0.496831025,19.2628761 -1.19047545,13.4349132 1.07515115,9.50094073 C2.20066487,7.5473141 4.21204547,6.31019475 6.39521887,6.27847138 C8.05589792,6.24679393 9.62333507,7.39572141 10.6385745,7.39572141 C11.6531712,7.39572141 13.5579503,6.01403351 15.5604245,6.21695285 C16.3987293,6.25184396 18.751905,6.55558024 20.2628737,8.76730926 C20.1411221,8.84278424 17.4551035,10.4064568 17.4843019,13.6593641 M14.2488402,4.10512258 C15.1466894,3.01831045 15.7509942,1.50536771 15.5861337,0 C14.2919491,0.0520152977 12.726991,0.862407208 11.7987039,1.94862252 C10.9667805,2.91051529 10.238199,4.45008547 10.4347829,5.925658 C11.8773007,6.03726364 13.350945,5.19262335 14.2488402,4.10512258" id="Shape"></path>
            </g>
        </g>
    </g>
</svg>