<?xml version="1.0" encoding="UTF-8"?>
<svg width="23px" height="23px" viewBox="0 0 23 23" version="1.1" xmlns="http://www.w3.org/2000/svg" xmlns:xlink="http://www.w3.org/1999/xlink">
    <!-- Generator: Sketch 52.6 (67491) - http://www.bohemiancoding.com/sketch -->
    <title>194-Approval</title>
    <desc>Created with Sketch.</desc>
    <g id="Page-1" stroke="none" stroke-width="1" fill="none" fill-rule="evenodd">
        <g id="07-Agreement-01-final-state" transform="translate(-1131.000000, -812.000000)" fill="#43B971" fill-rule="nonzero">
            <g id="Group-3" transform="translate(1109.000000, 88.000000)">
                <g id="Group" transform="translate(8.000000, 716.000000)">
                    <g id="194-Approval" transform="translate(14.000000, 8.000000)">
                        <path d="M11.5,0.0451375 L10.9609375,0.4763875 L8.534725,2.4170125 L5.409025,2.2816 L4.7078125,2.228125 L4.5456625,2.9017375 L3.7651,5.89375 L1.1776,7.5920125 L0.6118,7.968925 L0.8541625,8.6158 L1.9581625,11.5 L0.8541625,14.3842 L0.6109375,15.031075 L1.1767375,15.4079875 L3.7642375,17.10625 L4.546525,20.0982625 L4.7078125,20.771875 L5.409025,20.7175375 L8.534725,20.5829875 L10.9609375,22.5236125 L11.5,22.9548625 L12.0390625,22.5236125 L14.465275,20.5829875 L17.5918375,20.7184 L18.2921875,20.771875 L18.4543375,20.0982625 L19.2357625,17.10625 L21.8232625,15.4079875 L22.3890625,15.031075 L22.1467,14.3842 L21.040975,11.5 L22.1467,8.6158 L22.3890625,7.968925 L21.8232625,7.5920125 L19.2357625,5.89375 L18.453475,2.9017375 L18.2921875,2.228125 L17.590975,2.2824625 L14.4644125,2.4170125 L12.0390625,0.4763875 L11.5,0.0451375 Z M11.5,2.2548625 L13.6295125,3.9798625 L13.8986125,4.1954875 L14.22205,4.16875 L16.9717,4.0342 L17.6453125,6.6217 L17.7263875,6.9451375 L17.9954875,7.134025 L20.28715,8.6434 L19.3168375,11.2033 L19.209025,11.5 L19.3168375,11.7967 L20.28715,14.3566 L17.9954875,15.865975 L17.7263875,16.055725 L17.6453125,16.3783 L16.9717,18.9658 L14.22205,18.83125 L13.8986125,18.8045125 L13.6295125,19.0201375 L11.5,20.7451375 L9.3704875,19.0201375 L9.1013875,18.8045125 L8.77795,18.83125 L6.0283,18.9658 L5.3546875,16.3783 L5.2736125,16.0548625 L5.0045125,15.8668375 L2.7137125,14.3574625 L3.684025,11.7958375 L3.7918375,11.5 L3.684025,11.2033 L2.7137125,8.6425375 L5.0045125,7.1331625 L5.2736125,6.9451375 L5.3546875,6.6217 L6.0283,4.0342 L8.77795,4.16875 L9.1013875,4.1954875 L9.3704875,3.9798625 L11.5,2.2548625 Z M16.0548625,8.2923625 L10.6375,13.709725 L7.8076375,10.880725 L6.5673625,12.1201375 L10.0173625,15.5701375 L10.6375,16.162675 L11.2576375,15.5701375 L17.2951375,9.5326375 L16.0548625,8.2923625 Z" id="Shape"></path>
                    </g>
                </g>
            </g>
        </g>
    </g>
</svg>