<?xml version="1.0" encoding="UTF-8"?>
<svg width="23px" height="23px" viewBox="0 0 23 23" version="1.1" xmlns="http://www.w3.org/2000/svg" xmlns:xlink="http://www.w3.org/1999/xlink">
    <!-- Generator: Sketch 52.6 (67491) - http://www.bohemiancoding.com/sketch -->
    <title>vector-arrange-below</title>
    <desc>Created with Sketch.</desc>
    <g id="Page-1" stroke="none" stroke-width="1" fill="none" fill-rule="evenodd">
        <g id="07-Agreement-01-final-state" transform="translate(-1131.000000, -703.000000)" fill="#00AEEF" fill-rule="nonzero">
            <g id="Group-3" transform="translate(1109.000000, 88.000000)">
                <g id="Group" transform="translate(8.000000, 607.000000)">
                    <g id="vector-arrange-below" transform="translate(14.000000, 8.000000)">
                        <path d="M20.8095238,23 C22.0252381,23 23,22.0252381 23,20.8095238 L23,8.76190476 C23,7.54619048 22.0252381,6.57142858 20.8095238,6.57142858 C16.79,6.57142858 12.7814286,6.57142858 8.76190476,6.57142858 C7.54619048,6.57142858 6.57142858,7.54619048 6.57142858,8.76190476 C6.57142858,12.7814286 6.57142858,16.79 6.57142858,20.8095238 C6.57142858,22.0252381 7.54619048,23 8.76190476,23 L20.8095238,23 M20.8095238,20.8095238 L8.76190476,20.8095238 L8.76190476,8.76190476 L20.8095238,8.76190476 L20.8095238,20.8095238 M4.38095237,16.4285714 L4.38095237,14.2380952 L2.19047619,14.2380952 L2.19047619,2.19047619 L14.2380952,2.19047619 L14.2380952,4.38095237 L16.4285714,4.38095237 L16.4285714,2.19047619 C16.4285714,0.974761905 15.4538095,8.55661277e-09 14.2380952,8.55661277e-09 L2.19047619,8.55661277e-09 C0.974761905,8.55661277e-09 8.55654808e-09,0.974761905 8.55654808e-09,2.19047619 L8.55654808e-09,14.2380952 C8.55654808e-09,15.4538095 0.974761905,16.4285714 2.19047619,16.4285714 L4.38095237,16.4285714 Z" id="Shape"></path>
                    </g>
                </g>
            </g>
        </g>
    </g>
</svg>