<?xml version="1.0" encoding="UTF-8"?>
<svg width="123px" height="124px" viewBox="0 0 123 124" version="1.1" xmlns="http://www.w3.org/2000/svg" xmlns:xlink="http://www.w3.org/1999/xlink">
    <!-- Generator: Sketch 52.6 (67491) - http://www.bohemiancoding.com/sketch -->
    <title>business (1)</title>
    <desc>Created with Sketch.</desc>
    <g id="Page-1" stroke="none" stroke-width="1" fill="none" fill-rule="evenodd">
        <g id="05-Profile-03-Bank-Accounts" transform="translate(-200.000000, -201.000000)" fill-rule="nonzero">
            <g id="business-(1)" transform="translate(200.000000, 201.000000)">
                <g id="Group" transform="translate(2.066667, 26.866667)">
                    <polygon id="Path" fill="#F5F7FE" points="5.870625 0 5.424225 0 5.424225 37.2 0.493158333 82.6666667 117.821958 82.6666667 112.890892 37.2 112.890892 0"></polygon>
                    <polygon id="Path" fill="#EDEDED" points="0.464225 82.6666667 0.133558333 85.9774667 0.493158333 82.6666667"></polygon>
                    <polygon id="Path" fill="#EDEDED" points="117.850892 82.6666667 117.821958 82.6666667 118.181558 85.9774667"></polygon>
                </g>
                <path d="M2.200225,112.844133 C1.71249167,117.711133 5.53375833,121.933333 10.4255583,121.933333 L112.022892,121.933333 C116.912625,121.933333 120.735958,117.711133 120.248225,112.844133 L119.888625,109.533333 L2.559825,109.533333 L2.200225,112.844133 Z" id="Path" fill="#F7BE72"></path>
                <path d="M114.957558,26.8666667 L114.957558,10.3333333 C114.957558,5.76806667 111.256158,2.06666667 106.690892,2.06666667 L15.7575583,2.06666667 C11.1922917,2.06666667 7.49089167,5.76806667 7.49089167,10.3333333 L7.49089167,26.8666667 L7.93729167,26.8666667 L114.957558,26.8666667 Z" id="Path" fill="#B2C2F3"></path>
                <g id="Group" fill="#2D2D2D">
                    <rect id="Rectangle" x="17.824225" y="37.2" width="12.4" height="4.13333333"></rect>
                    <rect id="Rectangle" x="44.6908917" y="37.2" width="12.4" height="4.13333333"></rect>
                    <rect id="Rectangle" x="71.5575583" y="37.2" width="10.3333333" height="4.13333333"></rect>
                    <rect id="Rectangle" x="94.2908917" y="37.2" width="12.4" height="4.13333333"></rect>
                    <rect id="Rectangle" x="17.824225" y="47.5333333" width="12.4" height="4.13333333"></rect>
                    <rect id="Rectangle" x="44.6908917" y="47.5333333" width="12.4" height="4.13333333"></rect>
                    <rect id="Rectangle" x="71.5575583" y="47.5333333" width="10.3333333" height="4.13333333"></rect>
                    <rect id="Rectangle" x="94.2908917" y="47.5333333" width="12.4" height="4.13333333"></rect>
                    <path d="M62.0343583,90.9333333 C60.895625,90.9333333 59.9676917,90.0054 59.9676917,88.8666667 L55.8343583,88.8666667 C55.8343583,91.5574667 57.5682917,93.8308 59.9676917,94.6864 L59.9676917,97.1333333 L64.101025,97.1333333 L64.101025,94.6864 C66.500425,93.8308 68.2343583,91.5574667 68.2343583,88.8666667 C68.2343583,88.319 68.0173583,87.792 67.628825,87.4055333 L60.0978917,79.8746 C60.393425,79.0934 61.149825,78.5333333 62.0343583,78.5333333 C63.1730917,78.5333333 64.101025,79.4612667 64.101025,80.6 L68.2343583,80.6 C68.2343583,77.9092 66.500425,75.6358667 64.101025,74.7802667 L64.101025,72.3333333 L59.9676917,72.3333333 L59.9676917,74.7802667 C57.5682917,75.6358667 55.8343583,77.9092 55.8343583,80.6 C55.8343583,81.1476667 56.0513583,81.6746667 56.4398917,82.0611333 L63.970825,89.5920667 C63.6752917,90.3732667 62.9188917,90.9333333 62.0343583,90.9333333 Z" id="Path"></path>
                    <rect id="Rectangle" x="84.7635583" y="78.5333333" width="20.6666667" height="4.13333333"></rect>
                    <rect id="Rectangle" x="86.830225" y="90.9333333" width="22.7333333" height="4.13333333"></rect>
                    <rect id="Rectangle" x="18.6343583" y="78.5333333" width="20.6666667" height="4.13333333"></rect>
                    <rect id="Rectangle" x="14.501025" y="90.9333333" width="22.7333333" height="4.13333333"></rect>
                    <rect id="Rectangle" x="102.557558" y="8.26666667" width="4.13333333" height="8.26666667"></rect>
                    <rect id="Rectangle" x="94.2908917" y="8.26666667" width="4.13333333" height="8.26666667"></rect>
                    <rect id="Rectangle" x="86.024225" y="8.26666667" width="4.13333333" height="8.26666667"></rect>
                    <rect id="Rectangle" x="77.7575583" y="8.26666667" width="4.13333333" height="8.26666667"></rect>
                    <rect id="Rectangle" x="17.824225" y="8.26666667" width="8.26666667" height="4.13333333"></rect>
                    <rect id="Rectangle" x="17.824225" y="16.5333333" width="18.6" height="4.13333333"></rect>
                    <path d="M106.690892,0 L15.7575583,0 C10.0597583,0 5.424225,4.63553333 5.424225,10.3333333 L5.424225,63.9550667 L0.520025,109.1758 C0.509691667,109.229533 0.480758333,109.272933 0.474558333,109.326667 L0.143891667,112.637467 C-0.147508333,115.537 0.809358333,118.4386 2.764425,120.598267 C4.717425,122.76 7.51155833,124 10.4255583,124 L112.022892,124 C114.936892,124 117.731025,122.76 119.686092,120.598267 C121.641158,118.4386 122.595958,115.537 122.306625,112.637467 L121.975958,109.326667 C121.969758,109.272933 121.940825,109.227467 121.930492,109.173733 L117.024225,63.9550667 L117.024225,10.3333333 C117.024225,4.63553333 112.388692,0 106.690892,0 Z M9.34469167,66.1333333 L113.101692,66.1333333 L117.584292,107.466667 L4.86209167,107.466667 L9.34469167,66.1333333 Z M9.55755833,28.9333333 L112.890892,28.9333333 L112.890892,62 L9.55755833,62 L9.55755833,28.9333333 Z M15.7575583,4.13333333 L106.690892,4.13333333 C110.109158,4.13333333 112.890892,6.91506667 112.890892,10.3333333 L112.890892,24.8 L9.55755833,24.8 L9.55755833,10.3333333 C9.55755833,6.91506667 12.3392917,4.13333333 15.7575583,4.13333333 Z M10.4255583,119.866667 C8.65235833,119.866667 7.01969167,119.141267 5.827225,117.826867 C4.636825,116.512467 4.078825,114.815733 4.25655833,113.0508 L4.258625,113.034267 L4.413625,111.6 L118.034825,111.6 L118.191892,113.0508 C118.367558,114.815733 117.809558,116.512467 116.621225,117.826867 C115.430825,119.141267 113.796092,119.866667 112.022892,119.866667 L10.4255583,119.866667 Z" id="Shape"></path>
                </g>
            </g>
        </g>
    </g>
</svg>