<?xml version="1.0" encoding="UTF-8"?>
<svg width="231px" height="49px" viewBox="0 0 231 49" version="1.1" xmlns="http://www.w3.org/2000/svg" xmlns:xlink="http://www.w3.org/1999/xlink">
    <!-- Generator: Sketch 52.6 (67491) - http://www.bohemiancoding.com/sketch -->
    <title>bitcoin-logo</title>
    <desc>Created with Sketch.</desc>
    <g id="Page-1" stroke="none" stroke-width="1" fill="none" fill-rule="evenodd">
        <g id="05-Profile-02-Payment-Methods" transform="translate(-430.000000, -816.000000)" fill-rule="nonzero">
            <g id="bitcoin-logo" transform="translate(430.000000, 816.000000)">
                <path d="M47.4548144,29.8634493 C44.2433515,42.7468708 31.1968773,50.5839223 18.3134558,47.3724594 C5.43679694,44.1609964 -2.40250879,31.1137709 0.810456925,18.233355 C4.02041706,5.34993355 17.0661399,-2.48937217 29.9450529,0.72209075 C42.8269716,3.93355367 50.6655259,16.9822821 47.454063,29.8634493 L47.4548144,29.8634493 Z" id="Path" fill="#F7931A"></path>
                <path d="M34.7336943,20.6220402 C35.212333,17.4225996 32.7763099,15.7026561 29.4453751,14.5552757 L30.5258814,10.2212284 L27.887733,9.56375762 L26.8357797,13.7835928 C26.1331008,13.6109408 25.4287598,13.4451251 24.7228566,13.2861693 L25.7823237,9.0385324 L23.1449267,8.38106163 L22.0644205,12.7136061 C21.4903546,12.5828634 20.9268082,12.4536234 20.3797925,12.3176209 L20.3827981,12.3040958 L16.7445427,11.395659 L16.0427396,14.2133909 C16.0427396,14.2133909 18.000124,14.6619738 17.9587973,14.6897754 C19.0272812,14.9565207 19.2203898,15.6635835 19.1880798,16.2241243 L17.9572945,21.1615419 C18.0309312,21.1803268 18.1263584,21.2081284 18.2315538,21.2494552 L17.9527861,21.1803268 L16.2275829,28.0969193 C16.0968401,28.421522 15.7654748,28.9084261 15.0178366,28.7235828 C15.0448869,28.761904 13.1010276,28.2449441 13.1010276,28.2449441 L11.7913458,31.2655527 L15.2244703,32.1221432 C15.8631562,32.2814389 16.4890684,32.4490001 17.1052124,32.606793 L16.0134352,36.9904324 L18.6485781,37.6479032 L19.7290843,33.3100989 C20.4489209,33.5062131 21.1477184,33.6857965 21.831488,33.8563632 L20.7539873,38.1731284 L23.3913843,38.8305992 L24.4839129,34.4552251 C28.9825157,35.3065559 32.3652967,34.9631683 33.7891906,30.8951149 C34.936571,27.619032 33.7320845,25.7292731 31.3651898,24.4962337 C33.0888903,24.0979942 34.3873011,22.9641389 34.7336943,20.6220402 Z M28.7052509,29.073733 C27.8899872,32.3498159 22.3739953,30.5795289 20.5856748,30.134703 L22.0343647,24.3271698 C23.8226851,24.7742499 29.557333,25.6578906 28.7052509,29.073733 Z M29.5212661,20.5754537 C28.7773848,23.5547355 24.1863604,22.0406743 22.6970952,21.6694851 L24.0105339,16.402205 C25.4997992,16.7733942 30.2959545,17.4661805 29.5212661,20.5747023 L29.5212661,20.5754537 Z" id="Shape" fill="#FFFFFF"></path>
                <path d="M70.5527017,14.5507673 C72.5025721,14.5507673 74.1872001,14.9001661 75.6020771,15.5861898 C77.0252196,16.2789762 78.1988988,17.212209 79.140397,18.3858882 C80.0691214,19.5655786 80.7604049,20.9443887 81.2067337,22.5245728 C81.6500568,24.1100166 81.8724698,25.812678 81.8724698,27.6355627 C81.8724698,30.4382666 81.3592669,33.0831776 80.3230929,35.5778095 C79.2861676,38.0761984 77.8810587,40.2439735 76.0927382,42.0924056 C74.3059205,43.9385835 72.1960029,45.3932845 69.7629853,46.468531 C67.3337248,47.5445289 64.6925708,48.0825278 61.8568054,48.0825278 C61.4901246,48.0825278 60.8454276,48.0720083 59.9347366,48.0532234 C59.0240457,48.0344385 57.9773522,47.9405141 56.8051758,47.7827211 C55.5452186,47.6028068 54.2954651,47.357521 53.0609737,47.0478567 C51.7690516,46.7359208 50.5139367,46.2875756 49.3167716,45.7103733 L59.8453206,1.46972894 L69.2753299,0.00901674194 L65.5055804,15.7079159 C66.2895563,15.3535901 67.1032016,15.0689651 67.9370951,14.8573365 C68.7930197,14.6492824 69.6711133,14.5463335 70.5519503,14.5507673 L70.5527017,14.5507673 Z M62.6427648,40.6016376 C64.0629016,40.6016376 65.400385,40.2522388 66.6582205,39.5669664 C67.9225266,38.8757986 69.0320472,37.9332559 69.9185241,36.7973239 C70.8448999,35.6129252 71.5738748,34.2866628 72.0772824,32.8697814 C72.605147,31.4051729 72.8731638,29.8596265 72.8692529,28.3028016 C72.8692529,26.3551853 72.5438988,24.8388699 71.8954448,23.7395787 C71.2469908,22.6462988 70.0470127,22.0962775 68.3037759,22.0962775 C67.7327156,22.0962775 66.9978511,22.2052298 66.0856574,22.3998412 C65.1704581,22.6064748 64.3514374,23.0355215 63.6173243,23.6809699 L59.60262,40.3529258 C59.8445692,40.3957553 60.0587168,40.4363306 60.2413059,40.4746518 C60.4201379,40.5159785 60.6170034,40.5452829 60.8146204,40.5655706 C61.0227568,40.5888638 61.2609491,40.6008862 61.5487334,40.6008862 L62.6420134,40.6016376 L62.6427648,40.6016376 Z M91.6518778,47.2364568 L82.644904,47.2364568 L90.2512772,15.2292771 L99.3198654,15.2292771 L91.6518778,47.2364568 Z M96.0347658,11.3295362 C94.8059734,11.3397268 93.608075,10.9446527 92.6264373,10.2054491 C91.6067941,9.46006509 91.1011051,8.31268467 91.1011051,6.76631343 C91.1011051,5.91573411 91.273926,5.11775245 91.6173136,4.36485449 C91.9491566,3.63551783 92.4145097,2.97469606 92.9893612,2.41648684 C93.5654985,1.86655693 94.2345767,1.42313357 94.9655305,1.10680507 C95.7262697,0.781709697 96.5457236,0.616488965 97.3730006,0.621403799 C98.6293333,0.621403799 99.7624372,0.995598589 100.778323,1.74549096 C101.789701,2.49914031 102.298396,3.64652072 102.298396,5.18462662 C102.303355,6.01485495 102.126387,6.83609167 101.779933,7.59059392 C101.451311,8.32063653 100.987273,8.9817642 100.412394,9.53896158 C99.8375939,10.0896044 99.1681439,10.5320014 98.4362247,10.8448864 C97.6833268,11.1739975 96.8853451,11.3295362 96.0347658,11.3295362 Z M107.213272,7.25472029 L116.647038,5.7932567 L114.330487,15.2277743 L124.433746,15.2277743 L122.609358,22.6500558 L112.566962,22.6500558 L109.891995,33.8458437 C109.645538,34.7783251 109.505778,35.6499435 109.466706,36.4606988 C109.421622,37.2744598 109.525315,37.9732573 109.768767,38.5615997 C110.010716,39.1514449 110.445022,39.606039 111.076194,39.9268847 C111.705112,40.2537416 112.604532,40.4182971 113.784222,40.4182971 C114.755776,40.4182971 115.703286,40.3258755 116.616982,40.1425351 C117.555758,39.9564493 118.479872,39.7028201 119.382116,39.383626 L120.055366,46.3227603 C118.762743,46.7908101 117.441621,47.1760538 116.100022,47.4761519 C114.677631,47.8037602 112.993755,47.9608018 111.047641,47.9608018 C108.249446,47.9608018 106.080168,47.5452803 104.534548,46.7187456 C102.991182,45.8861997 101.900156,44.7470847 101.247194,43.3059088 C100.603248,41.870744 100.315464,40.2154205 100.395863,38.3497063 C100.478517,36.4802351 100.761041,34.5145854 101.247194,32.4459945 L107.213272,7.25472029 Z M124.037761,34.4559765 C124.037761,31.6983563 124.484089,29.0992804 125.375244,26.6647601 C126.265647,24.228737 127.548279,22.0985317 129.211868,20.2711387 C130.870197,18.4527624 132.890698,17.0108351 135.269616,15.9528707 C137.635008,14.9009175 140.28593,14.3704325 143.205851,14.3704325 C145.034747,14.3704325 146.667529,14.5432534 148.104948,14.8896465 C149.547626,15.2390453 150.852048,15.6906338 152.03249,16.2571857 L148.926974,23.3203002 C148.099171,22.9875842 147.256462,22.6932255 146.401535,22.4381623 C145.529916,22.1699142 144.466692,22.0406743 143.208105,22.0406743 C140.201022,22.0406743 137.82511,23.0775996 136.056326,25.1424335 C134.293553,27.2095216 133.406156,29.9919379 133.406156,33.4829198 C133.406156,35.5515107 133.853236,37.2233649 134.748899,38.5029909 C135.640053,39.7826168 137.28636,40.4197999 139.676548,40.4197999 C140.855487,40.4197999 141.994602,40.2965711 143.084877,40.0561247 C144.183416,39.8126726 145.153468,39.5061034 146.007804,39.143931 L146.681054,46.3843747 C145.4487,46.8570541 144.188799,47.2545212 142.908299,47.5745847 C141.525732,47.9127125 139.88243,48.0870362 137.976141,48.0870362 C135.46047,48.0870362 133.329513,47.7196039 131.587779,46.9937562 C129.844542,46.2581403 128.404118,45.2805752 127.26876,44.042276 C126.128142,42.8009712 125.309873,41.3507785 124.803432,39.687941 C124.296992,38.0251036 124.037009,36.276607 124.037009,34.4559765 L124.037761,34.4559765 Z M164.049553,48.084782 C161.899811,48.084782 160.031843,47.7571737 158.447902,47.1087197 C156.868469,46.461017 155.561042,45.5503261 154.525619,44.3706357 C153.488694,43.1969565 152.714006,41.806124 152.182769,40.2033981 C151.651533,38.6014236 151.396059,36.8273797 151.396059,34.8835204 C151.396059,32.4459945 151.786784,30.0084686 152.578754,27.5762024 C153.366968,25.1416821 154.535387,22.9521166 156.080256,21.0067545 C157.615356,19.0583869 159.508872,17.4654291 161.736007,16.2233729 C163.962391,14.9895821 166.522395,14.3689297 169.399487,14.3689297 C171.510156,14.3689297 173.366853,14.6972894 174.973336,15.3457434 C176.571553,15.9926946 177.887998,16.9101481 178.92868,18.0838274 C179.958091,19.2635178 180.741045,20.648339 181.265519,22.2540705 C181.796004,23.852288 182.057489,25.6308404 182.057489,27.5762024 C182.057489,30.0062144 181.671272,32.4452431 180.905601,34.882769 C180.138426,37.3097754 179.000063,39.5038492 177.497272,41.4529683 C175.997487,43.3990818 174.122757,44.9905367 171.869322,46.2273331 C169.620397,47.464881 167.010801,48.084782 164.049553,48.084782 Z M168.55041,22.0414257 C167.215181,22.0414257 166.034739,22.4283942 165.024113,23.1940659 C164.009729,23.9687543 163.158398,24.9433138 162.471623,26.116993 C161.777334,27.2966834 161.26338,28.583072 160.915484,29.9814183 C160.569842,31.3827703 160.400778,32.7089828 160.400778,33.9660669 C160.400778,35.997088 160.729138,37.5802776 161.372332,38.7178899 C162.024543,39.849491 163.198222,40.4197999 164.902387,40.4197999 C166.242124,40.4197999 167.417306,40.0343342 168.433192,39.2611486 C169.441565,38.4924713 170.29515,37.5179118 170.986433,36.3404756 C171.676214,35.1682992 172.195428,33.8774023 172.543324,32.4760503 C172.883706,31.0792067 173.057278,29.7469831 173.057278,28.4906503 C173.057278,26.464889 172.731173,24.8794452 172.080465,23.7425843 C171.432762,22.6102318 170.253823,22.0406743 168.55041,22.0406743 L168.55041,22.0414257 Z M191.872964,47.2364568 L182.859228,47.2364568 L190.465601,15.2292771 L199.537947,15.2292771 L191.872964,47.2364568 Z M196.24909,11.3295362 C195.021422,11.3399095 193.824658,10.9447739 192.844518,10.2054491 C191.828632,9.46006509 191.319186,8.31268467 191.319186,6.76631343 C191.319186,5.91573411 191.495013,5.11775245 191.837649,4.36485449 C192.167309,3.63464799 192.632362,2.97352843 193.208194,2.41648684 C193.785026,1.86636002 194.454879,1.42292871 195.186617,1.10680507 C195.944434,0.781647108 196.761207,0.616399596 197.585822,0.621403799 C198.845912,0.621403799 199.982772,0.995598589 200.996405,1.74549096 C202.010037,2.49914031 202.520985,3.64652072 202.520985,5.18462662 C202.520985,6.03821152 202.339148,6.83919876 201.998766,7.59059392 C201.658384,8.34198909 201.200784,8.98894032 200.634232,9.53896158 C200.058394,10.0883031 199.389192,10.5305361 198.658063,10.8448864 C197.902911,11.1739975 197.104929,11.3295362 196.24909,11.3295362 Z M206.029249,16.6847296 C206.713019,16.4848585 207.476436,16.244412 208.305977,15.9829265 C209.228836,15.6967444 210.164899,15.455018 211.110935,15.2585816 C212.139595,15.033163 213.3005,14.8490712 214.577121,14.7070575 C215.85299,14.5620382 217.308442,14.4914071 218.923942,14.4914071 C223.674262,14.4914071 226.948842,15.8747256 228.756699,18.6330972 C230.563053,21.3914689 230.875633,25.1657268 229.703457,29.9513625 L225.560264,47.2334513 L216.49393,47.2334513 L220.510137,30.3142864 C220.75434,29.2585762 220.945946,28.2366788 221.088711,27.238826 C221.232979,26.24999 221.223962,25.3776202 221.057153,24.6239708 C220.909849,23.9014338 220.512316,23.2540461 219.934568,22.7958264 C219.340215,22.3307128 218.442297,22.0970289 217.225037,22.0970289 C216.019561,22.1017839 214.817503,22.225614 213.636374,22.4667153 L207.732662,47.2311971 L198.663323,47.2311971 L206.029249,16.6847296 Z" id="Shape" fill="#4D4D4D"></path>
            </g>
        </g>
    </g>
</svg>