<?xml version="1.0" encoding="UTF-8"?>
<svg width="26px" height="26px" viewBox="0 0 26 26" version="1.1" xmlns="http://www.w3.org/2000/svg" xmlns:xlink="http://www.w3.org/1999/xlink">
    <!-- Generator: Sketch 52.6 (67491) - http://www.bohemiancoding.com/sketch -->
    <title>blocks</title>
    <desc>Created with Sketch.</desc>
    <g id="Page-1" stroke="none" stroke-width="1" fill="none" fill-rule="evenodd">
        <g id="07-Agreement-01-final-state" transform="translate(-1129.000000, -102.000000)" fill-rule="nonzero">
            <g id="Group-3" transform="translate(1109.000000, 88.000000)">
                <g id="blocks" transform="translate(19.000000, 13.000000)">
                    <rect id="Rectangle" fill="#000000" opacity="0" x="0" y="0" width="28" height="28"></rect>
                    <path d="M26.25,10.7208889 C26.2497853,12.2096369 25.0429702,13.4164519 23.5542222,13.4166667 L4.05688888,13.4166667 C2.56814088,13.4164519 1.36132583,12.2096369 1.36111112,10.7208889 L1.36111112,4.05688888 C1.36132585,2.56814089 2.56814089,1.36132585 4.05688888,1.36111112 L23.5546111,1.36111112 C25.0433591,1.36132585 26.2501742,2.56814089 26.2503889,4.05688888 L26.2503889,10.7208889 L26.25,10.7208889 Z M24.6944444,4.05688888 C24.6944444,3.42716155 24.1839496,2.91666669 23.5542222,2.91666668 L4.05688888,2.91666668 C3.42716155,2.91666669 2.91666669,3.42716155 2.91666668,4.05688888 L2.91666668,10.7212778 C2.91666668,11.3510051 3.42716154,11.8615 4.05688888,11.8615 L23.5546111,11.8615 C24.1843385,11.8615 24.6948333,11.3510051 24.6948333,10.7212778 L24.6948333,4.05688888 L24.6944444,4.05688888 Z" id="Shape" fill="#FFFFFF"></path>
                    <path d="M4.47222223,7.58333332 C4.36908249,7.58333333 4.27016707,7.54236123 4.19723625,7.46943042 C4.12430543,7.3964996 4.08333332,7.29758419 4.08333332,7.19444444 L4.08333332,6.49366668 C4.08333332,5.49966668 4.56788888,4.47222223 5.62333332,4.47222223 L8.21488888,4.47222223 C8.42966628,4.47222223 8.60377777,4.64633372 8.60377777,4.86111112 C8.60377777,5.07588852 8.42966628,5.25 8.21488888,5.25 L5.62333332,5.25 C5.05477777,5.25 4.86111109,5.88233332 4.86111112,6.49366668 L4.86111112,7.19444444 C4.86111112,7.40922184 4.68699963,7.58333332 4.47222223,7.58333332 Z M4.15877777,8.91722223 C4.05766665,8.91722223 3.95616665,8.87444447 3.88266668,8.80444444 C3.80877779,8.73094444 3.76988891,8.62944444 3.76988888,8.52833332 C3.76988886,8.42722221 3.80877777,8.32611109 3.88266668,8.25222223 C4.03044444,8.10444447 4.28711112,8.10833335 4.431,8.25222223 C4.5045,8.32611112 4.54766668,8.42722223 4.54766668,8.52833332 C4.54766668,8.62944441 4.50488891,8.73094444 4.43488888,8.80055556 C4.35711112,8.87405556 4.25988888,8.91722223 4.15877777,8.91722223 Z M18.0833333,23.9431111 C18.0831186,25.4318591 16.8763036,26.6386742 15.3875556,26.6388889 L4.05688888,26.6388889 C2.56814089,26.6386742 1.36132585,25.4318591 1.36111112,23.9431111 L1.36111112,17.2791111 C1.36132583,15.7903631 2.56814088,14.5835481 4.05688888,14.5833333 L15.3879444,14.5833333 C16.8766925,14.583548 18.0835075,15.7903631 18.0837222,17.2791111 L18.0837222,23.9431111 L18.0833333,23.9431111 Z M16.5277778,17.2791111 C16.5277778,16.6493838 16.0172829,16.1388889 15.3875556,16.1388889 L4.05688888,16.1388889 C3.42716154,16.1388889 2.91666668,16.6493838 2.91666668,17.2791111 L2.91666668,23.9435 C2.91666668,24.5732273 3.42716154,25.0837222 4.05688888,25.0837222 L15.3879444,25.0837222 C15.6903502,25.0837222 15.9803702,24.963592 16.1942033,24.7497589 C16.4080365,24.5359257 16.5281667,24.2459057 16.5281667,23.9435 L16.5281667,17.2791111 L16.5277778,17.2791111 Z" id="Shape" fill="#FFFFFF"></path>
                    <path d="M26.6388889,23.9431111 C26.6386742,25.4318591 25.4318591,26.6386742 23.9431111,26.6388889 L21.9453889,26.6388889 C20.4566409,26.6386742 19.2498258,25.4318591 19.2496111,23.9431111 L19.2496111,17.2791111 C19.2498258,15.7903631 20.4566409,14.5835481 21.9453889,14.5833333 L23.9431111,14.5833333 C25.4318591,14.5835481 26.6386742,15.7903631 26.6388889,17.2791111 L26.6388889,23.9431111 Z M25.0833333,17.2791111 C25.0833333,16.6493838 24.5728385,16.1388889 23.9431111,16.1388889 L21.9453889,16.1388889 C21.3156615,16.1388889 20.8051667,16.6493838 20.8051667,17.2791111 L20.8051667,23.9435 C20.8051667,24.5732273 21.3156615,25.0837222 21.9453889,25.0837222 L23.9431111,25.0837222 C24.5728385,25.0837222 25.0833333,24.5732273 25.0833333,23.9435 L25.0833333,17.2791111 Z" id="Shape" fill="#FFFFFF"></path>
                </g>
            </g>
        </g>
    </g>
</svg>