<?xml version="1.0" encoding="UTF-8"?>
<svg width="142px" height="140px" viewBox="0 0 142 140" version="1.1" xmlns="http://www.w3.org/2000/svg" xmlns:xlink="http://www.w3.org/1999/xlink">
    <!-- Generator: Sketch 52.6 (67491) - http://www.bohemiancoding.com/sketch -->
    <title>commerce</title>
    <desc>Created with Sketch.</desc>
    <g id="Page-1" stroke="none" stroke-width="1" fill="none" fill-rule="evenodd">
        <g id="05-Profile-02-Payment-Methods" transform="translate(-200.000000, -201.000000)" fill-rule="nonzero">
            <g id="commerce" transform="translate(200.000000, 201.000000)">
                <path d="M36.552198,109.642733 L5.67762376,76.9595248 C3.8739802,75.0483168 3.90087129,72.0528713 5.73889109,70.1757624 L68.4203564,6.13615842 C70.3121584,4.20526733 73.4101782,4.17089109 75.3410693,6.06019802 C75.3654653,6.08459406 75.3923564,6.10926733 75.4170297,6.13615842 L111.636277,43.1507723 C113.513386,45.0694653 113.496198,48.1430891 111.594693,50.0398812 L88.1010297,73.5335446" id="Path" fill="#F7BE72"></path>
                <path d="M41.6032871,73.5335446 L134.598772,73.5335446 C137.302851,73.5335446 139.493228,75.7239208 139.493228,78.428 L139.493228,132.267564 C139.493228,134.971644 137.302851,137.16202 134.598772,137.16202 L41.6032871,137.16202 C38.8992079,137.16202 36.7088317,134.971644 36.7088317,132.267564 L36.7088317,78.428 C36.7088317,75.7261386 38.901703,73.5335446 41.6032871,73.5335446 Z" id="Path" fill="#B2C2F3"></path>
                <g id="Group" transform="translate(46.297030, 107.564356)" fill="#1E5D89">
                    <rect id="Rectangle" x="0.200990099" y="0.230653465" width="17.1307327" height="4.89445545"></rect>
                    <rect id="Rectangle" x="22.2261782" y="0.230653465" width="17.1307327" height="4.89445545"></rect>
                    <rect id="Rectangle" x="44.2513663" y="0.230653465" width="17.1307327" height="4.89445545"></rect>
                    <rect id="Rectangle" x="66.2765545" y="0.230653465" width="17.1307327" height="4.89445545"></rect>
                </g>
                <path d="M112.634851,85.8308119 C115.980158,82.485505 121.403287,82.485505 124.748871,85.8308119 C128.094178,89.1761188 128.094178,94.5992475 124.748871,97.9448317 C121.403564,101.290139 115.980436,101.290139 112.637347,97.9448317" id="Path" fill="#FFBF41"></path>
                <rect id="Rectangle" fill="#1E5D89" x="36.7088317" y="124.925743" width="102.784673" height="4.89445545"></rect>
                <polygon id="Path" fill="#ED7463" points="19.0887921 91.1535842 88.3948911 19.4001188 79.9225347 10.7417426 9.57877228 81.0857822"></polygon>
                <g id="Group" transform="translate(46.297030, 80.673267)" fill="#D1E3EF">
                    <rect id="Rectangle" x="0.200990099" y="0.201821782" width="4.89445545" height="4.89445545"></rect>
                    <rect id="Rectangle" x="0.200990099" y="7.54364356" width="4.97041584" height="4.89445545"></rect>
                    <rect id="Rectangle" x="7.54253465" y="0.201821782" width="4.89445545" height="12.2362772"></rect>
                    <rect id="Rectangle" x="14.8843564" y="0.201821782" width="4.89445545" height="4.89445545"></rect>
                    <rect id="Rectangle" x="14.8843564" y="7.54364356" width="4.89445545" height="4.89445545"></rect>
                </g>
                <g id="Group" transform="translate(79.009901, 42.415842)" fill="#1E5D89">
                    <rect id="Rectangle" transform="translate(6.640753, 13.989976) rotate(135.000000) translate(-6.640753, -13.989976) " x="-0.281140557" y="11.5427722" width="13.843788" height="4.89440851"></rect>
                    <rect id="Rectangle" transform="translate(16.432570, 4.201320) rotate(135.000000) translate(-16.432570, -4.201320) " x="12.9722472" y="1.75411617" width="6.9206465" height="4.89440851"></rect>
                </g>
                <circle id="Oval" fill="#E3482C" cx="106.455446" cy="91.8879604" r="8.56550495"></circle>
                <rect id="Rectangle" fill="#000000" x="46.4980198" y="107.79501" width="17.1307327" height="4.89445545"></rect>
                <rect id="Rectangle" fill="#000000" x="68.5232079" y="107.79501" width="17.1307327" height="4.89445545"></rect>
                <rect id="Rectangle" fill="#000000" x="90.548396" y="107.79501" width="17.1307327" height="4.89445545"></rect>
                <rect id="Rectangle" fill="#000000" x="112.573584" y="107.79501" width="17.1307327" height="4.89445545"></rect>
                <path d="M106.455446,102.900554 C108.633624,102.90305 110.76495,102.256832 112.573584,101.040634 C117.629663,104.422812 124.467208,103.066891 127.849386,98.0108119 C131.231564,92.9547327 129.875644,86.1171881 124.819564,82.7350099 C121.114416,80.2560396 116.276238,80.2560396 112.571089,82.7350099 C107.51501,79.3528317 100.677465,80.7087525 97.2952871,85.7648317 C93.9131089,90.8209109 95.2690297,97.6584554 100.325109,101.040634 C102.138455,102.254337 104.272554,102.90305 106.455446,102.900554 Z M115.965465,86.4379406 C116.809901,86.0049109 117.742218,85.7773069 118.691723,85.7698218 C122.071406,85.7698218 124.809861,88.5082772 124.809861,91.8879604 C124.809861,95.2676436 122.071406,98.006099 118.691723,98.006099 C117.742218,97.9988911 116.809901,97.7712871 115.965465,97.3379802 C117.969822,93.9826931 117.969822,89.7954455 115.965465,86.4379406 Z M106.455446,85.7698218 C109.835129,85.7698218 112.573584,88.5082772 112.573584,91.8879604 C112.573584,95.2676436 109.835129,98.006099 106.455446,98.006099 C103.075762,98.006099 100.337307,95.2676436 100.337307,91.8879604 C100.337307,88.5082772 103.075762,85.7698218 106.455446,85.7698218 Z" id="Shape" fill="#000000"></path>
                <path d="M34.2617426,110.78297 L34.2617426,132.267287 C34.2617426,136.322297 37.5482772,139.609109 41.6035644,139.609109 L134.59905,139.609109 C138.654059,139.609109 141.940871,136.322574 141.940871,132.267287 L141.940871,78.428 C141.940871,74.3729901 138.654337,71.0861782 134.59905,71.0861782 L94.0087525,71.0861782 L116.751129,48.343802 C117.698139,47.3967921 117.708119,45.8623366 116.770812,44.9028515 L73.6624554,0.849980198 C72.7179406,-0.116712871 71.1687921,-0.13390099 70.202099,0.810891089 C70.189901,0.825584158 70.1752079,0.837782178 70.1630099,0.849980198 L0.697782178,71.8202772 C-0.219841584,72.7600792 -0.234534653,74.2576634 0.66839604,75.2121584 L34.2617426,110.78297 Z M34.2617426,103.654337 L22.4806733,91.1732673 L34.2617426,78.9785743 L34.2617426,103.654337 Z M137.046139,132.267564 C137.046139,133.618495 135.949703,134.714931 134.598772,134.714931 L41.6032871,134.714931 C40.2523564,134.714931 39.1559208,133.618495 39.1559208,132.267564 L39.1559208,129.820198 L137.046139,129.820198 L137.045861,132.267564 L137.046139,132.267564 Z M134.59905,75.9806337 C135.94998,75.9806337 137.046416,77.0770693 137.046416,78.428 L137.046416,124.925743 L39.156198,124.925743 L39.156198,78.428 C39.156198,77.0770693 40.2526337,75.9806337 41.6035644,75.9806337 L134.59905,75.9806337 Z M111.577505,46.5942178 L87.0877624,71.0861782 L41.8824554,71.0861782 L88.399604,22.9070495 L111.577505,46.5942178 Z M84.9761188,19.407604 L19.117901,87.6197624 L12.9997624,81.1345743 L79.9028515,14.2217822 L84.9761188,19.407604 Z M71.919802,6.06269307 L76.4790891,10.7123564 L9.63005941,77.5738614 L5.84174257,73.5651485 L71.919802,6.06269307 Z" id="Shape" fill="#000000"></path>
                <rect id="Rectangle" fill="#000000" x="46.4980198" y="80.8750891" width="4.89445545" height="4.89445545"></rect>
                <rect id="Rectangle" fill="#000000" x="46.4980198" y="88.2169109" width="4.97041584" height="4.89445545"></rect>
                <rect id="Rectangle" fill="#000000" x="53.8395644" y="80.8750891" width="4.89445545" height="12.2362772"></rect>
                <rect id="Rectangle" fill="#000000" x="61.1813861" y="80.8750891" width="4.89445545" height="4.89445545"></rect>
                <rect id="Rectangle" fill="#000000" x="61.1813861" y="88.2169109" width="4.89445545" height="4.89445545"></rect>
                <rect id="Rectangle" fill="#000000" transform="translate(85.650654, 56.405818) rotate(135.000000) translate(-85.650654, -56.405818) " x="78.7287604" y="53.9586137" width="13.843788" height="4.89440851"></rect>
                <rect id="Rectangle" fill="#000000" transform="translate(95.442471, 46.617162) rotate(135.000000) translate(-95.442471, -46.617162) " x="91.9821481" y="44.1699578" width="6.9206465" height="4.89440851"></rect>
            </g>
        </g>
    </g>
</svg>