<?xml version="1.0" encoding="UTF-8"?>
<svg width="125px" height="125px" viewBox="0 0 125 125" version="1.1" xmlns="http://www.w3.org/2000/svg" xmlns:xlink="http://www.w3.org/1999/xlink">
    <!-- Generator: Sketch 52.6 (67491) - http://www.bohemiancoding.com/sketch -->
    <title>Group 5</title>
    <desc>Created with Sketch.</desc>
    <g id="Page-1" stroke="none" stroke-width="1" fill="none" fill-rule="evenodd">
        <g id="05-Profile-01-Basic" transform="translate(-842.000000, -302.000000)">
            <g id="Group-3" transform="translate(842.000000, 216.000000)">
                <g id="Group-5" transform="translate(0.000000, 86.000000)">
                    <circle id="Oval" fill="#F5F7FE" cx="62.5" cy="62.5" r="62.5"></circle>
                    <g id="office" transform="translate(32.000000, 33.000000)" fill="#0034DA" fill-opacity="0.25" fill-rule="nonzero">
                        <path d="M35.1372549,22.4611765 L57.2486275,26.8533333 C59.0305882,27.2298039 60.2352941,28.7356863 60.2352941,30.5176471 L60.2352941,56.1176471 C60.2352941,58.2007843 58.5537255,59.8823529 56.4705882,59.8823529 L33.8823529,59.8823529 C34.585098,59.8823529 35.1372549,59.3301961 35.1372549,58.627451 L35.1372549,57.372549 L56.4705882,57.372549 C57.1482353,57.372549 57.7254902,56.8203922 57.7254902,56.1176471 L57.7254902,30.5176471 C57.7254902,29.9403922 57.3239216,29.4133333 56.7466667,29.2878431 L35.1372549,25.0211765 L35.1372549,22.4611765 Z" id="Path"></path>
                        <path d="M48.9411765,34.7843137 C49.6439216,34.7843137 50.1960784,35.3364706 50.1960784,36.0392157 C50.1960784,36.7419608 49.6439216,37.2941176 48.9411765,37.2941176 L43.9215686,37.2941176 C43.2188235,37.2941176 42.6666667,36.7419608 42.6666667,36.0392157 C42.6666667,35.3364706 43.2188235,34.7843137 43.9215686,34.7843137 L48.9411765,34.7843137 Z" id="Path"></path>
                        <path d="M48.9411765,42.3137255 C49.6439216,42.3137255 50.1960784,42.8658824 50.1960784,43.5686275 C50.1960784,44.2713725 49.6439216,44.8235294 48.9411765,44.8235294 L43.9215686,44.8235294 C43.2188235,44.8235294 42.6666667,44.2713725 42.6666667,43.5686275 C42.6666667,42.8658824 43.2188235,42.3137255 43.9215686,42.3137255 L48.9411765,42.3137255 Z" id="Path"></path>
                        <path d="M48.9411765,49.8431373 C49.6439216,49.8431373 50.1960784,50.3952941 50.1960784,51.0980392 C50.1960784,51.8007843 49.6439216,52.3529412 48.9411765,52.3529412 L43.9215686,52.3529412 C43.2188235,52.3529412 42.6666667,51.8007843 42.6666667,51.0980392 C42.6666667,50.3952941 43.2188235,49.8431373 43.9215686,49.8431373 L48.9411765,49.8431373 Z" id="Path"></path>
                        <path d="M35.1372549,58.627451 C35.1372549,59.3301961 34.585098,59.8823529 33.8823529,59.8823529 C33.1796078,59.8823529 32.627451,59.3301961 32.627451,58.627451 L32.627451,57.372549 L32.627451,23.4901961 C32.627451,23.1137255 32.8031373,22.7623529 33.0792157,22.5113725 C33.3803922,22.2854902 33.7568627,22.185098 34.1333333,22.2603922 L35.1372549,22.4611765 L35.1372549,25.0211765 L35.1372549,57.372549 L35.1372549,58.627451 Z" id="Path"></path>
                        <path d="M32.627451,57.372549 L32.627451,58.627451 C32.627451,59.3301961 33.1796078,59.8823529 33.8823529,59.8823529 L23.8431373,59.8823529 C24.5458824,59.8823529 25.0980392,59.3301961 25.0980392,58.627451 L25.0980392,57.372549 L32.627451,57.372549 Z" id="Path"></path>
                        <path d="M26.3529412,12.1960784 C27.0556863,12.1960784 27.6078431,12.7482353 27.6078431,13.4509804 C27.6078431,14.1537255 27.0556863,14.7058824 26.3529412,14.7058824 L21.3333333,14.7058824 C20.6305882,14.7058824 20.0784314,14.1537255 20.0784314,13.4509804 C20.0784314,12.7482353 20.6305882,12.1960784 21.3333333,12.1960784 L26.3529412,12.1960784 Z" id="Path"></path>
                        <path d="M27.6078431,20.9803922 C27.6078431,21.6831373 27.0556863,22.2352941 26.3529412,22.2352941 L21.3333333,22.2352941 C20.6305882,22.2352941 20.0784314,21.6831373 20.0784314,20.9803922 C20.0784314,20.2776471 20.6305882,19.7254902 21.3333333,19.7254902 L26.3529412,19.7254902 C27.0556863,19.7254902 27.6078431,20.2776471 27.6078431,20.9803922 Z" id="Path"></path>
                        <path d="M26.3529412,27.254902 C27.0556863,27.254902 27.6078431,27.8070588 27.6078431,28.5098039 C27.6078431,29.212549 27.0556863,29.7647059 26.3529412,29.7647059 L21.3333333,29.7647059 C20.6305882,29.7647059 20.0784314,29.212549 20.0784314,28.5098039 C20.0784314,27.8070588 20.6305882,27.254902 21.3333333,27.254902 L26.3529412,27.254902 Z" id="Path"></path>
                        <path d="M26.3529412,34.7843137 C27.0556863,34.7843137 27.6078431,35.3364706 27.6078431,36.0392157 C27.6078431,36.7419608 27.0556863,37.2941176 26.3529412,37.2941176 L21.3333333,37.2941176 C20.6305882,37.2941176 20.0784314,36.7419608 20.0784314,36.0392157 C20.0784314,35.3364706 20.6305882,34.7843137 21.3333333,34.7843137 L26.3529412,34.7843137 Z" id="Path"></path>
                        <path d="M15.0588235,36.0392157 C15.0588235,36.7419608 14.5066667,37.2941176 13.8039216,37.2941176 L8.78431373,37.2941176 C8.08156863,37.2941176 7.52941176,36.7419608 7.52941176,36.0392157 C7.52941176,35.3364706 8.08156863,34.7843137 8.78431373,34.7843137 L13.8039216,34.7843137 C14.5066667,34.7843137 15.0588235,35.3364706 15.0588235,36.0392157 Z" id="Path"></path>
                        <path d="M13.8039216,12.1960784 C14.5066667,12.1960784 15.0588235,12.7482353 15.0588235,13.4509804 C15.0588235,14.1537255 14.5066667,14.7058824 13.8039216,14.7058824 L8.78431373,14.7058824 C8.08156863,14.7058824 7.52941176,14.1537255 7.52941176,13.4509804 C7.52941176,12.7482353 8.08156863,12.1960784 8.78431373,12.1960784 L13.8039216,12.1960784 Z" id="Path"></path>
                        <path d="M13.8039216,19.7254902 C14.5066667,19.7254902 15.0588235,20.2776471 15.0588235,20.9803922 C15.0588235,21.6831373 14.5066667,22.2352941 13.8039216,22.2352941 L8.78431373,22.2352941 C8.08156863,22.2352941 7.52941176,21.6831373 7.52941176,20.9803922 C7.52941176,20.2776471 8.08156863,19.7254902 8.78431373,19.7254902 L13.8039216,19.7254902 Z" id="Path"></path>
                        <path d="M13.8039216,27.254902 C14.5066667,27.254902 15.0588235,27.8070588 15.0588235,28.5098039 C15.0588235,29.212549 14.5066667,29.7647059 13.8039216,29.7647059 L8.78431373,29.7647059 C8.08156863,29.7647059 7.52941176,29.212549 7.52941176,28.5098039 C7.52941176,27.8070588 8.08156863,27.254902 8.78431373,27.254902 L13.8039216,27.254902 Z" id="Path"></path>
                        <path d="M22.5882353,46.0784314 C22.5882353,45.3756863 22.0109804,44.8235294 21.3333333,44.8235294 L13.8039216,44.8235294 C13.1011765,44.8235294 12.5490196,45.3756863 12.5490196,46.0784314 L12.5490196,57.372549 L10.0392157,57.372549 L10.0392157,46.0784314 C10.0392157,43.9952941 11.7207843,42.3137255 13.8039216,42.3137255 L21.3333333,42.3137255 C23.4164706,42.3137255 25.0980392,43.9952941 25.0980392,46.0784314 L25.0980392,57.372549 L22.5882353,57.372549 L22.5882353,46.0784314 Z" id="Path"></path>
                        <path d="M12.5490196,57.372549 L22.5882353,57.372549 L25.0980392,57.372549 L25.0980392,58.627451 C25.0980392,59.3301961 24.5458824,59.8823529 23.8431373,59.8823529 L11.2941176,59.8823529 C10.5913725,59.8823529 10.0392157,59.3301961 10.0392157,58.627451 L10.0392157,57.372549 L12.5490196,57.372549 Z" id="Path"></path>
                        <path d="M4.39215686,0.149019608 L31.974902,4.34039216 C33.8070588,4.64156863 35.1372549,6.19764706 35.1372549,8.05490196 L35.1372549,22.4611765 L34.1333333,22.2603922 C33.7568627,22.185098 33.3803922,22.2854902 33.0792157,22.5113725 C32.8031373,22.7623529 32.627451,23.1137255 32.627451,23.4901961 L32.627451,8.05490196 C32.627451,7.42745098 32.1756863,6.90039216 31.5733333,6.8 L3.99058824,2.63372549 C3.91529412,2.60862745 3.84,2.60862745 3.76470588,2.60862745 C3.46352941,2.60862745 3.18745098,2.70901961 2.96156863,2.90980392 C2.66039216,3.16078431 2.50980392,3.48705882 2.50980392,3.86352941 L2.50980392,56.1176471 C2.50980392,56.8203922 3.08705882,57.372549 3.76470588,57.372549 L10.0392157,57.372549 L10.0392157,58.627451 C10.0392157,59.3301961 10.5913725,59.8823529 11.2941176,59.8823529 L3.76470588,59.8823529 C1.68156863,59.8823529 0,58.2007843 0,56.1176471 L0,3.86352941 C0,2.75921569 0.476862745,1.70509804 1.33019608,1.00235294 C2.18352941,0.274509804 3.28784314,-0.0266666667 4.39215686,0.149019608 Z" id="Path"></path>
                    </g>
                </g>
            </g>
        </g>
    </g>
</svg>