<?xml version="1.0" encoding="UTF-8"?>
<svg width="231px" height="158px" viewBox="0 0 231 158" version="1.1" xmlns="http://www.w3.org/2000/svg" xmlns:xlink="http://www.w3.org/1999/xlink">
    <!-- Generator: Sketch 52.6 (67491) - http://www.bohemiancoding.com/sketch -->
    <title>ethereum</title>
    <desc>Created with Sketch.</desc>
    <g id="Page-1" stroke="none" stroke-width="1" fill="none" fill-rule="evenodd">
        <g id="05-Profile-02-Payment-Methods" transform="translate(-86.000000, -738.000000)" fill-rule="nonzero">
            <g id="ethereum" transform="translate(86.000000, 738.000000)">
                <path d="M20.8020065,146.684113 C20.8020065,147.191998 20.3768009,147.605392 19.8689165,147.605392 L1.89216955,147.605392 C2.34099766,152.046428 5.68358595,156.097692 10.3844698,156.097692 C13.5971342,156.097692 15.98301,154.869321 17.7783224,152.306276 C18.0381702,151.951938 18.427942,151.727524 18.9240152,151.940127 C19.1956743,152.058239 19.3846546,152.306276 19.4318996,152.589746 C19.4791447,152.885028 19.3964658,153.050386 19.313787,153.215743 C17.5066633,156.369351 13.9042271,157.916627 10.3726586,157.916627 C4.32529035,157.916627 0.0141782438,152.507067 0.0141782438,146.719547 C0.0141782438,140.932027 4.32529035,135.522467 10.3726586,135.522467 C16.4200268,135.510655 20.7901952,140.908404 20.8020065,146.684113 M18.8767701,145.810079 C18.4869984,141.369043 15.0853537,137.317779 10.3844698,137.317779 C5.68358595,137.317779 2.34099766,141.369043 1.89216955,145.810079 L18.8767701,145.810079 Z M42.6174149,135.959484 C43.1371106,135.959484 43.5150711,136.408312 43.5150711,136.85714 C43.5150711,137.376836 43.1252994,137.754796 42.6174149,137.754796 L37.7984184,137.754796 L37.7984184,156.664633 C37.7984184,157.113461 37.4086466,157.562289 36.9007621,157.562289 C36.3810664,157.562289 36.0031059,157.113461 36.0031059,156.664633 L36.0031059,137.754796 L31.3730896,137.754796 C30.8533939,137.754796 30.4754334,137.365024 30.4754334,136.85714 C30.4754334,136.408312 30.8652052,135.959484 31.3730896,135.959484 L36.0031059,135.959484 L36.0031059,129.038082 C36.0031059,128.601065 36.2983876,128.199482 36.7235931,128.128614 C37.3259677,128.034124 37.7984184,128.447518 37.7984184,129.014459 L37.7984184,135.959484 L42.6174149,135.959484 Z M72.0156561,145.101404 L72.0156561,156.558332 C72.0156561,157.078027 71.566828,157.455988 71.1179999,157.455988 C70.5983042,157.455988 70.2203437,157.066216 70.2203437,156.558332 L70.2203437,145.101404 C70.2203437,141.23912 68.0352595,137.376836 63.7241474,137.376836 C58.1964748,137.376836 55.8105991,142.207643 56.1295033,147.156564 C56.1295033,147.286488 56.1885596,147.86524 56.1885596,147.924296 L56.1885596,156.522898 C56.1885596,156.959915 55.893278,157.361498 55.4680724,157.432365 C54.8656978,157.526855 54.3932472,157.113461 54.3932472,156.54652 L54.3932472,118.915827 C54.3932472,118.466999 54.783019,118.01817 55.2909034,118.01817 C55.8105991,118.01817 56.1885596,118.466999 56.1885596,118.915827 L56.1885596,140.211539 C57.7358355,137.447703 60.4996717,135.581523 63.7123361,135.581523 C68.991972,135.581523 72.0156561,140.211539 72.0156561,145.101404 M104.248601,146.684113 C104.248601,147.191998 103.823396,147.605392 103.315511,147.605392 L85.326953,147.605392 C85.7757811,152.046428 89.1183694,156.097692 93.8192533,156.097692 C97.0319176,156.097692 99.4177934,154.869321 101.213106,152.306276 C101.472954,151.951938 101.862725,151.727524 102.358799,151.940127 C102.630458,152.058239 102.819438,152.306276 102.866683,152.589746 C102.913928,152.885028 102.831249,153.050386 102.74857,153.215743 C100.941447,156.369351 97.3390106,157.916627 93.807442,157.916627 C87.7600738,157.916627 83.4489617,152.507067 83.4489617,146.719547 C83.4489617,140.932027 87.7600738,135.522467 93.807442,135.522467 C99.8666215,135.510655 104.23679,140.908404 104.248601,146.684113 M102.311554,145.810079 C101.921782,141.369043 98.5201372,137.317779 93.8192533,137.317779 C89.1183694,137.317779 85.7757811,141.369043 85.326953,145.810079 L102.311554,145.810079 Z M126.312046,136.798083 C126.312046,137.376836 125.993142,137.69574 125.473446,137.766607 C120.19381,138.53434 117.819746,142.845452 117.819746,147.86524 L117.819746,156.463841 C117.819746,156.900858 117.524464,157.302441 117.099259,157.373309 C116.496884,157.467799 116.024433,157.054405 116.024433,156.487464 L116.024433,136.892574 C116.024433,136.455557 116.319715,136.053974 116.744921,135.983106 C117.347295,135.888616 117.819746,136.30201 117.819746,136.868951 L117.819746,140.861159 C119.296154,138.357171 122.260782,135.971295 125.343522,135.971295 C125.79235,135.959484 126.312046,136.290199 126.312046,136.798083 M155.840211,146.684113 C155.840211,147.191998 155.415006,147.605392 154.907121,147.605392 L136.930374,147.605392 C137.379202,152.046428 140.721791,156.097692 145.422675,156.097692 C148.635339,156.097692 151.021215,154.869321 152.816527,152.306276 C153.076375,151.951938 153.466147,151.727524 153.96222,151.940127 C154.233879,152.058239 154.422859,152.306276 154.470104,152.589746 C154.51735,152.885028 154.434671,153.050386 154.351992,153.215743 C152.544868,156.369351 148.942432,157.916627 145.410863,157.916627 C139.363495,157.916627 135.052383,152.507067 135.052383,146.719547 C135.052383,140.932027 139.363495,135.522467 145.410863,135.522467 C151.458232,135.510655 155.8284,140.908404 155.840211,146.684113 M153.914975,145.810079 C153.525203,141.369043 150.123559,137.317779 145.422675,137.317779 C140.721791,137.317779 137.379202,141.369043 136.930374,145.810079 L153.914975,145.810079 Z M184.860492,137.022498 L184.860492,156.664633 C184.860492,157.184329 184.411664,157.562289 183.962836,157.562289 C183.44314,157.562289 183.06518,157.172517 183.06518,156.664633 L183.06518,152.932273 C181.588771,155.896901 178.943048,158.011117 175.600459,158.011117 C170.261767,158.011117 167.297139,153.381101 167.297139,148.491237 L167.297139,136.975252 C167.297139,136.526424 167.686911,136.077596 168.194796,136.077596 C168.714491,136.077596 169.092452,136.526424 169.092452,136.975252 L169.092452,148.491237 C169.092452,152.353521 171.277536,156.215805 175.588648,156.215805 C181.636016,156.215805 183.053368,150.558208 183.053368,144.310049 L183.053368,136.975252 C183.053368,136.455557 183.573064,135.92405 184.210872,136.11303 C184.600644,136.242954 184.860492,136.620914 184.860492,137.022498 M230.333866,145.030536 L230.333866,156.54652 C230.333866,157.066216 229.885038,157.444177 229.43621,157.444177 C228.916514,157.444177 228.538554,157.054405 228.538554,156.54652 L228.538554,145.030536 C228.538554,141.168252 226.35347,137.376836 222.042358,137.376836 C216.632798,137.376836 214.577637,143.164356 214.577637,147.664448 L214.577637,156.54652 C214.577637,157.066216 214.128809,157.444177 213.679981,157.444177 C213.160286,157.444177 212.782325,157.054405 212.782325,156.54652 L212.782325,145.030536 C212.782325,141.168252 210.597241,137.376836 206.286129,137.376836 C200.817512,137.376836 198.561561,141.687948 198.762352,147.416412 C198.762352,147.546336 198.821409,147.806183 198.762352,147.86524 L198.762352,156.522898 C198.762352,156.959915 198.467071,157.361498 198.030054,157.432365 C197.427679,157.526855 196.955228,157.113461 196.955228,156.54652 L196.955228,136.892574 C196.955228,136.455557 197.25051,136.053974 197.675716,135.983106 C198.27809,135.888616 198.750541,136.30201 198.750541,136.868951 L198.750541,140.152483 C200.297817,137.388647 203.061653,135.581523 206.274317,135.581523 C209.93581,135.581523 212.770514,137.896531 213.928018,141.309987 C215.404426,137.967399 218.298186,135.581523 222.030546,135.581523 C227.310182,135.581523 230.333866,140.140672 230.333866,145.030536" id="Shape" fill="#3C3C3B"></path>
                <g id="Group" opacity="0.6" transform="translate(85.067105, 36.142474)" fill="#010101">
                    <polygon id="Path" points="30.1187284 0.0472450642 0.0708675963 13.7128799 30.1187284 31.4652128 60.154778 13.7128799"></polygon>
                </g>
                <g id="Group" opacity="0.45" transform="translate(85.067105, 0.000000)" fill="#010101">
                    <polygon id="Path" points="0.0708675963 49.855354 30.1187284 67.6076869 30.1187284 0"></polygon>
                </g>
                <g id="Group" opacity="0.8" transform="translate(115.185834, 0.000000)" fill="#010101">
                    <polygon id="Path" points="0 0 0 67.6076869 30.0360496 49.855354"></polygon>
                </g>
                <g id="Group" opacity="0.45" transform="translate(85.067105, 55.512950)" fill="#010101">
                    <polygon id="Path" points="0.0708675963 0.0354337982 30.1187284 42.3670113 30.1187284 17.7877667"></polygon>
                </g>
                <g id="Group" opacity="0.8" transform="translate(115.185834, 55.512950)" fill="#010101">
                    <polygon id="Path" points="0 17.7877667 0 42.3670113 30.0596721 0.0354337982"></polygon>
                </g>
            </g>
        </g>
    </g>
</svg>