<?xml version="1.0" encoding="UTF-8"?>
<svg width="12px" height="12px" viewBox="0 0 12 12" version="1.1" xmlns="http://www.w3.org/2000/svg" xmlns:xlink="http://www.w3.org/1999/xlink">
    <!-- Generator: Sketch 52.6 (67491) - http://www.bohemiancoding.com/sketch -->
    <title>feedback</title>
    <desc>Created with Sketch.</desc>
    <g id="Page-1" stroke="none" stroke-width="1" fill="none" fill-rule="evenodd">
        <g id="07-Agreement-05-execute" transform="translate(-340.000000, -290.000000)" fill-rule="nonzero">
            <g id="Group-13" transform="translate(44.000000, 164.000000)">
                <g id="Group-8" transform="translate(288.000000, 120.000000)">
                    <g id="feedback" transform="translate(8.000000, 6.000000)">
                        <rect id="Rectangle" fill="#000000" opacity="0" x="0" y="0" width="11.6307692" height="11.6307692"></rect>
                        <path d="M2.7812709,0.202274251 L2.7812709,3.76735786 L0,3.76735786 L0,9.35518395 C0,10.3665552 0.73324415,11.2009365 1.66876254,11.3779264 C1.7193311,11.4032107 1.79518395,11.428495 1.84575251,11.428495 C1.87103679,11.428495 1.92160535,11.428495 1.94688964,11.428495 C1.97217392,11.428495 2.02274248,11.428495 2.04802676,11.428495 L4.90515051,11.428495 L5.15799332,11.428495 L9.5574582,11.428495 C10.6952508,11.428495 11.6054849,10.5182609 11.6054849,9.38046824 L11.6054849,0.202274251 L2.7812709,0.202274251 Z M0.960802672,9.38046823 L0.960802672,4.72816054 L2.7812709,4.72816054 L2.7812709,9.38046823 C2.7812709,9.91143813 2.52842809,10.4171237 1.97217391,10.4676923 C1.39063546,10.4171237 0.960802672,9.93672241 0.960802672,9.38046823 Z M10.6699666,9.38046823 C10.6699666,9.98729097 10.1642809,10.4929766 9.5574582,10.4929766 L5.15799331,10.4929766 L4.9051505,10.4929766 L3.43866221,10.4929766 C3.61565218,10.1895652 3.7167893,9.810301 3.7167893,9.38046823 L3.7167893,1.16307692 L10.6699666,1.16307692 L10.6699666,9.38046823 Z M5.15799331,9.1529097 L9.35518395,9.1529097 C9.60802676,9.1529097 9.83558528,8.95063544 9.83558528,8.67250836 C9.83558528,8.41966555 9.63331103,8.19210702 9.35518395,8.19210702 L5.15799331,8.19210702 C4.9051505,8.19210702 4.67759197,8.39438128 4.67759197,8.67250836 C4.67759197,8.92535117 4.90515051,9.1529097 5.15799331,9.1529097 Z M5.15799331,7.15545151 L9.35518395,7.15545151 C9.60802676,7.15545151 9.83558528,6.95317726 9.83558528,6.67505017 C9.83558528,6.42220736 9.63331103,6.19464884 9.35518395,6.19464884 L5.15799331,6.19464883 C4.9051505,6.19464883 4.67759197,6.39692308 4.67759197,6.67505016 C4.67759197,6.92789298 4.90515051,7.15545151 5.15799331,7.15545151 Z M5.15799331,5.13270903 L9.35518395,5.13270903 C9.60802676,5.13270903 9.83558528,4.93043478 9.83558528,4.65230769 C9.83558528,4.39946488 9.63331103,4.17190636 9.35518395,4.17190636 L5.15799331,4.17190636 C4.9051505,4.17190636 4.67759197,4.37418061 4.67759197,4.65230769 C4.67759197,4.93043479 4.90515051,5.13270903 5.15799331,5.13270903 Z M5.15799331,3.13525084 L9.35518395,3.13525084 C9.60802676,3.13525084 9.83558528,2.93297659 9.83558528,2.6548495 C9.83558528,2.37672242 9.63331103,2.19973244 9.35518395,2.19973244 L5.15799331,2.19973244 C4.9051505,2.19973244 4.67759197,2.40200669 4.67759197,2.68013377 C4.67759197,2.95826086 4.90515051,3.13525084 5.15799331,3.13525084 Z" id="Shape" fill="#ffffff"></path>
                    </g>
                </g>
            </g>
        </g>
    </g>
</svg>