<?xml version="1.0" encoding="UTF-8"?>
<svg width="12px" height="12px" viewBox="0 0 12 12" version="1.1" xmlns="http://www.w3.org/2000/svg" xmlns:xlink="http://www.w3.org/1999/xlink">
    <!-- Generator: Sketch 52.6 (67491) - http://www.bohemiancoding.com/sketch -->
    <title>flag</title>
    <desc>Created with Sketch.</desc>
    <g id="Page-1" stroke="none" stroke-width="1" fill="none" fill-rule="evenodd">
        <g id="07-Agreement-05-execute" transform="translate(-604.000000, -210.000000)" fill="#2E5BFF" fill-rule="nonzero">
            <g id="Group-13" transform="translate(44.000000, 164.000000)">
                <g id="Group-8" transform="translate(552.000000, 40.000000)">
                    <g id="flag" transform="translate(8.000000, 6.000000)">
                        <path d="M11.0153571,3.04493304 L7.46678571,3.04493304 L7.46678571,1.47857143 C7.46678571,1.23322098 7.26856473,1.035 7.02321429,1.035 L1.36767857,1.035 L1.36767857,0.480535714 C1.36767857,0.419544643 1.31777679,0.369642857 1.25678571,0.369642857 L0.480535714,0.369642857 C0.419544643,0.369642857 0.369642857,0.419544643 0.369642857,0.480535714 L0.369642857,11.3480357 C0.369642857,11.4090268 0.419544643,11.4589286 0.480535714,11.4589286 L1.25678571,11.4589286 C1.31777679,11.4589286 1.36767857,11.4090268 1.36767857,11.3480357 L1.36767857,7.68857143 L4.80535714,7.68857143 L4.80535714,9.25493304 C4.80535714,9.50028348 5.00357813,9.69850446 5.24892857,9.69850446 L11.0153571,9.69850446 C11.2607076,9.69850446 11.4589286,9.50028348 11.4589286,9.25493304 L11.4589286,3.48850446 C11.4589286,3.24315402 11.2607076,3.04493304 11.0153571,3.04493304 Z M1.36767857,6.69053571 L1.36767857,2.03303571 L6.46875,2.03303571 L6.46875,6.69053571 L1.36767857,6.69053571 Z M10.4608929,8.70046875 L5.80339286,8.70046875 L5.80339286,7.68857143 L7.35589286,7.68857143 C7.41688393,7.68857143 7.46678571,7.63866964 7.46678571,7.57767857 L7.46678571,4.04296875 L10.4608929,4.04296875 L10.4608929,8.70046875 Z" id="Shape"></path>
                    </g>
                </g>
            </g>
        </g>
    </g>
</svg>