<?xml version="1.0" encoding="UTF-8"?>
<svg width="26px" height="26px" viewBox="0 0 26 26" version="1.1" xmlns="http://www.w3.org/2000/svg" xmlns:xlink="http://www.w3.org/1999/xlink">
    <!-- Generator: Sketch 52.6 (67491) - http://www.bohemiancoding.com/sketch -->
    <title>google-icon</title>
    <desc>Created with Sketch.</desc>
    <g id="Page-1" stroke="none" stroke-width="1" fill="none" fill-rule="evenodd">
        <g id="Dashboard" transform="translate(-65.000000, -230.000000)" fill-rule="nonzero">
            <g id="Group-7" transform="translate(37.000000, 210.000000)">
                <g id="Group-2" transform="translate(23.000000, 15.000000)">
                    <g id="Group-11">
                        <g id="google-icon" transform="translate(5.000000, 5.000000)">
                            <path d="M25.3950919,13.2445947 C25.3950919,12.1792788 25.3086479,11.401878 25.1215675,10.5956956 L12.9566795,10.5956956 L12.9566795,15.4040082 L20.0971944,15.4040082 C19.9532865,16.5989406 19.1758857,18.3984849 17.4482954,19.6077089 L17.4240791,19.7686873 L21.2703918,22.7483762 L21.5368696,22.7749744 C23.9841983,20.5147261 25.3950919,17.1891618 25.3950919,13.2445947" id="Path" fill="#4285F4"></path>
                            <path d="M12.9566795,25.9133591 C16.4549334,25.9133591 19.3917477,24.7615991 21.5368696,22.7749744 L17.4482954,19.6077089 C16.3541978,20.3707188 14.885741,20.9033768 12.9566795,20.9033768 C9.53037967,20.9033768 6.62234698,18.6432277 5.58571337,15.5192338 L5.43376641,15.5321359 L1.43431584,18.6273482 L1.38201273,18.7727449 C3.51264465,23.0052271 7.88913409,25.9133591 12.9566795,25.9133591" id="Path" fill="#34A853"></path>
                            <path d="M5.58571337,15.5192338 C5.31218898,14.7130515 5.15389022,13.8492067 5.15389022,12.9566795 C5.15389022,12.0640531 5.31218898,11.2003076 5.57132257,10.3941252 L5.56407755,10.2224281 L1.51450731,7.07749315 L1.38201273,7.14051492 C0.503876384,8.89688686 0,10.86922 0,12.9566795 C0,15.0441391 0.503876384,17.016373 1.38201273,18.7727449 L5.58571337,15.5192338" id="Path" fill="#FBBC05"></path>
                            <path d="M12.9566795,5.009883 C15.3896174,5.009883 17.0307638,6.06080816 17.9665625,6.93904376 L21.6232144,3.36873668 C19.3774561,1.28127716 16.4549334,0 12.9566795,0 C7.88913409,0 3.51264465,2.90803268 1.38201273,7.14051492 L5.57132258,10.3941252 C6.62234698,7.27013133 9.53037967,5.009883 12.9566795,5.009883" id="Path" fill="#EB4335"></path>
                        </g>
                    </g>
                </g>
            </g>
        </g>
    </g>
</svg>