<?xml version="1.0" encoding="UTF-8"?>
<svg width="22px" height="22px" viewBox="0 0 22 22" version="1.1" xmlns="http://www.w3.org/2000/svg" xmlns:xlink="http://www.w3.org/1999/xlink">
    <!-- Generator: Sketch 52.6 (67491) - http://www.bohemiancoding.com/sketch -->
    <title>question</title>
    <desc>Created with Sketch.</desc>
    <g id="Page-1" stroke="none" stroke-width="1" fill="none" fill-rule="evenodd">
        <g id="07-Agreement-01-final-state" transform="translate(-1396.000000, -104.000000)" fill-rule="nonzero">
            <g id="Group-3" transform="translate(1109.000000, 88.000000)">
                <g id="question" transform="translate(286.000000, 15.000000)">
                    <rect id="Rectangle" fill="#000000" opacity="0" x="0" y="0" width="24" height="24"></rect>
                    <path d="M12,1.3344 C17.8896,1.3344 22.6656,6.1104 22.6656,12 C22.6656,17.8896 17.8896,22.6656 12,22.6656 C6.1104,22.6656 1.3344,17.8896 1.3344,12 C1.3344,6.1104 6.1104,1.3344 12,1.3344 Z M11.904,15.2376 C11.5968,15.2376 11.3472,15.3264 11.1576,15.5304 C10.9368,15.72 10.8336,15.9696 10.8336,16.2768 C10.8336,16.5696 10.9368,16.8192 11.1576,17.0256 C11.3472,17.2296 11.5968,17.3328 11.904,17.3328 C12.1992,17.3328 12.4608,17.2296 12.6816,17.04 C12.8856,16.8336 12.9888,16.5864 12.9888,16.2768 C12.9888,15.9696 12.8856,15.72 12.6816,15.5304 C12.4776,15.3264 12.2136,15.2376 11.904,15.2376 Z M12.156,6.6672 C11.0856,6.6672 10.236,6.9744 9.6216,7.6056 C8.9904,8.2224 8.6832,9.0552 8.6832,10.128 L8.6832,10.152 C8.6832,10.5816 9.0288,10.9296 9.4608,10.9296 C9.8904,10.9296 10.2384,10.5816 10.2384,10.152 C10.2384,10.1424 10.236,10.128 10.236,10.128 C10.236,9.4824 10.3656,8.9712 10.6296,8.6184 C10.9224,8.208 11.4048,8.0016 12.0672,8.0016 C12.5928,8.0016 13.0056,8.148 13.296,8.4408 C13.5744,8.7336 13.7232,9.1296 13.7232,9.6432 C13.7232,10.0248 13.5888,10.3752 13.3248,10.7136 L13.0752,10.992 C12.168,11.7984 11.628,12.408 11.4048,12.8088 C11.0736,13.4064 11.1336,13.9608 11.1336,13.9608 C11.1336,14.3904 11.484,14.7384 11.9112,14.7384 C12.3408,14.7384 12.6264,14.4432 12.6888,13.9608 C12.6888,13.9608 12.768,13.512 12.9312,13.2192 C13.0632,12.9576 13.2696,12.7056 13.5312,12.4728 C14.2368,11.8704 14.6448,11.4912 14.7768,11.328 C15.1296,10.86 15.3192,10.2576 15.3192,9.5424 C15.3192,8.664 15.0264,7.9608 14.4576,7.4472 C13.8672,6.9168 13.1064,6.6672 12.156,6.6672 Z" id="Shape" fill="#8798AD"></path>
                </g>
            </g>
        </g>
    </g>
</svg>