<?xml version="1.0" encoding="UTF-8"?>
<svg width="44px" height="12px" viewBox="0 0 44 12" version="1.1" xmlns="http://www.w3.org/2000/svg" xmlns:xlink="http://www.w3.org/1999/xlink">
    <!-- Generator: Sketch 52.6 (67491) - http://www.bohemiancoding.com/sketch -->
    <title>hsbc-logo-2018-</title>
    <desc>Created with Sketch.</desc>
    <g id="Page-1" stroke="none" stroke-width="1" fill="none" fill-rule="evenodd">
        <g id="05-Profile-03-Bank-Accounts" transform="translate(-226.000000, -526.000000)" fill-rule="nonzero">
            <g id="Group-4" transform="translate(200.000000, 502.000000)">
                <g id="hsbc-logo-2018-" transform="translate(26.000000, 24.000000)">
                    <polygon id="Path" fill="#FFFFFF" points="5.82564103 0 17.4495726 0 17.4495726 11.6239316 5.82564103 11.6239316"></polygon>
                    <g id="Group" fill="#DB0011">
                        <path d="M23.2615385,5.82564103 L17.4495726,0 L17.4495726,11.6376068 L23.2615385,5.82564103 Z M11.6376068,5.82564103 L17.4495726,0 L5.82564103,0 L11.6376068,5.82564103 Z" id="Shape"></path>
                        <path d="M0,5.82564103 L5.82564103,11.6376068 L5.82564103,0 L0,5.82564103 Z M11.6376068,5.82564103 L5.82564103,11.6376068 L17.4495726,11.6376068 L11.6376068,5.82564103 Z" id="Shape"></path>
                    </g>
                    <path d="M28.3623932,6.16752137 L26.2564103,6.16752137 L26.2564103,8.24615385 L25.2034188,8.24615385 L25.2034188,3.37777778 L26.2564103,3.37777778 L26.2564103,5.37435897 L28.3623932,5.37435897 L28.3623932,3.37777778 L29.4153846,3.37777778 L29.4153846,8.24615385 L28.3623932,8.24615385 L28.3623932,6.16752137 Z M31.9589744,8.34188034 C30.9059829,8.34188034 30.0444444,7.91794872 30.0307692,6.75555556 L31.0837607,6.75555556 C31.0974359,7.27521368 31.3982906,7.58974359 31.9726496,7.58974359 C32.3965812,7.58974359 32.8888889,7.37094017 32.8888889,6.89230769 C32.8888889,6.50940171 32.5606838,6.4 32.0136752,6.23589744 L31.6581197,6.14017094 C30.8923077,5.92136752 30.1264957,5.62051282 30.1264957,4.74529915 C30.1264957,3.66495726 31.1384615,3.2957265 32.0547009,3.2957265 C32.9982906,3.2957265 33.8188034,3.62393162 33.8324786,4.7042735 L32.7794872,4.7042735 C32.7384615,4.26666667 32.4786325,4.00683761 31.9863248,4.00683761 C31.5897436,4.00683761 31.2068376,4.21196581 31.2068376,4.64957265 C31.2068376,5.00512821 31.5350427,5.11452991 32.2188034,5.33333333 L32.6290598,5.45641026 C33.4632479,5.71623932 33.9965812,6.0034188 33.9965812,6.82393162 C33.982906,7.91794872 32.9162393,8.34188034 31.9589744,8.34188034 Z M34.5846154,3.39145299 L36.2803419,3.39145299 C36.5948718,3.37777778 36.9230769,3.39145299 37.2376068,3.44615385 C37.825641,3.58290598 38.2769231,3.96581197 38.2769231,4.62222222 C38.2769231,5.25128205 37.8803419,5.56581197 37.3059829,5.71623932 C37.9623932,5.83931624 38.4547009,6.16752137 38.4547009,6.89230769 C38.4547009,8 37.3606838,8.24615385 36.5128205,8.24615385 L34.5982906,8.24615385 L34.5846154,3.39145299 Z M36.2803419,5.41538462 C36.7452991,5.41538462 37.2239316,5.31965812 37.2239316,4.75897436 C37.2239316,4.25299145 36.7863248,4.11623932 36.3487179,4.11623932 L35.6102564,4.11623932 L35.6102564,5.41538462 L36.2803419,5.41538462 Z M36.3760684,7.52136752 C36.8683761,7.52136752 37.3470085,7.41196581 37.3470085,6.81025641 C37.3470085,6.20854701 36.9367521,6.0991453 36.4307692,6.0991453 L35.5965812,6.0991453 L35.5965812,7.52136752 L36.3760684,7.52136752 Z M41.1897436,8.34188034 C39.617094,8.34188034 38.9196581,7.34358974 38.9196581,5.85299145 C38.9196581,4.36239316 39.6991453,3.28205128 41.2444444,3.28205128 C42.2153846,3.28205128 43.1589744,3.71965812 43.1863248,4.81367521 L42.0923077,4.81367521 C42.0376068,4.32136752 41.7094017,4.07521368 41.2444444,4.07521368 C40.2871795,4.07521368 40,5.1008547 40,5.88034188 C40,6.65982906 40.2871795,7.56239316 41.2034188,7.56239316 C41.6820513,7.56239316 42.0376068,7.3025641 42.1059829,6.81025641 L43.2,6.81025641 C43.0905983,7.93162393 42.2017094,8.34188034 41.1897436,8.34188034 Z" id="Shape" fill="#000000"></path>
                </g>
            </g>
        </g>
    </g>
</svg>