<?xml version="1.0" encoding="UTF-8"?>
<svg width="119px" height="132px" viewBox="0 0 119 132" version="1.1" xmlns="http://www.w3.org/2000/svg" xmlns:xlink="http://www.w3.org/1999/xlink">
    <!-- Generator: Sketch 52.6 (67491) - http://www.bohemiancoding.com/sketch -->
    <title>interactive-solutions</title>
    <desc>Created with Sketch.</desc>
    <g id="Page-1" stroke="none" stroke-width="1" fill="none" fill-rule="evenodd">
        <g id="06-Dashboard-05-Switch-Instruction" transform="translate(-610.000000, -115.000000)" fill-rule="nonzero">
            <g id="interactive-solutions" transform="translate(610.000000, 115.000000)">
                <path d="M96.2177439,37.9778245 C96.2177439,17.5071885 79.6239194,0.907666187 59.1475856,0.907666187 C38.6769496,0.907666187 22.0831252,17.5066187 22.0831252,37.9778245 C22.0831252,48.5837871 26.5445353,58.1424863 33.6839309,64.9001266 C40.5031079,71.617882 44.7360345,80.9572144 44.7360345,91.2891108 L73.5648345,91.2891108 C73.5648345,81.0683223 77.7060259,71.818446 84.3947223,65.1120863 C91.6651683,58.3430504 96.2177439,48.6937554 96.2177439,37.9778245 Z" id="Path" fill="#B2C2F3"></path>
                <path d="M59.1475856,0.908235971 C58.3390619,0.908235971 57.5390849,0.94356259 56.7436662,0.994273381 C76.0975252,2.23469353 91.4087655,18.3157122 91.4087655,37.9783942 C91.4087655,48.6943252 86.8561899,58.3436201 79.5857439,65.1120863 C72.8970475,71.818446 68.7558561,81.0688921 68.7558561,91.2891108 L73.5648345,91.2891108 C73.5648345,81.0683223 77.7060259,71.818446 84.3947223,65.1120863 C91.6657381,58.3436201 96.2177439,48.6943252 96.2177439,37.9783942 C96.2177439,17.5071885 79.6239194,0.908235971 59.1475856,0.908235971 Z" id="Path" fill="#D6DEF7"></path>
                <path d="M26.8921036,37.9778245 C26.8921036,18.3157122 42.2033439,2.23412374 61.5526446,0.993703597 C60.7566561,0.942992806 59.9566791,0.907666187 59.1475856,0.907666187 C38.6769496,0.907666187 22.0831252,17.5066187 22.0831252,37.9778245 C22.0831252,48.5837871 26.5439655,58.1424863 33.6839309,64.9001266 C40.5031079,71.617882 44.7360345,80.9572144 44.7360345,91.2891108 L49.5450129,91.2891108 C49.5450129,80.9577842 45.3120863,71.617882 38.4929094,64.9001266 C31.3529439,58.1424863 26.8921036,48.5837871 26.8921036,37.9778245 Z" id="Path" fill="#86A0F1"></path>
                <path d="M49.5296288,113.608127 C49.5296288,118.969226 53.8730935,123.312121 59.2319137,123.312121 C64.5907338,123.312121 68.9359079,118.968656 68.9359079,113.608127 L49.5296288,113.608127 Z" id="Path" fill="#231F20"></path>
                <path d="M49.5296288,113.608127 C49.5296288,118.969226 53.8730935,123.312121 59.2319137,123.312121 C64.5907338,123.312121 68.9359079,118.968656 68.9359079,113.608127 L49.5296288,113.608127 Z" id="Path" fill="#8798AD"></path>
                <polygon id="Path" fill="#0034DA" points="43.9634072 98.5487309 74.3368921 98.5487309 74.3368921 106.078429 43.9634072 106.078429"></polygon>
                <path d="M61.6375424,123.011845 C60.8683338,123.211269 60.0649381,123.31383 59.2330532,123.31383 C53.8713842,123.31383 49.5296288,118.966377 49.5296288,113.610406 L54.3386072,113.610406 C54.3386072,118.134492 57.4382331,121.94065 61.6375424,123.011845 Z" id="Path" fill="#596370"></path>
                <polygon id="Path" fill="#0029AE" points="43.9634072 98.5510101 48.7723856 98.5510101 48.7723856 106.077859 43.9634072 106.077859"></polygon>
                <polygon id="Path" fill="#4C74F2" points="69.5279137 98.5510101 74.3368921 98.5510101 74.3368921 106.077859 69.5279137 106.077859"></polygon>
                <path d="M75.8502388,85.9604892 L61.3418245,73.4993094 C59.7219281,72.1078964 59.5367482,69.6675108 60.9281612,68.0476144 C62.3190043,66.427718 64.7599597,66.2425381 66.3798561,67.6339511 L69.550705,70.3575194 L67.8789583,66.594095 L59.8997007,48.6293698 C59.033059,46.677859 59.912236,44.3935942 61.863177,43.5269525 C63.8146878,42.6603108 66.0989525,43.5394878 66.9655942,45.4904288 L73.3010245,59.753836 C72.4343827,57.8023252 73.3135597,55.5180604 75.2645007,54.6514187 C77.2160115,53.784777 79.5002763,54.663954 80.366918,56.614895 L80.934423,57.8923511 C80.0677813,55.9414101 80.9469583,53.6565755 82.8978993,52.7899338 C84.8488403,51.9232921 87.1336748,52.8024691 88.0003165,54.7534101 L88.6208115,56.1505209 C87.7541698,54.1990101 88.6333468,51.9147453 90.5842878,51.0481036 C92.5352288,50.1814619 94.8200633,51.0606388 95.686705,53.0115799 L96.1425324,54.0383309 L103.665963,70.976305 L107.656731,79.9606619 L79.3925871,92.5147165 L76.8946532,86.8920863 L75.8502388,85.9604892 Z" id="Path" fill="#0034DA"></path>
                <path d="M107.656161,79.9646504 L103.656276,81.742377 L98.8586935,70.979154 L91.3375424,54.0394705 L90.8760173,53.013859 C90.6139165,52.4212835 90.2207655,51.9312691 89.7478446,51.5609094 C89.9985496,51.3557871 90.2777439,51.1848518 90.5854273,51.0481036 C92.5397871,50.1820317 94.8189237,51.0594993 95.6906935,53.013859 L96.1465209,54.0394705 L103.667672,70.979154 L107.656161,79.9646504 Z" id="Path" fill="#4C74F2"></path>
                <circle id="Oval" fill="#EA288B" cx="73.0138532" cy="12.1193094" r="2.31446331"></circle>
                <circle id="Oval" fill="#EA288B" cx="45.7018187" cy="63.4243856" r="2.31446331"></circle>
                <circle id="Oval" fill="#0034DA" cx="17.6667281" cy="63.5542964" r="4.30016115"></circle>
                <circle id="Oval" fill="#EA288B" cx="101.916725" cy="16.4194705" r="4.30016115"></circle>
                <g id="Group" fill="#231F20">
                    <path d="M33.0839482,65.5086561 C40.0467108,72.367718 43.8813583,81.5230101 43.8813583,91.2891108 C43.8813583,91.7614619 44.2636835,92.1437871 44.7360345,92.1437871 L73.5648345,92.1437871 C74.0371856,92.1437871 74.4195108,91.7614619 74.4195108,91.2891108 C74.4195108,89.5752 74.543154,87.8595799 74.7824633,86.1696 L75.2701986,86.5883914 L76.1881209,87.407741 L78.6108432,92.8628547 C78.7031482,93.0702561 78.8735137,93.2320748 79.0854734,93.313554 C79.184046,93.3517295 79.2883165,93.3705324 79.3925871,93.3705324 C79.5111022,93.3705324 79.6296173,93.3460317 79.7395856,93.2970302 L108.003729,80.7429755 C108.211131,80.6506705 108.37295,80.480305 108.454429,80.2683453 C108.535908,80.0569554 108.52964,79.8216345 108.437905,79.6148029 L96.4678791,52.6662906 C96.1151827,51.8731511 95.5613525,51.2110619 94.868495,50.725036 C96.3277122,46.6413928 97.0724201,42.3554763 97.0724201,37.9778245 C97.0724201,17.0661755 80.0598043,0.0529899281 59.1475856,0.0529899281 C38.2387856,0.0529899281 21.2284489,17.0656058 21.2284489,37.9778245 C21.2284489,48.4960403 25.4431424,58.2775252 33.0839482,65.5086561 Z M106.527988,79.5276259 L79.8267626,91.3876835 L77.6758273,86.5450878 C77.6262561,86.4339799 77.5544633,86.3348374 77.4632978,86.2544978 L76.3955223,85.3023885 L61.8985036,72.850895 C60.6392806,71.7688748 60.4945554,69.8640863 61.5765755,68.6042935 C62.1002072,67.9940547 62.8306705,67.6248345 63.6329266,67.5638676 C63.7109871,67.5581698 63.7879079,67.5547511 63.8653986,67.5547511 C64.5838964,67.5547511 65.2716259,67.8088748 65.8226072,68.2817957 L68.9934561,71.005364 C69.2965813,71.2663252 69.7398734,71.2811396 70.0606619,71.0429698 C70.3808806,70.8042302 70.4936978,70.3757525 70.3313094,70.0105209 L60.680305,48.2823712 C60.0062504,46.765036 60.6922705,44.9821813 62.2096058,44.3081266 C63.7286504,43.6335022 65.5097957,44.3200921 66.1838504,45.8374273 L72.5170014,60.0957065 C72.5175712,60.096846 72.518141,60.0985554 72.5187108,60.1002647 C72.7101583,60.5310216 73.2144173,60.7258878 73.6468835,60.5344403 C74.0782101,60.3429928 74.2725065,59.8375942 74.081059,59.4062676 C73.4070043,57.8889324 74.0930245,56.1060777 75.6103597,55.432023 C77.1282647,54.7585381 78.9105496,55.4439885 79.5846043,56.9613237 L80.1521094,58.2387799 C80.3435568,58.6695367 80.8483856,58.8649727 81.280282,58.6729554 C81.7116086,58.4815079 81.905905,57.9761094 81.7144576,57.5447827 C81.0404029,56.0274475 81.726423,54.2445928 83.2437583,53.5705381 C84.7622331,52.8959137 86.544518,53.5825036 87.2180029,55.0998388 L87.8384978,56.4969496 C88.0293755,56.9277065 88.5342043,57.1225727 88.9666705,56.9311252 C89.3979971,56.7396777 89.5922935,56.2342791 89.400846,55.8029525 L89.3985669,55.7983942 C89.0743597,55.0645122 89.0544173,54.2480115 89.3421583,53.4993151 C89.6310388,52.7489094 90.1951252,52.155764 90.9301468,51.8292777 C91.6663079,51.5027914 92.4839482,51.4822791 93.2337842,51.7705899 C93.9841899,52.0594705 94.5773353,52.6235568 94.9043914,53.3585784 L106.527988,79.5276259 Z M67.7461986,45.1434302 C67.1393784,43.7776576 65.9582158,42.8443511 64.6129554,42.4945036 C65.685859,41.2529439 66.3394014,39.6398849 66.3394014,37.8741237 C66.3394014,33.968823 63.1622849,30.7922763 59.257554,30.7922763 C55.352823,30.7922763 52.1757065,33.9693928 52.1757065,37.8741237 C52.1757065,41.7623309 55.3260432,44.9263424 59.2079827,44.9536921 C59.1418878,45.0870216 59.0809209,45.2237698 59.0267914,45.3639367 C58.5738129,46.540541 58.6062906,47.8231252 59.1179568,48.9757986 L61.5646101,54.4839022 C60.8028086,54.5893122 60.0301813,54.6428719 59.257554,54.6428719 C50.0110964,54.6428719 42.4888058,47.1205813 42.4888058,37.8746935 C42.4888058,28.628236 50.0110964,21.1059453 59.257554,21.1059453 C68.5040115,21.1059453 76.0263022,28.628236 76.0263022,37.8746935 C76.0263022,42.7833842 73.8924604,47.3917986 70.1660719,50.5911367 L67.7461986,45.1434302 Z M59.257554,43.2466187 C56.295246,43.2466187 53.885059,40.8364317 53.885059,37.8741237 C53.885059,34.9118158 56.295246,32.5016288 59.257554,32.5016288 C62.2198619,32.5016288 64.6300489,34.9118158 64.6300489,37.8741237 C64.6300489,40.8364317 62.2198619,43.2466187 59.257554,43.2466187 Z M59.1475856,1.76291223 C79.1168115,1.76291223 95.3630676,18.0091683 95.3630676,37.9783942 C95.3630676,42.1087597 94.6673612,46.152518 93.3072863,50.0082475 C92.2862331,49.7489957 91.2156086,49.8344633 90.2372892,50.2680691 C89.0851856,50.7797353 88.2008806,51.7101928 87.7479022,52.8867971 C87.7439137,52.897623 87.7399252,52.9078791 87.7359367,52.9181353 C87.1564662,52.3631655 86.4430964,51.9808403 85.6790158,51.7762878 C87.9313727,47.5086043 89.1313381,42.7218475 89.1313381,37.8746935 C89.1313381,27.9245525 84.2323338,18.7515971 76.002941,13.1637237 C76.1174676,12.8360978 76.1829928,12.4862504 76.1829928,12.1198791 C76.1829928,10.3723511 74.7613813,8.95073957 73.0138532,8.95073957 C71.2663252,8.95073957 69.8447137,10.3723511 69.8447137,12.1198791 C69.8447137,13.8674072 71.2663252,15.2890187 73.0138532,15.2890187 C73.7779338,15.2890187 74.4793381,15.0172317 75.0274705,14.5653928 C82.7964777,19.8336173 87.4225554,28.4874993 87.4225554,37.8741237 C87.4225554,42.6705669 86.1895424,47.4100317 83.8574158,51.5791424 C83.8443108,51.6030734 83.8363338,51.6281439 83.8255079,51.6526446 C83.3958906,51.7113324 82.9674129,51.8241496 82.5514705,52.0087597 C81.3993669,52.5204259 80.5150619,53.4508835 80.0620835,54.6274878 C80.0512576,54.6554072 80.0410014,54.6833266 80.0307453,54.7106763 C78.6871942,53.4776633 76.6872518,53.0839424 74.9175022,53.8696748 C73.872518,54.3340489 73.0788086,55.1334561 72.6070273,56.0861353 L70.8874187,52.2150216 C70.905082,52.2030561 70.9233151,52.1939396 70.9404086,52.179695 C75.2588029,48.6470331 77.7356547,43.4329381 77.7356547,37.8741237 C77.7356547,27.6852432 69.4464345,19.396023 59.257554,19.396023 C49.0686734,19.396023 40.7794532,27.6858129 40.7794532,37.8746935 C40.7794532,48.0630043 49.0686734,56.3522245 59.257554,56.3522245 C60.2723396,56.3522245 61.2871252,56.2644777 62.2819683,56.1003799 L67.2288345,67.2373813 L66.9359655,66.9861065 C65.9792978,66.1644777 64.7593899,65.7639194 63.5030158,65.8602129 C62.2455022,65.9553669 61.1008058,66.5348374 60.279177,67.491505 C59.4575482,68.4481727 59.0575597,69.666941 59.1527137,70.9244547 C59.2478676,72.1819683 59.8279079,73.3266647 60.7840058,74.1482935 L73.2594302,84.8630849 C72.9460489,86.6960806 72.7608691,88.5638331 72.718705,90.4355741 L45.5804547,90.4355741 C45.3633669,80.5298763 41.3703194,71.2748719 34.2708086,64.2807712 C26.9621871,57.3635914 22.9372317,48.0231194 22.9372317,37.9795338 C22.9378014,18.0085986 39.1812086,1.76291223 59.1475856,1.76291223 Z M73.0138532,13.5796662 C72.2087482,13.5796662 71.5540662,12.9249842 71.5540662,12.1198791 C71.5540662,11.3147741 72.2087482,10.6600921 73.0138532,10.6600921 C73.8189583,10.6600921 74.4736403,11.3147741 74.4736403,12.1198791 C74.4736403,12.9249842 73.8189583,13.5796662 73.0138532,13.5796662 Z" id="Shape"></path>
                    <path d="M43.9634072,97.6940547 C43.4910561,97.6940547 43.1087309,98.0763799 43.1087309,98.5487309 L43.1087309,106.078429 C43.1087309,106.55078 43.4910561,106.933105 43.9634072,106.933105 L74.3368921,106.933105 C74.8092432,106.933105 75.1915683,106.55078 75.1915683,106.078429 L75.1915683,98.5487309 C75.1915683,98.0763799 74.8092432,97.6940547 74.3368921,97.6940547 L43.9634072,97.6940547 Z M73.4822158,105.223753 L44.8180835,105.223753 L44.8180835,99.4034072 L73.4822158,99.4034072 L73.4822158,105.223753 Z" id="Shape"></path>
                    <path d="M11.4389871,124.166797 L107.652173,124.166797 C108.124524,124.166797 108.506849,123.784472 108.506849,123.312121 C108.506849,122.83977 108.124524,122.457445 107.652173,122.457445 L64.9724892,122.457445 C67.8681324,120.572599 69.7900144,117.312863 69.7900144,113.608127 C69.7900144,113.135776 69.4076892,112.75345 68.9353381,112.75345 L49.529059,112.75345 C49.0567079,112.75345 48.6743827,113.135776 48.6743827,113.608127 C48.6743827,117.313433 50.5962647,120.572599 53.4913381,122.457445 L11.4389871,122.457445 C10.966636,122.457445 10.5843108,122.83977 10.5843108,123.312121 C10.5843108,123.784472 10.9672058,124.166797 11.4389871,124.166797 Z M50.4253295,114.462803 L68.0402072,114.462803 C67.6088806,118.943016 63.8232345,122.457445 59.2319137,122.457445 C54.6417324,122.457445 50.8566561,118.942446 50.4253295,114.462803 Z" id="Shape"></path>
                    <path d="M6.70522014,123.312121 C6.70522014,122.83977 6.32289496,122.457445 5.85054388,122.457445 L1.09626475,122.457445 C0.623913669,122.457445 0.241588489,122.83977 0.241588489,123.312121 C0.241588489,123.784472 0.623913669,124.166797 1.09626475,124.166797 L5.85054388,124.166797 C6.32232518,124.166797 6.70522014,123.784472 6.70522014,123.312121 Z" id="Path"></path>
                    <path d="M117.418843,122.457445 L112.663424,122.457445 C112.191073,122.457445 111.808748,122.83977 111.808748,123.312121 C111.808748,123.784472 112.191073,124.166797 112.663424,124.166797 L117.418843,124.166797 C117.891194,124.166797 118.273519,123.784472 118.273519,123.312121 C118.273519,122.83977 117.891194,122.457445 117.418843,122.457445 Z" id="Path"></path>
                    <path d="M101.916725,129.402544 L17.1750043,129.402544 C16.7026532,129.402544 16.3203281,129.784869 16.3203281,130.25722 C16.3203281,130.729571 16.7026532,131.111896 17.1750043,131.111896 L101.917295,131.111896 C102.389646,131.111896 102.771971,130.729571 102.771971,130.25722 C102.771971,129.784869 102.389076,129.402544 101.916725,129.402544 Z" id="Path"></path>
                    <path d="M12.0412489,129.402544 L7.28696978,129.402544 C6.81461871,129.402544 6.43229353,129.784869 6.43229353,130.25722 C6.43229353,130.729571 6.81461871,131.111896 7.28696978,131.111896 L12.0412489,131.111896 C12.5136,131.111896 12.8959252,130.729571 12.8959252,130.25722 C12.8959252,129.784869 12.5130302,129.402544 12.0412489,129.402544 Z" id="Path"></path>
                    <path d="M111.921565,129.402544 L107.166147,129.402544 C106.693796,129.402544 106.311471,129.784869 106.311471,130.25722 C106.311471,130.729571 106.693796,131.111896 107.166147,131.111896 L111.921565,131.111896 C112.393917,131.111896 112.776242,130.729571 112.776242,130.25722 C112.776242,129.784869 112.393347,129.402544 111.921565,129.402544 Z" id="Path"></path>
                    <path d="M42.6284029,62.6642935 C42.5680058,62.9081612 42.5326791,63.1617151 42.5326791,63.4243856 C42.5326791,65.1719137 43.9542906,66.5935252 45.7018187,66.5935252 C47.4493468,66.5935252 48.8709583,65.1719137 48.8709583,63.4243856 C48.8709583,61.6768576 47.4493468,60.255246 45.7018187,60.255246 C44.8340374,60.255246 44.0471655,60.6062331 43.4739626,61.1731683 C35.7123626,55.9043741 31.0931223,47.2601784 31.0931223,37.8746935 C31.0931223,28.2253986 35.964777,19.3493007 44.1252259,14.1300777 C44.5229353,13.875954 44.6391712,13.3471942 44.3850475,12.9494849 C44.1309237,12.5512058 43.6015942,12.4355396 43.2044547,12.6896633 C34.5505727,18.2245468 29.3843396,27.6390906 29.3843396,37.8741237 C29.3837698,47.8761151 34.3272173,57.0843971 42.6284029,62.6642935 Z M45.7018187,61.9640288 C46.5069237,61.9640288 47.1616058,62.6187108 47.1616058,63.4238158 C47.1616058,64.2289209 46.5069237,64.8836029 45.7018187,64.8836029 C44.8967137,64.8836029 44.2420317,64.2289209 44.2420317,63.4238158 C44.2420317,62.6187108 44.8967137,61.9640288 45.7018187,61.9640288 Z" id="Shape"></path>
                    <path d="M17.6667281,68.7091338 C20.5088115,68.7091338 22.8215655,66.3963799 22.8215655,63.5542964 C22.8215655,60.7116432 20.5088115,58.399459 17.6667281,58.399459 C14.8240748,58.399459 12.5118906,60.7122129 12.5118906,63.5542964 C12.5118906,66.3963799 14.8246446,68.7091338 17.6667281,68.7091338 Z M17.6667281,60.1088115 C19.5663885,60.1088115 21.1122129,61.654636 21.1122129,63.5542964 C21.1122129,65.4539568 19.5669583,66.9997813 17.6667281,66.9997813 C15.7664978,66.9997813 14.2212432,65.4545266 14.2212432,63.5542964 C14.2212432,61.6540662 15.7670676,60.1088115 17.6667281,60.1088115 Z" id="Shape"></path>
                    <path d="M101.916725,21.5748777 C104.758809,21.5748777 107.071563,19.2621237 107.071563,16.4200403 C107.071563,13.5779568 104.758809,11.2652029 101.916725,11.2652029 C99.0740719,11.2652029 96.7618878,13.5779568 96.7618878,16.4200403 C96.7618878,19.2621237 99.0740719,21.5748777 101.916725,21.5748777 Z M101.916725,12.9745554 C103.816386,12.9745554 105.36221,14.5198101 105.36221,16.4200403 C105.36221,18.3202705 103.816955,19.8655252 101.916725,19.8655252 C100.016495,19.8655252 98.4712403,18.3197007 98.4712403,16.4200403 C98.4712403,14.5203799 100.017065,12.9745554 101.916725,12.9745554 Z" id="Shape"></path>
                </g>
            </g>
        </g>
    </g>
</svg>