<?xml version="1.0" encoding="UTF-8"?>
<svg width="34px" height="14px" viewBox="0 0 34 14" version="1.1" xmlns="http://www.w3.org/2000/svg" xmlns:xlink="http://www.w3.org/1999/xlink">
    <!-- Generator: Sketch 52.6 (67491) - http://www.bohemiancoding.com/sketch -->
    <title>Jira</title>
    <desc>Created with Sketch.</desc>
    <g id="Page-1" stroke="none" stroke-width="1" fill="none" fill-rule="evenodd">
        <g id="07-Agreement-01-final-state" transform="translate(-780.000000, -33.000000)" fill="#205081" fill-rule="nonzero">
            <g id="Group-5" transform="translate(769.000000, 29.000000)">
                <g id="Jira" transform="translate(11.000000, 4.000000)">
                    <path d="M16.8483377,3.89689951 L15.4064251,3.89689951 C15.2794172,3.89689951 15.1748226,4.0014942 15.1748226,4.13597311 L15.1748226,12.9219275 C15.1748226,13.0489354 15.2794172,13.1535301 15.4064251,13.1535301 L16.8483377,13.1535301 C16.9753455,13.1535301 17.0799402,13.0489354 17.0799402,12.9219275 L17.0799402,4.13597311 C17.0799402,4.00149422 16.9753455,3.89689951 16.8483377,3.89689951 Z M26.1049682,12.7650355 L24.0952559,9.8662682 C24.9618976,9.50765781 25.4026896,8.7530818 25.4026896,7.6249533 L25.4026896,6.44452746 C25.4026896,4.68135973 24.4837505,3.89689951 22.4217408,3.89689951 L18.8431079,3.89689951 C18.7161001,3.89689951 18.6115054,4.0014942 18.6115054,4.13597311 L18.6115054,12.9219275 C18.6115054,13.0489354 18.7161001,13.1535301 18.8431079,13.1535301 L20.2850205,13.1535301 C20.4120284,13.1535301 20.5166231,13.0489354 20.5166231,12.9219275 L20.5166231,10.1651102 L21.9958909,10.1651102 L24.0056033,13.0564064 C24.0504296,13.1161748 24.1251401,13.1610011 24.1998506,13.1610011 L25.925663,13.1610011 C26.0526709,13.1610011 26.1572656,13.0564064 26.1572656,12.9293986 C26.1572656,12.8621591 26.1348525,12.8098618 26.1049682,12.7650355 Z M20.5166231,5.60776988 L22.3470303,5.60776988 C23.2958536,5.60776988 23.4826298,5.98132236 23.4826298,6.57900635 L23.4826298,7.4755323 C23.4826298,8.22263727 23.1987299,8.47665297 22.3470303,8.47665297 L20.5166231,8.47665297 L20.5166231,5.60776988 Z" id="Shape"></path>
                    <path d="M30.8416138,4.0612626 C30.8117296,3.96413895 30.722077,3.89689951 30.6174823,3.89689951 L28.4209937,3.89689951 C28.316399,3.89689951 28.2267464,3.96413896 28.1968622,4.0612626 L25.4251027,12.847217 C25.4026896,12.9219275 25.4176317,12.996638 25.462458,13.0564064 C25.5072843,13.1161748 25.5745237,13.1535301 25.6492342,13.1535301 L27.1658573,13.1535301 C27.270452,13.1535301 27.3601046,13.0862906 27.3899888,12.9816959 L29.2951065,6.51923795 C29.2951065,6.51923795 29.3474038,6.35487486 29.5192379,6.35487486 C29.6985431,6.35487486 29.7358984,6.51923795 29.7358984,6.51923795 L30.6249533,9.58236832 L29.4071722,9.58236832 C29.3025775,9.58236832 29.2129249,9.64960777 29.1830407,9.75420246 L28.8393724,10.9645125 C28.8169593,11.031752 28.8319014,11.1139335 28.8767277,11.1737019 C28.921554,11.2334703 28.9887934,11.2633545 29.0635039,11.2633545 L31.1180426,11.2633545 L31.6484871,12.9742249 C31.6783713,13.0713485 31.7680239,13.138588 31.8726186,13.138588 L33.3817706,13.138588 C33.4564811,13.138588 33.5237206,13.1012327 33.5685469,13.0414643 C33.6133732,12.9816959 33.6283153,12.8995144 33.6059021,12.8322749 L30.8416138,4.0612626 Z M13.4639522,3.89689951 L11.9996264,3.89689951 C11.8726186,3.89689951 11.775495,3.99402316 11.775495,4.121031 L11.775495,10.9943967 C11.775495,11.8610385 11.1180426,12.1449384 10.6697796,12.1673515 C10.6100112,12.1673515 10.5427718,12.2047068 10.4979455,12.2644752 C10.4605902,12.3242436 10.4456481,12.391483 10.4680613,12.4587224 L10.8266716,13.6167352 C10.8565558,13.7138588 10.9611505,13.7736272 11.1255136,13.7736272 C12.5225999,13.7736272 13.6880837,12.6753829 13.6880837,11.2035861 L13.6880837,4.121031 C13.6880837,4.0612626 13.6656705,4.0014942 13.6208442,3.96413896 C13.5760179,3.91931268 13.5237206,3.89689951 13.4639522,3.89689951 Z M2.14531191,1.49869256 C1.69704893,1.49869256 1.3309675,1.86477398 1.3309675,2.31303697 C1.3309675,2.76129996 1.69704893,3.12738139 2.14531191,3.12738141 C2.5935749,3.12738143 2.95965633,2.76129996 2.95965633,2.31303697 C2.95218527,1.86477398 2.5935749,1.49869256 2.14531191,1.49869256 Z M7.47964139,1.49869256 C7.0313784,1.49869256 6.66529697,1.86477398 6.66529697,2.31303697 C6.66529697,2.76129996 7.0313784,3.12738139 7.47964139,3.12738141 C7.92790438,3.12738143 8.2939858,2.76129998 8.2939858,2.31303697 C8.2939858,1.86477396 7.92790438,1.49869256 7.47964139,1.49869256 Z" id="Shape"></path>
                    <path d="M4.81247666,0.759058652 C4.36421367,0.759058652 3.99813225,1.12514008 3.99813225,1.57340307 C3.99813225,2.02166605 4.36421367,2.38774748 4.81247666,2.38774748 C5.26073965,2.38774748 5.62682107,2.02166605 5.62682107,1.57340307 C5.62682107,1.11766904 5.26073965,0.759058652 4.81247666,0.759058652 Z" id="Path"></path>
                    <path d="M9.40717221,3.76989166 C9.36234592,3.73253641 9.31004855,3.71759432 9.25028016,3.71759432 C9.22039596,3.71759432 9.19051176,3.72506537 9.16062756,3.73253643 C8.60776988,3.94172582 8.05491221,4.10608891 7.53940979,4.21815465 C7.4348151,4.24056779 7.35263354,4.32274934 7.3152783,4.41240193 C6.94172582,5.42846469 5.9929025,6.39970115 4.99925289,7.41576391 C4.96189764,7.45311916 4.90212924,7.5054165 4.81247666,7.5054165 C4.72282408,7.5054165 4.66305566,7.46059021 4.62570041,7.41576391 C3.6320508,6.39970115 2.6832275,5.43593574 2.309675,4.41240193 C2.27231975,4.32274934 2.1901382,4.24056779 2.08554352,4.21815465 C1.57751213,4.09861785 1.01718342,3.93425477 0.464325742,3.72506537 C0.434441543,3.71012328 0.404557344,3.71012328 0.374673145,3.71012328 C0.322375801,3.71012328 0.262607402,3.72506537 0.217781094,3.76242062 C0.150541641,3.81471797 0.113186406,3.90437057 0.120657461,3.98655211 C0.202839004,4.83078072 0.53903625,5.66006725 1.14419125,6.526709 C1.71199104,7.34105342 2.45162494,8.09562943 3.16884572,8.8277923 C4.48375047,10.1725812 5.73141576,11.4426597 5.8434815,12.9144565 C5.85140219,13.0488786 5.96284218,13.1537632 6.09749721,13.1535301 L7.64400449,13.1535301 C7.71124395,13.1535301 7.77848338,13.1236459 7.83078072,13.0713485 C7.87560701,13.0190512 7.90549121,12.9518117 7.89802018,12.8845723 C7.84572283,11.8983937 7.47964139,10.9122152 6.76242063,9.8662682 C6.61299963,9.64960775 6.4561076,9.43294732 6.28427344,9.22375793 C6.21703398,9.14157639 6.24691818,9.03698168 6.29921555,8.9772133 L6.45610758,8.82032125 C7.17332834,8.08815838 7.91296227,7.33358236 8.48076205,6.51923795 C9.08591707,5.65259619 9.42211432,4.83078072 9.50429586,3.97908105 C9.51176691,3.9118416 9.47441166,3.822189 9.40717221,3.76989166 Z M3.14643258,9.97833396 C3.10907732,9.94097871 3.05677998,9.90362348 2.96712738,9.90362346 C2.85506164,9.90362346 2.78035113,9.985805 2.75793799,10.0231603 C2.10795666,11.0168099 1.77175943,11.9506911 1.72693313,12.8920433 C1.72693313,12.9592828 1.74934627,13.0339933 1.79417258,13.0788196 C1.83899887,13.1311169 1.90623832,13.1610011 1.98094883,13.1610011 L3.52745611,13.1610011 C3.661935,13.1610011 3.77400076,13.0564064 3.7814718,12.9219275 C3.81882705,12.4661935 3.95330594,12.0179305 4.21479268,11.5397833 C4.30444527,11.3754203 4.23720582,11.2185282 4.18490848,11.1512887 C3.92342174,10.8150915 3.61710869,10.4639522 3.14643258,9.97833396 Z" id="Shape"></path>
                    <path d="M4.81247666,4.5244677 C5.29809488,4.5244677 5.58199479,4.4945835 5.67911842,4.4945835 C5.79865521,4.4945835 5.91072096,4.59170715 5.91072096,4.73365707 C5.91072096,4.77101232 5.9032499,4.80089652 5.88830781,4.83078072 C5.82106836,5.00261486 5.52969742,5.62271199 4.9843108,6.15315652 C4.9245424,6.21292492 4.84983191,6.22039598 4.80500561,6.22039596 C4.76017932,6.22039596 4.68546881,6.2129249 4.62570041,6.15315652 C4.08031379,5.62271199 3.78894285,5.00261486 3.7217034,4.83078072 C3.71423234,4.80836758 3.69929025,4.77848338 3.69929025,4.73365707 C3.69929025,4.59917818 3.811356,4.49458348 3.93089279,4.4945835 C4.04295854,4.4945835 4.32685842,4.5244677 4.81247666,4.5244677 Z" id="Path"></path>
                </g>
            </g>
        </g>
    </g>
</svg>