<?xml version="1.0" encoding="UTF-8"?>
<svg width="14px" height="18px" viewBox="0 0 14 18" version="1.1" xmlns="http://www.w3.org/2000/svg" xmlns:xlink="http://www.w3.org/1999/xlink">
    <!-- Generator: Sketch 52.6 (67491) - http://www.bohemiancoding.com/sketch -->
    <title>icon/action/lock_outline_24px</title>
    <desc>Created with Sketch.</desc>
    <g id="User-Onboarding" stroke="none" stroke-width="1" fill="none" fill-rule="evenodd">
        <g id="04-Onboarding---03-SignUp-step-2" transform="translate(-1197.000000, -437.000000)" fill="#8798AD" fill-rule="nonzero">
            <g id="Group-3" transform="translate(864.000000, 260.000000)">
                <g id="Group-14" transform="translate(1.000000, 141.000000)">
                    <path d="M344.25,42 L343.375,42 L343.375,40.2857143 C343.375,37.92 341.415,36 339,36 C336.585,36 334.625,37.92 334.625,40.2857143 L334.625,42 L333.75,42 C332.7875,42 332,42.7714286 332,43.7142857 L332,52.2857143 C332,53.2285714 332.7875,54 333.75,54 L344.25,54 C345.2125,54 346,53.2285714 346,52.2857143 L346,43.7142857 C346,42.7714286 345.2125,42 344.25,42 Z M336.375,40.2857143 C336.375,38.8628571 337.5475,37.7142857 339,37.7142857 C340.4525,37.7142857 341.625,38.8628571 341.625,40.2857143 L341.625,42 L336.375,42 L336.375,40.2857143 Z M344.25,52.2857143 L333.75,52.2857143 L333.75,43.7142857 L344.25,43.7142857 L344.25,52.2857143 Z M339,49.7142857 C339.9625,49.7142857 340.75,48.9428571 340.75,48 C340.75,47.0571429 339.9625,46.2857143 339,46.2857143 C338.0375,46.2857143 337.25,47.0571429 337.25,48 C337.25,48.9428571 338.0375,49.7142857 339,49.7142857 Z" id="icon/action/lock_outline_24px"></path>
                </g>
            </g>
        </g>
    </g>
</svg>