<?xml version="1.0" encoding="UTF-8"?>
<svg width="18px" height="18px" viewBox="0 0 18 18" version="1.1" xmlns="http://www.w3.org/2000/svg" xmlns:xlink="http://www.w3.org/1999/xlink">
    <!-- Generator: Sketch 52.6 (67491) - http://www.bohemiancoding.com/sketch -->
    <title>sign-out</title>
    <desc>Created with Sketch.</desc>
    <g id="User-Onboarding" stroke="none" stroke-width="1" fill="none" fill-rule="evenodd">
        <g id="04-Onboarding---13-Profile---My-details" transform="translate(-205.000000, -1081.000000)" fill="#0034DA" fill-rule="nonzero">
            <g id="sign-out" transform="translate(205.000000, 1081.000000)">
                <path d="M1.70710678,9 L4.85355339,12.1464466 C5.04881554,12.3417088 5.04881554,12.6582912 4.85355339,12.8535534 C4.65829124,13.0488155 4.34170876,13.0488155 4.14644661,12.8535534 L0.14644661,8.8535534 C-0.04881554,8.6582912 -0.04881554,8.3417088 0.14644661,8.1464466 L4.14644661,4.14644661 C4.34170876,3.95118446 4.65829124,3.95118446 4.85355339,4.14644661 C5.04881554,4.34170876 5.04881554,4.65829124 4.85355339,4.85355339 L1.70710678,8 L12.5,8 C12.7761424,8 13,8.2238576 13,8.5 C13,8.7761424 12.7761424,9 12.5,9 L1.70710678,9 Z M7.5,1 C7.2238576,1 7,0.77614237 7,0.5 C7,0.22385763 7.2238576,0 7.5,0 L15.5,0 C16.8807119,0 18,1.11928813 18,2.5 L18,15.5 C18,16.8807119 16.8807119,18 15.5,18 L7.5,18 C7.2238576,18 7,17.7761424 7,17.5 C7,17.2238576 7.2238576,17 7.5,17 L15.5,17 C16.3284271,17 17,16.3284271 17,15.5 L17,2.5 C17,1.67157288 16.3284271,1 15.5,1 L7.5,1 Z" id="Shape"></path>
            </g>
        </g>
    </g>
</svg>