<?xml version="1.0" encoding="UTF-8"?>
<svg width="221px" height="50px" viewBox="0 0 221 50" version="1.1" xmlns="http://www.w3.org/2000/svg" xmlns:xlink="http://www.w3.org/1999/xlink">
    <!-- Generator: Sketch 52.6 (67491) - http://www.bohemiancoding.com/sketch -->
    <title>Group 4</title>
    <desc>Created with Sketch.</desc>
    <defs>
        <path d="M17.2152,0.774 C18.85554,0.783 20.47977,1.098 22.00473,1.701 C22.57839,1.926 23.13216,2.196 23.6601,2.511 C25.6095,3.717 27.16425,5.472 28.13337,7.56 C29.25378,9.99 29.80413,12.654 29.7423,15.327 C29.80341,18.009 29.25306,20.664 28.13337,23.094 C27.16164,25.173 25.6077,26.928 23.6601,28.143 C23.13477,28.458 22.58775,28.737 22.02327,28.971 C20.49183,29.574 18.86157,29.889 17.2152,29.898 C15.30342,29.997 13.38768,29.826 11.5236,29.385 C10.13301,29.061 8.78247,28.584 7.49673,27.963 L7.49673,43.065 L0.2799,43.065 L0.2799,1.116 L7.49673,1.116 L7.49673,2.979 C8.05725,2.682 8.63487,2.421 9.22653,2.187 C10.18431,1.8 11.16981,1.494 12.17457,1.251 C13.82517,0.864 15.52086,0.702 17.2152,0.774 Z M14.96457,7.074 C12.92877,7.002 10.96245,7.821 9.56133,9.297 C8.08785,10.953 7.32564,13.122 7.44093,15.327 C7.32978,17.523 8.09253,19.665 9.56133,21.294 C12.55599,24.255 17.36154,24.282 20.38653,21.348 C21.82374,19.683 22.5576,17.523 22.4325,15.327 C22.55319,13.122 21.82032,10.953 20.38653,9.279 C18.98325,7.794 17.00568,6.984 14.96457,7.074 Z" id="path-1"></path>
        <linearGradient x1="32.4414667%" y1="0.296126868%" x2="32.4414667%" y2="15.9106435%" id="linearGradient-3">
            <stop stop-color="#912AD1" offset="0%"></stop>
            <stop stop-color="#E9288C" offset="100%"></stop>
        </linearGradient>
        <path d="M17.2152,0.774 C18.85554,0.783 20.47977,1.098 22.00473,1.701 C22.57839,1.926 23.13216,2.196 23.6601,2.511 C25.6095,3.717 27.16425,5.472 28.13337,7.56 C29.25378,9.99 29.80413,12.654 29.7423,15.327 C29.80341,18.009 29.25306,20.664 28.13337,23.094 C27.16164,25.173 25.6077,26.928 23.6601,28.143 C23.13477,28.458 22.58775,28.737 22.02327,28.971 C20.49183,29.574 18.86157,29.889 17.2152,29.898 C15.30342,29.997 13.38768,29.826 11.5236,29.385 C10.13301,29.061 8.78247,28.584 7.49673,27.963 L7.49673,43.065 L0.2799,43.065 L0.2799,1.116 L7.49673,1.116 L7.49673,2.979 C8.05725,2.682 8.63487,2.421 9.22653,2.187 C10.18431,1.8 11.16981,1.494 12.17457,1.251 C13.82517,0.864 15.52086,0.702 17.2152,0.774 Z M14.96457,7.074 C12.92877,7.002 10.96245,7.821 9.56133,9.297 C8.08785,10.953 7.32564,13.122 7.44093,15.327 C7.32978,17.523 8.09253,19.665 9.56133,21.294 C12.55599,24.255 17.36154,24.282 20.38653,21.348 C21.82374,19.683 22.5576,17.523 22.4325,15.327 C22.55319,13.122 21.82032,10.953 20.38653,9.279 C18.98325,7.794 17.00568,6.984 14.96457,7.074 Z" id="path-4"></path>
        <linearGradient x1="36.535328%" y1="0.506416743%" x2="32.6115619%" y2="0.354178637%" id="linearGradient-6">
            <stop stop-color="#912AD1" offset="0%"></stop>
            <stop stop-color="#E9288C" offset="100%"></stop>
        </linearGradient>
        <path d="M17.72847,0.846 C19.3689,0.855 20.99304,1.17 22.518,1.773 C23.09265,1.971 23.64957,2.214 24.18273,2.502 C26.13204,3.708 27.68688,5.463 28.656,7.551 C29.77641,9.981 30.32676,12.636 30.26493,15.318 C30.32109,18 29.77101,20.655 28.656,23.085 C27.68427,25.164 26.13033,26.919 24.18273,28.134 C23.65929,28.449 23.11209,28.728 22.5459,28.962 C21.01572,29.565 19.38465,29.88 17.73783,29.889 C15.82605,29.988 13.91031,29.817 12.04623,29.376 C10.65321,29.043 9.30006,28.557 8.01,27.936 L8.01,43.056 L0.79317,43.056 L0.79317,1.107 L8.01,1.107 L8.01,2.97 C8.63433,2.619 9.28044,2.304 9.94437,2.034 C11.05875,1.611 12.21516,1.296 13.3947,1.107 C14.82444,0.855 16.27866,0.765 17.72847,0.846 Z M15.45003,7.065 C13.42782,7.011 11.47905,7.821 10.08387,9.288 C8.62722,10.944 7.88202,13.113 8.01,15.318 C7.89885,17.514 8.66169,19.656 10.1304,21.285 C13.12506,24.246 17.93061,24.273 20.9556,21.339 C22.39281,19.674 23.12676,17.514 23.00157,15.318 C23.12226,13.113 22.38939,10.944 20.9556,9.27 C19.53369,7.758 17.52003,6.948 15.45003,7.065 Z" id="path-7"></path>
        <linearGradient x1="27.3175067%" y1="0.296660567%" x2="27.3175067%" y2="15.9111772%" id="linearGradient-9">
            <stop stop-color="#ED7463" offset="0%"></stop>
            <stop stop-color="#F7BD72" offset="100%"></stop>
        </linearGradient>
        <path d="M17.72847,0.846 C19.3689,0.855 20.99304,1.17 22.518,1.773 C23.09265,1.971 23.64957,2.214 24.18273,2.502 C26.13204,3.708 27.68688,5.463 28.656,7.551 C29.77641,9.981 30.32676,12.636 30.26493,15.318 C30.32109,18 29.77101,20.655 28.656,23.085 C27.68427,25.164 26.13033,26.919 24.18273,28.134 C23.65929,28.449 23.11209,28.728 22.5459,28.962 C21.01572,29.565 19.38465,29.88 17.73783,29.889 C15.82605,29.988 13.91031,29.817 12.04623,29.376 C10.65321,29.043 9.30006,28.557 8.01,27.936 L8.01,43.056 L0.79317,43.056 L0.79317,1.107 L8.01,1.107 L8.01,2.97 C8.63433,2.619 9.28044,2.304 9.94437,2.034 C11.05875,1.611 12.21516,1.296 13.3947,1.107 C14.82444,0.855 16.27866,0.765 17.72847,0.846 Z M15.45003,7.065 C13.42782,7.011 11.47905,7.821 10.08387,9.288 C8.62722,10.944 7.88202,13.113 8.01,15.318 C7.89885,17.514 8.66169,19.656 10.1304,21.285 C13.12506,24.246 17.93061,24.273 20.9556,21.339 C22.39281,19.674 23.12676,17.514 23.00157,15.318 C23.12226,13.113 22.38939,10.944 20.9556,9.27 C19.53369,7.758 17.52003,6.948 15.45003,7.065 Z" id="path-10"></path>
        <linearGradient x1="31.1935253%" y1="0.388779308%" x2="27.0146251%" y2="0.596742909%" id="linearGradient-12">
            <stop stop-color="#ED7463" offset="0%"></stop>
            <stop stop-color="#F7BD72" offset="100%"></stop>
        </linearGradient>
        <path d="M22.39983,0.036 L35.64297,35.82 L28.02627,35.82 L25.48737,28.539 L11.01663,28.539 L8.4591,35.82 L0.83313,35.82 L14.15997,0.036 L22.39983,0.036 Z M18.2241,7.767 L12.90447,23.058 L23.54373,23.058 L18.2241,7.767 Z" id="path-13"></path>
        <linearGradient x1="21.5900933%" y1="0.236657518%" x2="21.5900933%" y2="15.8511741%" id="linearGradient-15">
            <stop stop-color="#0034DA" offset="0%"></stop>
            <stop stop-color="#59FD97" offset="100%"></stop>
        </linearGradient>
        <path d="M22.39983,0.036 L35.64297,35.82 L28.02627,35.82 L25.48737,28.539 L11.01663,28.539 L8.4591,35.82 L0.83313,35.82 L14.15997,0.036 L22.39983,0.036 Z M18.2241,7.767 L12.90447,23.058 L23.54373,23.058 L18.2241,7.767 Z" id="path-16"></path>
        <linearGradient x1="23.7779755%" y1="0.290043931%" x2="26.3562693%" y2="0.509179475%" id="linearGradient-18">
            <stop stop-color="#0034DA" offset="0%"></stop>
            <stop stop-color="#59FD97" offset="100%"></stop>
        </linearGradient>
        <polygon id="path-19" points="7.283997 0.036 15.374997 18.081 22.694103 0.036 29.920203 0.036 19.2159 26.658 25.000497 39.321 17.690697 39.321 0.029997 0.036"></polygon>
        <path d="M7.9011,0.036 L7.9011,13.788 C7.808544,15.669 7.993431,17.55 8.449803,19.377 C8.782875,20.358 9.41013,21.204 10.2447,21.807 C11.146635,22.392 12.208338,22.698 13.2858,22.662 C14.368392,22.689 15.434388,22.392 16.345503,21.807 C17.217216,21.186 17.868888,20.304 18.205497,19.287 C18.604737,17.559 18.755064,15.786 18.651897,14.022 L18.651897,0.036 L25.850097,0.036 L25.850097,12.159 C25.850097,17.127 25.4502,20.547 24.650397,22.41 C23.787927,24.525 22.298049,26.334 20.381697,27.576 C18.209655,28.818 15.731523,29.43 13.23,29.331 C10.525626,29.457 7.851897,28.719 5.5854,27.234 C3.614247,25.785 2.173284,23.724 1.4841,21.375 C0.935397,19.629 0.6471,16.497 0.6471,11.916 L0.6471,0.036 L7.9011,0.036 Z" id="path-21"></path>
        <path d="M12.93867,0.261 C13.9482,0.279 14.94018,0.522 15.84027,0.981 L13.64553,7.164 C13.01337,6.795 12.30813,6.579 11.58093,6.525 C10.48347,6.525 9.5535,7.209 8.79093,8.568 C8.02827,9.936 7.64703,12.618 7.64703,16.605 L7.64703,29.556 L0.5697,29.556 L0.5697,0.99 L6.69843,0.99 L6.69843,4.59 C7.26354,3.294 8.17812,2.178 9.33957,1.377 C10.39959,0.648 11.65401,0.261 12.93867,0.261 Z" id="path-23"></path>
        <path d="M18.56997,1.188 C20.12022,1.881 21.52008,2.871 22.6899,4.095 L22.6899,0.99 L29.72997,0.99 L29.72997,29.511 L22.64337,29.511 L22.64337,26.487 C21.45222,27.702 20.0412,28.674 18.48627,29.349 C17.05014,29.952 15.50529,30.258 13.94793,30.231 C10.32237,30.249 6.87078,28.674 4.48983,25.938 C1.81944,23.049 0.38691,19.224 0.50013,15.282 C0.34353,11.313 1.72647,7.425 4.3596,4.455 C6.73488,1.755 10.16262,0.225 13.75263,0.261 C15.4053,0.234 17.04546,0.549 18.56997,1.188 Z M15.19407,6.858 L15.19407,6.876 C13.12146,6.822 11.1285,7.677 9.7443,9.225 C8.26659,10.872 7.48314,13.023 7.55883,15.237 C7.47468,17.478 8.27676,19.665 9.79083,21.312 C12.65985,24.354 17.44308,24.489 20.47653,21.609 L20.77407,21.312 C22.28202,19.638 23.07033,17.424 22.9689,15.174 C23.06403,12.951 22.27455,10.782 20.77407,9.144 C19.31481,7.632 17.29098,6.804 15.19407,6.858 Z" id="path-25"></path>
        <path d="M4.06917,0.531 C5.92335,0.531 7.42653,2.043 7.42653,3.897 C7.42653,5.76 5.92335,7.263 4.06917,7.263 C2.21499,7.263 0.7119,5.76 0.7119,3.897 C0.7119,2.043 2.21499,0.531 4.06917,0.531 Z" id="path-27"></path>
        <path d="M3.86037,0.045 C5.83785,0.045 7.44093,1.647 7.44093,3.627 C7.44093,5.616 5.83785,7.218 3.86037,7.218 C1.88298,7.218 0.2799,5.616 0.2799,3.627 C0.2799,1.647 1.88298,0.045 3.86037,0.045 Z" id="path-29"></path>
        <path d="M4.383,0.045 C6.36048,0.045 7.96347,1.647 7.96347,3.627 C7.96347,5.616 6.36048,7.218 4.383,7.218 C2.40552,7.218 0.80253,5.616 0.80253,3.627 C0.80253,1.647 2.40552,0.045 4.383,0.045 Z" id="path-31"></path>
    </defs>
    <g id="Page-1" stroke="none" stroke-width="1" fill="none" fill-rule="evenodd">
        <g id="Sign-up" transform="translate(-862.000000, -117.000000)">
            <g id="Group-4" transform="translate(862.000000, 117.000000)">
                <g id="Group-29" transform="translate(190.800000, 6.300000)">
                    <g id="Group-25">
                        <mask id="mask-2" fill="white">
                            <use xlink:href="#path-1"></use>
                        </mask>
                        <g id="Clip-24"></g>
                        <polygon id="Fill-23" fill="url(#linearGradient-3)" mask="url(#mask-2)" points="-218.7 11770.2 456.3 11770.2 456.3 -34.2 -218.7 -34.2"></polygon>
                    </g>
                    <g id="Group-28">
                        <mask id="mask-5" fill="white">
                            <use xlink:href="#path-4"></use>
                        </mask>
                        <g id="Clip-27"></g>
                        <polygon id="Fill-26" fill="url(#linearGradient-6)" mask="url(#mask-5)" points="-218.7 11770.2 456.3 11770.2 456.3 -34.2 -218.7 -34.2"></polygon>
                    </g>
                </g>
                <g id="Group-36" transform="translate(155.700000, 6.300000)">
                    <g id="Group-32">
                        <mask id="mask-8" fill="white">
                            <use xlink:href="#path-7"></use>
                        </mask>
                        <g id="Clip-31"></g>
                        <polygon id="Fill-30" fill="url(#linearGradient-9)" mask="url(#mask-8)" points="-183.6 11770.2 491.4 11770.2 491.4 -34.2 -183.6 -34.2"></polygon>
                    </g>
                    <g id="Group-35">
                        <mask id="mask-11" fill="white">
                            <use xlink:href="#path-10"></use>
                        </mask>
                        <g id="Clip-34"></g>
                        <polygon id="Fill-33" fill="url(#linearGradient-12)" mask="url(#mask-11)" points="-183.6 11770.2 491.4 11770.2 491.4 -34.2 -183.6 -34.2"></polygon>
                    </g>
                </g>
                <g id="Group-43" transform="translate(117.000000, 0.000000)">
                    <g id="Group-39">
                        <mask id="mask-14" fill="white">
                            <use xlink:href="#path-13"></use>
                        </mask>
                        <g id="Clip-38"></g>
                        <polygon id="Fill-37" fill="url(#linearGradient-15)" mask="url(#mask-14)" points="-144.9 11776.5 530.1 11776.5 530.1 -27.9 -144.9 -27.9"></polygon>
                    </g>
                    <g id="Group-42">
                        <mask id="mask-17" fill="white">
                            <use xlink:href="#path-16"></use>
                        </mask>
                        <g id="Clip-41"></g>
                        <polygon id="Fill-40" fill="url(#linearGradient-18)" mask="url(#mask-17)" points="-144.9 11776.5 530.1 11776.5 530.1 -27.9 -144.9 -27.9"></polygon>
                    </g>
                </g>
                <g id="Group-46" transform="translate(0.000000, 7.200000)">
                    <mask id="mask-20" fill="white">
                        <use xlink:href="#path-19"></use>
                    </mask>
                    <g id="Clip-45"></g>
                    <polygon id="Fill-44" fill="#0034DA" mask="url(#mask-20)" points="-8.970003 -8.964 38.920203 -8.964 38.920203 48.321 -8.970003 48.321"></polygon>
                </g>
                <g id="Group-49" transform="translate(33.300000, 7.200000)">
                    <mask id="mask-22" fill="white">
                        <use xlink:href="#path-21"></use>
                    </mask>
                    <g id="Clip-48"></g>
                    <polygon id="Fill-47" fill="#0034DA" mask="url(#mask-22)" points="-8.390097 -8.964 34.85007 -8.964 34.85007 38.349 -8.390097 38.349"></polygon>
                </g>
                <g id="Group-52" transform="translate(63.900000, 6.300000)">
                    <mask id="mask-24" fill="white">
                        <use xlink:href="#path-23"></use>
                    </mask>
                    <g id="Clip-51"></g>
                    <polygon id="Fill-50" fill="#0034DA" mask="url(#mask-24)" points="-8.4303 -8.739 24.84027 -8.739 24.84027 38.556 -8.4303 38.556"></polygon>
                </g>
                <g id="Group-55" transform="translate(81.900000, 6.300000)">
                    <mask id="mask-26" fill="white">
                        <use xlink:href="#path-25"></use>
                    </mask>
                    <g id="Clip-54"></g>
                    <polygon id="Fill-53" fill="#0034DA" mask="url(#mask-26)" points="-8.51184 -8.748 38.72997 -8.748 38.72997 39.24 -8.51184 39.24"></polygon>
                </g>
                <g id="Group-58" transform="translate(136.800000, 9.900000)">
                    <mask id="mask-28" fill="white">
                        <use xlink:href="#path-27"></use>
                    </mask>
                    <g id="Clip-57"></g>
                    <polygon id="Fill-56" fill="#39F0B7" mask="url(#mask-28)" points="-8.2881 -8.469 16.42653 -8.469 16.42653 16.263 -8.2881 16.263"></polygon>
                </g>
                <g id="Group-61" transform="translate(190.800000, 18.000000)">
                    <mask id="mask-30" fill="white">
                        <use xlink:href="#path-29"></use>
                    </mask>
                    <g id="Clip-60"></g>
                    <polygon id="Fill-59" fill="#FD3896" mask="url(#mask-30)" points="-8.7201 -8.955 16.44093 -8.955 16.44093 16.218 -8.7201 16.218"></polygon>
                </g>
                <g id="Group-64" transform="translate(155.700000, 18.000000)">
                    <mask id="mask-32" fill="white">
                        <use xlink:href="#path-31"></use>
                    </mask>
                    <g id="Clip-63"></g>
                    <polygon id="Fill-62" fill="#FFC3A4" mask="url(#mask-32)" points="-8.19747 -8.955 16.96347 -8.955 16.96347 16.218 -8.19747 16.218"></polygon>
                </g>
            </g>
        </g>
    </g>
</svg>