<?xml version="1.0" encoding="UTF-8"?>
<svg width="128px" height="128px" viewBox="0 0 128 128" version="1.1" xmlns="http://www.w3.org/2000/svg" xmlns:xlink="http://www.w3.org/1999/xlink">
    <!-- Generator: Sketch 52.6 (67491) - http://www.bohemiancoding.com/sketch -->
    <title>marketing-agency</title>
    <desc>Created with Sketch.</desc>
    <g id="Page-1" stroke="none" stroke-width="1" fill="none" fill-rule="evenodd">
        <g id="06-Dashboard-05-Switch-Instruction" transform="translate(-417.000000, -119.000000)" fill-rule="nonzero">
            <g id="marketing-agency" transform="translate(417.000000, 119.000000)">
                <path d="M67.5222,72.768 C65.8998,73.0326 64.2384,73.1832 62.5404,73.1832 C60.9234,73.1832 59.34,73.0452 57.7908,72.804 L57.7908,77.751 L62.5464,83.0514 L62.766,83.0514 L67.5216,77.751 L67.5216,72.768 L67.5222,72.768 Z" id="Path" fill="#F8AF23"></path>
                <path d="M62.5404,73.1832 C60.9234,73.1832 59.34,73.0452 57.7908,72.804 L57.7908,77.751 L62.5464,83.0514 L62.5812,83.0514 L62.5812,73.182 C62.568,73.182 62.5542,73.1832 62.5404,73.1832 Z" id="Path" fill="#F87023"></path>
                <path d="M91.557,102.8196 L87.4776,93.0912 C84.2232,84.9558 78.087,81.0342 72.828,79.1418 L68.1618,87.3642 L62.766,83.0514 C62.6892,83.055 62.6202,83.0514 62.5422,83.0514 L62.5416,83.0514 L57.1422,87.3642 L52.4694,79.1316 C47.2002,81.0168 41.04,84.9312 37.776,93.0912 L33.696,102.8196 L26.8824,85.9548 L26.8806,85.9548 L14.6346,85.9548 L28.0458,119.5506 L61.869,119.5506 L63.384,119.5506 L97.0926,119.5506 L110.6046,85.9548 L98.37,85.9548 L91.557,102.8196 Z M62.5398,114.5952 C61.2834,114.5952 60.2646,113.577 60.2646,112.3206 C60.2646,111.0636 61.2834,110.0454 62.5398,110.0454 C63.7956,110.0454 64.8144,111.0636 64.8144,112.3206 C64.8138,113.577 63.7956,114.5952 62.5398,114.5952 Z M62.5398,104.8452 C61.2834,104.8452 60.2646,103.827 60.2646,102.5706 C60.2646,101.3136 61.2834,100.2954 62.5398,100.2954 C63.7956,100.2954 64.8144,101.3136 64.8144,102.5706 C64.8138,103.827 63.7956,104.8452 62.5398,104.8452 Z M62.5398,95.0952 C61.2834,95.0952 60.2646,94.077 60.2646,92.8206 C60.2646,91.5636 61.2834,90.5454 62.5398,90.5454 C63.7956,90.5454 64.8144,91.5636 64.8144,92.8206 C64.8138,94.077 63.7956,95.0952 62.5398,95.0952 Z" id="Shape" fill="#0034DA"></path>
                <polygon id="Path" fill="#B2C2F3" points="44.5056 103.5504 43.0014 119.5506 38.205 119.5506"></polygon>
                <polygon id="Path" fill="#B2C2F3" points="80.604 103.5504 82.1082 119.5506 86.9052 119.5506"></polygon>
                <path d="M30.3294,72.0564 C30.3294,73.7064 28.9794,75.0564 27.3294,75.0564 L3.915,75.0564 C2.265,75.0564 0.915,73.7064 0.915,72.0564 L0.915,58.1622 C0.915,56.5122 2.265,55.1622 3.915,55.1622 L27.33,55.1622 C28.98,55.1622 30.33,56.5122 30.33,58.1622 L30.33,72.0564 L30.3294,72.0564 Z" id="Path" fill="#F8AF23"></path>
                <path d="M1.827,56.0244 C1.2684,56.5698 0.915,57.324 0.915,58.1616 L0.915,72.0558 C0.915,72.8904 1.266,73.6428 1.8216,74.1876 L2.2914,73.7544 L5.706,70.5252 L5.706,59.6916 L1.827,56.0244 Z" id="Path" fill="#F87023"></path>
                <polygon id="Path" fill="#0034DA" points="98.457 75.0522 120.0198 75.0522 113.2308 51.7224 95.052 63.5142"></polygon>
                <polygon id="Path" fill="#63BCE7" points="100.2162 81.3864 98.3706 85.9548 110.6052 85.9548 110.619 85.9548 112.4424 81.3864 100.2282 81.3864"></polygon>
                <path d="M100.2282,75.0564 L100.2282,81.3864 L112.4424,81.3864 L112.4544,81.3864 C118.5366,81.3864 119.0568,75.0564 119.0568,75.0564 L114.885,75.0564 L100.2282,75.0564 Z" id="Path" fill="#F8AF23"></path>
                <polygon id="Path" fill="#B2C2F3" points="105.8238 85.9548 92.3118 119.5506 97.0932 119.5506 110.6052 85.9548"></polygon>
                <polygon id="Path" fill="#63E2E7" points="107.661 81.3864 105.8376 85.9548 110.6052 85.9548 110.619 85.9548 112.4424 81.3864"></polygon>
                <path d="M114.8844,75.0564 L114.2748,75.0564 C114.2748,75.0564 113.7546,81.3864 107.6724,81.3864 L112.4418,81.3864 L112.4538,81.3864 C118.536,81.3864 119.0562,75.0564 119.0562,75.0564 L114.8844,75.0564 Z" id="Path" fill="#F8D323"></path>
                <polygon id="Path" fill="#63BCE7" points="25.035 81.3864 12.8112 81.3864 12.8094 81.3864 14.6328 85.9548 14.6346 85.9548 26.8806 85.9548"></polygon>
                <polygon id="Path" fill="#6377E7" points="17.5998 81.3864 12.8112 81.3864 12.8094 81.3864 14.6328 85.9548 14.6346 85.9548 19.4232 85.9548"></polygon>
                <polygon id="Path" fill="#B2C2F3" points="19.4238 85.9548 19.4232 85.9548 14.6346 85.9548 28.0458 119.5506 32.8368 119.5506 19.4256 85.9548"></polygon>
                <path d="M25.0368,81.3864 L25.0368,75.0564 L10.38,75.0564 L6.2076,75.0564 C6.2076,75.0564 6.7296,81.3864 12.8112,81.3864 L25.035,81.3864 L25.0368,81.3864 Z" id="Path" fill="#F8AF23"></path>
                <path d="M62.5398,90.5454 C61.2834,90.5454 60.2646,91.5636 60.2646,92.8206 C60.2646,94.077 61.2834,95.0952 62.5398,95.0952 C63.7956,95.0952 64.8144,94.077 64.8144,92.8206 C64.8138,91.5642 63.7956,90.5454 62.5398,90.5454 Z" id="Path" fill="#F8AF23"></path>
                <path d="M62.5398,100.2954 C61.2834,100.2954 60.2646,101.3136 60.2646,102.5706 C60.2646,103.827 61.2834,104.8452 62.5398,104.8452 C63.7956,104.8452 64.8144,103.827 64.8144,102.5706 C64.8138,101.3142 63.7956,100.2954 62.5398,100.2954 Z" id="Path" fill="#F8AF23"></path>
                <path d="M62.5398,110.0454 C61.2834,110.0454 60.2646,111.0636 60.2646,112.3206 C60.2646,113.577 61.2834,114.5952 62.5398,114.5952 C63.7956,114.5952 64.8144,113.577 64.8144,112.3206 C64.8138,111.0642 63.7956,110.0454 62.5398,110.0454 Z" id="Path" fill="#F8AF23"></path>
                <path d="M126.885,61.9236 C126.885,58.9026 124.4364,56.454 121.4154,56.454 C120.9342,56.454 120.4704,56.5224 120.0264,56.6388 L123.0804,67.134 C125.2866,66.429 126.885,64.3638 126.885,61.9236 Z" id="Path" fill="#63BCE7"></path>
                <polygon id="Path" fill="#8798AD" points="120.0264 56.6388 117.7434 48.7956 113.2308 51.7224 115.9956 61.224 117.2196 65.43 120.0198 75.0522 125.3844 75.0522 123.0804 67.134"></polygon>
                <polygon id="Path" fill="#B2C2F3" points="95.052 63.5142 98.457 75.0522 103.248 75.0522 99.0912 60.8934"></polygon>
                <path d="M103.2504,8.2086 L97.8012,9.0618 C96.7158,9.2316 95.9658,8.4822 96.1374,7.3974 L96.9906,1.9476 C97.1604,0.8622 96.6636,0.6102 95.8866,1.3866 L87.177,10.0968 C86.4,10.8738 86.4,12.1446 87.177,12.9216 L89.7066,15.4518 L92.277,18.0228 C93.0552,18.7998 94.3254,18.7992 95.1024,18.0228 L103.812,9.3126 C104.5896,8.535 104.3352,8.0382 103.2504,8.2086 Z" id="Path" fill="#F46275"></path>
                <path d="M91.968,12.921 C91.191,12.144 91.191,10.8732 91.968,10.0962 L96.4104,5.6532 L96.9906,1.947 C97.1604,0.8616 96.6636,0.6096 95.8866,1.386 L87.177,10.0962 C86.4,10.8732 86.4,12.144 87.177,12.921 L89.706,15.4512 L92.277,18.0222 C93.0552,18.7992 94.3254,18.7986 95.1024,18.0222 L96.0846,17.0394 L94.497,15.4512 L91.968,12.921 Z" id="Path" fill="#F43075"></path>
                <path d="M92.7972,65.946 C90.513,66.6216 89.2098,69.0192 89.8842,71.3058 C90.5604,73.59 92.958,74.8938 95.2434,74.2194 C96.2958,73.9086 97.1268,73.2216 97.6656,72.3588 L95.8422,66.1908 C94.9218,65.7588 93.8508,65.6358 92.7972,65.946 Z" id="Path" fill="#63BCE7"></path>
                <path d="M67.9404,72.7032 C82.44,70.1478 93.459,57.4968 93.459,42.2628 C93.459,33.8142 90.0678,26.1612 84.5766,20.5806 C78.9678,14.88 71.1684,11.3424 62.5404,11.3424 C45.4632,11.3424 31.6188,25.1856 31.6188,42.2634 C31.6188,57.4986 42.6408,70.1502 57.1428,72.7044 C58.8966,73.0134 60.6978,73.1838 62.5404,73.1838 C64.3836,73.1832 66.186,73.0128 67.9404,72.7032 Z M44.9352,42.6186 C44.9352,32.9118 52.8318,25.0146 62.5386,25.0146 C67.392,25.0146 71.793,26.9892 74.9808,30.177 C78.1686,33.3648 80.1426,37.7652 80.1426,42.6186 C80.1426,52.3254 72.2454,60.2214 62.5392,60.2214 C52.8318,60.222 44.9352,52.3254 44.9352,42.6186 Z" id="Shape" fill="#B2C2F3"></path>
                <path d="M84.5772,20.5806 C78.9684,14.88 71.169,11.3424 62.541,11.3424 C61.7334,11.3424 60.9354,11.3832 60.1434,11.4438 C67.8138,12.0318 74.7018,15.4128 79.7862,20.5806 C85.2768,26.1612 88.6686,33.8148 88.6686,42.2628 C88.6686,57.4968 77.6496,70.1478 63.15,72.7032 C62.1636,72.8772 61.161,73.0014 60.1458,73.0824 C60.9366,73.1448 61.734,73.1832 62.541,73.1832 C64.3842,73.1832 66.1866,73.0128 67.9404,72.7032 C82.44,70.1478 93.459,57.4968 93.459,42.2628 C93.459,33.8142 90.0678,26.1612 84.5772,20.5806 Z" id="Path" fill="#C4CFF4"></path>
                <path d="M17.6022,81.3864 C11.5206,81.3864 10.9986,75.0564 10.9986,75.0564 L10.3806,75.0564 L6.2082,75.0564 C6.2082,75.0564 6.7302,81.3864 12.8118,81.3864 L17.6004,81.3864 L17.6022,81.3864 Z" id="Path" fill="#F87023"></path>
                <path d="M80.142,42.6186 C80.142,37.7652 78.168,33.3648 74.9802,30.177 C71.793,26.9892 67.392,25.0146 62.538,25.0146 C52.8312,25.0146 44.9346,32.9118 44.9346,42.6186 C44.9346,52.3254 52.8312,60.2214 62.538,60.2214 C72.2448,60.222 80.142,52.3254 80.142,42.6186 Z M62.5386,49.0098 C59.01,49.0098 56.148,46.1478 56.148,42.6192 C56.148,39.0894 59.0106,36.2274 62.5386,36.2274 C64.3038,36.2274 65.9022,36.9426 67.059,38.1 C68.2158,39.2568 68.931,40.8546 68.931,42.6198 C68.931,46.1478 66.069,49.0098 62.5386,49.0098 Z" id="Shape" fill="#4C72EA"></path>
                <path d="M62.5386,36.2268 C59.01,36.2268 56.148,39.0888 56.148,42.6186 C56.148,46.1478 59.0106,49.0092 62.5386,49.0092 C66.069,49.0092 68.931,46.1472 68.931,42.6186 C68.931,40.854 68.2158,39.2556 67.059,38.0988 C65.9022,36.942 64.3038,36.2268 62.5386,36.2268 Z" id="Path" fill="#F46275"></path>
                <path d="M36.4002,42.2628 C36.4002,25.9908 48.9714,12.6654 64.9296,11.4432 C64.14,11.3826 63.3456,11.3424 62.5416,11.3424 C45.4644,11.3424 31.6194,25.1856 31.6194,42.2634 C31.6194,57.4986 42.6414,70.1502 57.1434,72.7044 C58.8972,73.0134 60.6984,73.1838 62.5416,73.1838 C63.3468,73.1838 64.1424,73.1454 64.9314,73.083 C63.9156,73.0026 62.9118,72.8784 61.9242,72.7044 C47.4216,70.1496 36.4002,57.498 36.4002,42.2628 Z" id="Path" fill="#8DA6F2"></path>
                <path d="M49.7178,42.6186 C49.7178,33.723 56.3514,26.352 64.9308,25.1814 C64.1478,25.0746 63.351,25.0146 62.5404,25.0146 C52.8336,25.0146 44.937,32.9118 44.937,42.6186 C44.937,52.3254 52.8336,60.2214 62.5404,60.2214 C63.3516,60.2214 64.1484,60.1614 64.9302,60.0546 C56.3514,58.8846 49.7178,51.5142 49.7178,42.6186 Z" id="Path" fill="#829EF1"></path>
                <path d="M60.9282,42.6186 C60.9282,39.9342 62.5848,37.6404 64.9284,36.693 C64.1904,36.3942 63.3834,36.2262 62.5374,36.2262 C59.0088,36.2262 56.1474,39.0882 56.1474,42.618 C56.1474,46.1472 59.0094,49.0086 62.5374,49.0086 C63.3834,49.0086 64.1898,48.8406 64.9284,48.5418 C62.5848,47.5956 60.9282,45.3018 60.9282,42.6186 Z" id="Path" fill="#F43075"></path>
                <path d="M1.8228,74.1972 C2.3646,74.7264 3.102,75.0564 3.9144,75.0564 L27.3294,75.0564 C28.1418,75.0564 28.8792,74.7264 29.421,74.1972 L15.6222,61.1478 L1.8228,74.1972 Z" id="Path" fill="#B2C2F3"></path>
                <path d="M29.421,56.0208 C28.8792,55.4916 28.1418,55.1616 27.3294,55.1616 L3.915,55.1616 C3.1026,55.1616 2.3652,55.491 1.8234,56.0208 L15.6228,69.0702 L29.421,56.0208 Z" id="Path" fill="#0034DA"></path>
                <path d="M52.4694,79.1322 C52.4694,79.1322 55.2882,78.039 57.7908,77.751 L62.5464,83.0514 L57.1422,87.3642 L52.4694,79.1322 Z" id="Path" fill="#63BCE7"></path>
                <path d="M72.8286,79.1418 C72.8286,79.1418 70.3776,78.1986 67.5222,77.751 L62.7666,83.0514 L68.1624,87.3642 L72.8286,79.1418 Z" id="Path" fill="#63BCE7"></path>
                <path d="M72.8286,79.1418 C72.8286,79.1418 71.688,78.7032 70.0572,78.282 L65.9202,85.572 L68.1624,87.3642 L72.8286,79.1418 Z" id="Path" fill="#63E2E7"></path>
                <path d="M52.4694,79.1322 L57.1422,87.3648 L59.3982,85.5642 L55.2474,78.2514 C53.6964,78.6576 52.4694,79.1322 52.4694,79.1322 Z" id="Path" fill="#6377E7"></path>
                <g id="Group">
                    <path d="M107.1594,125.964 L17.9238,125.964 C17.4264,125.964 17.0238,126.3666 17.0238,126.864 C17.0238,127.3614 17.4264,127.764 17.9238,127.764 L107.16,127.764 C107.6574,127.764 108.06,127.3614 108.06,126.864 C108.06,126.3666 107.6568,125.964 107.1594,125.964 Z" id="Path" fill="#231F20"></path>
                    <path d="M6.8994,119.5506 C6.8994,119.0532 6.4968,118.6506 5.9994,118.6506 L0.9924,118.6506 C0.495,118.6506 0.0924,119.0532 0.0924,119.5506 C0.0924,120.048 0.495,120.4506 0.9924,120.4506 L5.9994,120.4506 C6.4962,120.4506 6.8994,120.048 6.8994,119.5506 Z" id="Path" fill="#231F20"></path>
                    <path d="M123.4842,118.6506 L118.4766,118.6506 C117.9792,118.6506 117.5766,119.0532 117.5766,119.5506 C117.5766,120.048 117.9792,120.4506 118.4766,120.4506 L123.4842,120.4506 C123.9816,120.4506 124.3842,120.048 124.3842,119.5506 C124.3842,119.0532 123.981,118.6506 123.4842,118.6506 Z" id="Path" fill="#231F20"></path>
                    <path d="M12.5184,125.964 L7.5114,125.964 C7.014,125.964 6.6114,126.3666 6.6114,126.864 C6.6114,127.3614 7.014,127.764 7.5114,127.764 L12.5184,127.764 C13.0158,127.764 13.4184,127.3614 13.4184,126.864 C13.4184,126.3666 13.0152,125.964 12.5184,125.964 Z" id="Path" fill="#231F20"></path>
                    <path d="M117.6948,125.964 L112.6872,125.964 C112.1898,125.964 111.7872,126.3666 111.7872,126.864 C111.7872,127.3614 112.1898,127.764 112.6872,127.764 L117.6948,127.764 C118.1922,127.764 118.5948,127.3614 118.5948,126.864 C118.5948,126.3666 118.1916,125.964 117.6948,125.964 Z" id="Path" fill="#231F20"></path>
                    <path d="M124.1712,67.6626 C126.3624,66.615 127.785,64.4088 127.785,61.9236 C127.785,58.4112 124.9278,55.554 121.4154,55.554 C121.1664,55.554 120.915,55.5732 120.6624,55.6044 L118.608,48.5442 C118.5282,48.2706 118.3242,48.051 118.0578,47.952 C117.7914,47.853 117.4932,47.886 117.2544,48.0402 L112.7418,50.967 L94.563,62.7582 C94.2288,62.9748 94.077,63.3858 94.1898,63.768 L94.5252,64.9056 C93.8616,64.8366 93.189,64.8918 92.5434,65.082 L92.5428,65.082 C89.7882,65.8968 88.209,68.8026 89.022,71.5602 C89.5668,73.4004 91.044,74.7168 92.7864,75.1452 L92.7864,82.5564 C92.7864,83.0538 93.189,83.4564 93.6864,83.4564 C94.1838,83.4564 94.5864,83.0538 94.5864,82.5564 L94.5864,75.255 C94.8906,75.222 95.1954,75.171 95.499,75.0816 C96.1422,74.8914 96.7356,74.5728 97.2552,74.1546 L97.5948,75.306 C97.7076,75.6888 98.0586,75.951 98.4576,75.951 L99.3288,75.951 L99.3288,81.1812 L97.5372,85.6164 L91.5426,100.4544 L88.3146,92.7558 C84.8394,84.0678 78.141,80.0958 73.134,78.2934 C72.939,78.219 70.9254,77.4654 68.4228,76.9932 L68.4228,73.5228 C83.4714,70.7112 94.3602,57.6198 94.3602,42.261 C94.3602,34.161 91.3326,26.5074 85.83,20.5992 L89.7072,16.722 L91.6416,18.657 C92.2068,19.221 92.9484,19.503 93.6906,19.503 C94.4328,19.503 95.175,19.221 95.7396,18.6564 L104.4492,9.9468 C105.3588,9.0384 105.2058,8.3346 105.0336,7.9962 C104.8614,7.6572 104.3826,7.1208 103.1124,7.3182 L97.6632,8.1714 C97.4292,8.208 97.2414,8.169 97.1352,8.0622 C97.029,7.956 96.9906,7.7688 97.0272,7.5354 L97.8804,2.0856 C98.079,0.816 97.5408,0.3378 97.2024,0.1662 C96.8634,-0.0066 96.1602,-0.159 95.2512,0.7494 L86.5416,9.459 C85.9956,10.005 85.695,10.7328 85.695,11.508 C85.695,12.2832 85.9956,13.011 86.5416,13.557 L88.4346,15.4506 L84.567,19.3182 C78.6126,13.5924 70.8306,10.4418 62.541,10.4418 C44.9946,10.4418 30.7194,24.7164 30.7194,42.2628 C30.7194,57.7014 41.7204,70.8516 56.8914,73.5708 L56.8914,76.9728 C54.5502,77.3688 52.2516,78.2514 52.1442,78.2934 C52.1436,78.2934 52.143,78.294 52.1424,78.294 C47.121,80.0952 40.4172,84.0654 36.9462,92.7438 L33.7116,100.4562 L27.7164,85.6182 C27.7152,85.6152 27.7128,85.6134 27.7116,85.6104 L25.9368,81.2178 L25.9368,75.957 L27.3294,75.957 C29.4798,75.957 31.2294,74.2074 31.2294,72.057 L31.2294,58.1628 C31.2294,56.0124 29.4798,54.2628 27.3294,54.2628 L3.9144,54.2628 C1.764,54.2628 0.0144,56.0124 0.0144,58.1628 L0.0144,72.057 C0.0144,74.2074 1.764,75.957 3.9144,75.957 L5.4318,75.957 C5.9106,78.4056 7.7424,81.9432 12.186,82.2528 L13.797,86.289 C13.7982,86.292 13.8006,86.2938 13.8018,86.2968 L26.718,118.6512 L11.8836,118.6512 C11.3862,118.6512 10.9836,119.0538 10.9836,119.5512 C10.9836,120.0486 11.3862,120.4512 11.8836,120.4512 L28.0464,120.4512 L38.2038,120.4512 L38.2056,120.4512 L38.2074,120.4512 L86.904,120.4512 L86.9058,120.4512 L86.907,120.4512 L97.0944,120.4512 L113.2008,120.4512 C113.6982,120.4512 114.1008,120.0486 114.1008,119.5512 C114.1008,119.0538 113.6982,118.6512 113.2008,118.6512 L98.4264,118.6512 L111.4104,86.3676 C111.4248,86.3406 111.4446,86.3178 111.4566,86.289 L113.067,82.2534 C117.5238,81.9498 119.358,78.4038 119.835,75.9522 L120.021,75.9522 L125.3856,75.9522 C125.6688,75.9522 125.9358,75.819 126.1056,75.5922 C126.2754,75.3654 126.3294,75.0726 126.2502,74.8008 L124.1712,67.6626 Z M87.813,12.2844 C87.6072,12.0786 87.4938,11.8032 87.4938,11.5086 C87.4938,11.214 87.6072,10.9386 87.813,10.7328 L95.9826,2.5626 L95.2476,7.257 C95.121,8.061 95.3442,8.8188 95.8602,9.3354 C96.3768,9.8526 97.1352,10.077 97.9398,9.951 L102.6342,9.216 L94.4652,17.3856 C94.0374,17.8134 93.3408,17.8128 92.913,17.3856 L87.813,12.2844 Z M125.9856,61.9236 C125.9856,63.6036 125.0808,65.109 123.6606,65.9058 L122.9832,63.5778 L121.1742,57.3612 C123.8142,57.2088 125.9856,59.3238 125.9856,61.9236 Z M94.9878,73.3566 C93.1848,73.8882 91.2804,72.855 90.747,71.0514 C90.2142,69.246 91.2486,67.3428 93.0516,66.8094 C93.7188,66.6126 94.4334,66.633 95.1006,66.861 L95.2146,67.2468 L96.6768,72.2016 C96.24,72.7554 95.6514,73.1604 94.9878,73.3566 Z M71.511,79.6398 L67.9002,86.0022 L64.0728,82.9428 L67.8612,78.72 C69.327,78.9828 70.6542,79.365 71.511,79.6398 Z M66.6228,77.4054 L62.6568,81.8256 L58.6908,77.4054 C58.6908,77.4036 58.6914,77.4018 58.6914,77.4 L58.6914,73.839 C59.9826,73.9974 61.272,74.0826 62.541,74.0826 C63.8868,74.0826 65.2542,73.9908 66.6222,73.8132 L66.6222,77.3994 C66.6222,77.4018 66.6228,77.4036 66.6228,77.4054 Z M32.5194,42.2628 C32.5194,25.7094 45.987,12.2418 62.541,12.2418 C70.3488,12.2418 77.6796,15.2046 83.2944,20.5908 L74.9658,28.9194 C71.5524,25.8144 67.1736,24.1146 62.5392,24.1146 C52.3368,24.1146 44.0364,32.415 44.0364,42.6186 C44.0364,52.821 52.3368,61.1214 62.5392,61.1214 C72.7422,61.1214 81.0426,52.821 81.0426,42.6186 C81.0426,37.9842 79.3428,33.606 76.2384,30.192 L84.5568,21.8736 C89.7204,27.4416 92.5602,34.6428 92.5602,42.2622 C92.5602,56.8572 82.1406,69.2862 67.785,71.8164 C64.2792,72.4344 60.8118,72.435 57.3,71.817 C42.9408,69.2886 32.5194,56.859 32.5194,42.2628 Z M61.9032,43.2546 C62.079,43.4304 62.3094,43.518 62.5398,43.518 C62.7702,43.518 63.0006,43.4304 63.1764,43.2546 L67.0032,39.4278 C67.668,40.3536 68.031,41.457 68.031,42.6192 C68.031,45.6468 65.5674,48.1098 62.5386,48.1098 C59.511,48.1098 57.048,45.6468 57.048,42.6192 C57.048,39.591 59.511,37.1274 62.5386,37.1274 C63.7008,37.1274 64.8048,37.491 65.7306,38.1552 L61.9038,41.982 C61.5516,42.333 61.5516,42.903 61.9032,43.2546 Z M67.0152,36.8694 C65.7402,35.8728 64.182,35.3268 62.538,35.3268 C58.518,35.3268 55.2474,38.598 55.2474,42.6186 C55.2474,46.6386 58.518,49.9092 62.538,49.9092 C66.5592,49.9092 69.8304,46.6386 69.8304,42.6186 C69.8304,40.9746 69.2844,39.417 68.2878,38.142 L74.9628,31.467 C77.7282,34.539 79.242,38.4648 79.242,42.6186 C79.242,51.8286 71.7486,59.3214 62.5386,59.3214 C53.3286,59.3214 45.8358,51.8286 45.8358,42.6186 C45.8358,33.408 53.3286,25.9146 62.5386,25.9146 C66.6924,25.9146 70.6182,27.4284 73.6908,30.1944 L67.0152,36.8694 Z M57.4386,78.7062 L61.2378,82.941 L57.4044,86.0028 L53.7834,79.6236 C54.69,79.3248 56.091,78.9108 57.4386,78.7062 Z M29.4294,58.1622 L29.4294,72.0564 C29.4294,72.3282 29.3736,72.5862 29.2794,72.8244 L21.1212,65.109 L29.2794,57.3936 C29.3736,57.6324 29.4294,57.8904 29.4294,58.1622 Z M3.9144,56.0622 L27.3294,56.0622 C27.549,56.0622 27.7566,56.1054 27.9558,56.1684 L15.6222,67.8318 L3.2886,56.1678 C3.4878,56.1054 3.6954,56.0622 3.9144,56.0622 Z M1.8144,72.0564 L1.8144,58.1622 C1.8144,57.8904 1.8702,57.6324 1.9644,57.3942 L10.1232,65.1096 L1.9644,72.825 C1.8708,72.5862 1.8144,72.3282 1.8144,72.0564 Z M3.9144,74.1564 C3.6948,74.1564 3.4872,74.1132 3.2886,74.0502 L11.4336,66.348 L15.0042,69.7242 C15.1776,69.888 15.4002,69.9702 15.6228,69.9702 C15.8454,69.9702 16.068,69.888 16.2414,69.7242 L19.812,66.348 L27.9564,74.0502 C27.7572,74.1132 27.5496,74.1564 27.33,74.1564 L25.0374,74.1564 L6.2082,74.1564 L3.9144,74.1564 Z M12.8118,80.4864 C8.9568,80.4864 7.6878,77.5404 7.2846,75.9564 L24.1374,75.9564 L24.1374,80.4864 L12.8118,80.4864 Z M14.1378,82.2864 L24.4278,82.2864 L25.5462,85.0548 L15.243,85.0548 L14.1378,82.2864 Z M96.4854,118.6506 L87.5178,118.6506 L81.2346,102.6954 C81.0528,102.2328 80.5308,102.0054 80.0676,102.1878 C79.605,102.3696 79.3782,102.8922 79.56,103.3548 L85.5834,118.65 L39.5268,118.65 L45.5502,103.3548 C45.7326,102.8922 45.5052,102.3696 45.0426,102.1878 C44.58,102.0054 44.0574,102.2328 43.8756,102.6954 L37.5924,118.6506 L28.656,118.6506 L15.963,86.8548 L26.2752,86.8548 L32.862,103.1568 C32.9988,103.4946 33.3258,103.7172 33.6906,103.7196 C34.0734,103.725 34.3854,103.5042 34.5264,103.1676 L38.6118,93.4254 C41.1168,87.1632 45.6408,82.7316 52.065,80.2428 L55.8288,86.8728 L56.3598,87.8082 C56.49,88.0368 56.7138,88.1976 56.9724,88.2474 C57.231,88.2972 57.498,88.2312 57.7044,88.0668 L62.6544,84.1134 L67.6002,88.0668 C67.806,88.2306 68.0736,88.2972 68.3322,88.2474 C68.5908,88.1976 68.8146,88.0368 68.9448,87.8076 L73.1154,80.4588 L73.2318,80.2536 C79.6326,82.7484 84.1428,87.177 86.6478,93.4392 L90.7266,103.1676 C90.867,103.5024 91.194,103.7196 91.5564,103.7196 L91.5624,103.7196 C91.9272,103.7172 92.2542,103.4946 92.391,103.1568 L98.9772,86.8548 L109.272,86.8548 L96.4854,118.6506 Z M110.0094,85.0548 L99.705,85.0548 L100.8234,82.2864 L111.114,82.2864 L110.0094,85.0548 Z M112.4424,80.4864 L101.1282,80.4864 L101.1282,75.9564 L117.9858,75.9564 C117.5898,77.5404 116.331,80.4864 112.4424,80.4864 Z M99.1296,74.1522 L98.5332,72.1308 C98.5308,72.1218 98.5308,72.1128 98.5284,72.1044 L96.7518,66.0948 L96.105,63.9036 L112.7046,53.1366 L118.8204,74.1522 L99.1296,74.1522 Z M120.6954,74.1522 L114.282,52.1136 L117.2178,50.2092 L124.1856,74.1522 L120.6954,74.1522 Z" id="Shape" fill="#1C1463"></path>
                    <path d="M62.5392,99.3954 C60.7884,99.3954 59.364,100.8198 59.364,102.5706 C59.364,104.3208 60.7884,105.7452 62.5392,105.7452 C64.2894,105.7452 65.7138,104.3208 65.7138,102.5706 C65.7138,100.8198 64.29,99.3954 62.5392,99.3954 Z M62.5392,103.9452 C61.7808,103.9452 61.164,103.3284 61.164,102.5706 C61.164,101.8122 61.7808,101.1954 62.5392,101.1954 C63.297,101.1954 63.9138,101.8122 63.9138,102.5706 C63.9138,103.3284 63.2976,103.9452 62.5392,103.9452 Z" id="Shape" fill="#231F20"></path>
                    <path d="M62.5392,89.6454 C60.7884,89.6454 59.364,91.0698 59.364,92.8206 C59.364,94.5708 60.7884,95.9952 62.5392,95.9952 C64.2894,95.9952 65.7138,94.5708 65.7138,92.8206 C65.7138,91.0698 64.29,89.6454 62.5392,89.6454 Z M62.5392,94.1952 C61.7808,94.1952 61.164,93.5784 61.164,92.8206 C61.164,92.0622 61.7808,91.4454 62.5392,91.4454 C63.297,91.4454 63.9138,92.0622 63.9138,92.8206 C63.9138,93.5784 63.2976,94.1952 62.5392,94.1952 Z" id="Shape" fill="#231F20"></path>
                    <path d="M62.5392,109.1454 C60.7884,109.1454 59.364,110.5698 59.364,112.3206 C59.364,114.0708 60.7884,115.4952 62.5392,115.4952 C64.2894,115.4952 65.7138,114.0708 65.7138,112.3206 C65.7138,110.5698 64.29,109.1454 62.5392,109.1454 Z M62.5392,113.6952 C61.7808,113.6952 61.164,113.0784 61.164,112.3206 C61.164,111.5622 61.7808,110.9454 62.5392,110.9454 C63.297,110.9454 63.9138,111.5622 63.9138,112.3206 C63.9138,113.0784 63.2976,113.6952 62.5392,113.6952 Z" id="Shape" fill="#231F20"></path>
                </g>
            </g>
        </g>
    </g>
</svg>