<?xml version="1.0" encoding="UTF-8"?>
<svg width="23px" height="14px" viewBox="0 0 23 14" version="1.1" xmlns="http://www.w3.org/2000/svg" xmlns:xlink="http://www.w3.org/1999/xlink">
    <!-- Generator: Sketch 52.6 (67491) - http://www.bohemiancoding.com/sketch -->
    <title>mastercard-2</title>
    <desc>Created with Sketch.</desc>
    <g id="Page-1" stroke="none" stroke-width="1" fill="none" fill-rule="evenodd">
        <g id="Profile" transform="translate(-275.000000, -293.000000)" fill-rule="nonzero">
            <g id="Group-4" transform="translate(37.000000, 270.000000)">
                <g id="mastercard-2" transform="translate(238.000000, 23.000000)">
                    <path d="M22.3856122,11.325587 L22.3856122,11.054375 L22.3149841,11.054375 L22.2332815,11.2404942 L22.1520309,11.054375 L22.0811767,11.054375 L22.0811767,11.325587 L22.131351,11.325587 L22.131351,11.1212739 L22.2077423,11.2975617 L22.2597246,11.2975617 L22.336116,11.1208219 L22.336116,11.325587 L22.3858382,11.325587 L22.3856122,11.325587 Z M21.9375474,11.325587 L21.9375474,11.10082 L22.0279514,11.10082 L22.0279514,11.055053 L21.7969692,11.055053 L21.7969692,11.10082 L21.8873732,11.10082 L21.8873732,11.325587 L21.9370954,11.325587 L21.9375474,11.325587 Z" id="Shape" fill="#F79410"></path>
                    <polygon id="Path" fill="#FF5F00" points="14.3580761 12.4887474 8.24608776 12.4887474 8.24608776 1.50466156 14.3581891 1.50466156"></polygon>
                    <path d="M8.6335819,6.99693051 C8.6335819,4.76881095 9.67684405,2.78399115 11.3014039,1.50488757 C10.0716957,0.535244909 8.55073481,0.0089866161 6.98472597,0.0113004999 C3.12707432,0.0113004999 0,3.13882684 0,6.99693051 C0,10.8550342 3.12707432,13.9825605 6.98472597,13.9825605 C8.55077354,13.9848998 10.0717783,13.4586401 11.3015169,12.4889734 C9.67707006,11.2100959 8.6335819,9.22516307 8.6335819,6.99693051" id="Path" fill="#EB001B"></path>
                    <path d="M22.6038249,6.99693051 C22.6038249,10.8550342 19.4767505,13.9825605 15.6190989,13.9825605 C14.0528858,13.984859 12.5317153,13.4586109 11.3017429,12.4889734 C12.9267548,11.2098699 13.970017,9.22516307 13.970017,6.99693051 C13.970017,4.76869794 12.9267548,2.78399115 11.3017429,1.50488757 C12.5316849,0.535274204 14.0528116,0.00902743911 15.6189859,0.0113004999 C19.4766375,0.0113004999 22.6037119,3.13882684 22.6037119,6.99693051" id="Path" fill="#F79E1B"></path>
                </g>
            </g>
        </g>
    </g>
</svg>