<?xml version="1.0" encoding="UTF-8"?>
<svg width="14px" height="14px" viewBox="0 0 14 14" version="1.1" xmlns="http://www.w3.org/2000/svg" xmlns:xlink="http://www.w3.org/1999/xlink">
    <!-- Generator: Sketch 52.6 (67491) - http://www.bohemiancoding.com/sketch -->
    <title>meeting</title>
    <desc>Created with Sketch.</desc>
    <g id="Page-1" stroke="none" stroke-width="1" fill="none" fill-rule="evenodd">
        <g id="07-Agreement-05-execute" transform="translate(-171.000000, -209.000000)" fill="#ffffff" fill-rule="nonzero">
            <g id="Group-13" transform="translate(44.000000, 164.000000)">
                <g id="Group-8" transform="translate(120.000000, 40.000000)">
                    <g id="meeting" transform="translate(7.000000, 5.000000)">
                        <path d="M11.61,12.75 C11.22,12.75 10.83,12.66 10.47,12.45 C9.50999999,13.11 8.37,13.5 7.2,13.5 C6.03,13.5 4.89,13.14 3.93,12.45 C3.57,12.63 3.18000001,12.75 2.79,12.75 C1.95,12.75 1.14,12.33 0.72,11.55 C0.389999995,10.98 0.299999995,10.35 0.479999995,9.72 C0.63,9.12 1.02,8.61 1.53,8.31 C1.5,8.16 1.5,7.98 1.5,7.8 C1.5,5.58 2.82000001,3.54000001 4.8,2.64 C4.82999999,1.35 5.90999999,0.299999995 7.2,0.299999995 C8.49000001,0.299999995 9.57,1.35 9.6,2.64 C11.58,3.56999999 12.9,5.58 12.9,7.8 C12.9,7.98 12.9,8.13000001 12.87,8.31 C13.38,8.64 13.77,9.12 13.92,9.72 C14.1,10.35 14.01,10.98 13.68,11.55 C13.26,12.33 12.45,12.75 11.61,12.75 Z M10.59,9.75 C10.26,10.32 10.47,11.07 11.04,11.4 C11.61,11.73 12.36,11.52 12.69,10.95 C12.84,10.68 12.9,10.35 12.81,10.05 C12.72,9.75000001 12.54,9.48000001 12.24,9.33 C12.06,9.21000001 11.85,9.18 11.64,9.18 C11.55,9.18 11.43,9.18 11.34,9.21 C11.01,9.27 10.74,9.48 10.59,9.75 Z M9.57,11.61 C9.12,10.89 9.05999999,9.93 9.54,9.15 C9.87,8.58000001 10.38,8.19 11.01,8.04 C11.25,7.97999999 11.49,7.95 11.7,7.95 L11.7,7.8 C11.7,6.12 10.77,4.59 9.33,3.84 C8.91,4.59 8.1,5.1 7.2,5.1 C6.3,5.1 5.49,4.59 5.07,3.84 C3.63,4.62 2.7,6.15 2.7,7.8 L2.7,7.95 C2.94,7.95 3.18,7.97999999 3.39,8.04 C4.02,8.22 4.53000001,8.60999999 4.86,9.15 C5.31,9.93000001 5.28,10.89 4.83,11.61 C5.55,12.06 6.36,12.3 7.2,12.3 C8.04,12.3 8.88,12.06 9.57,11.61 Z M3.39,11.4 C3.96,11.07 4.17000001,10.32 3.84,9.75 C3.69,9.48 3.42,9.27 3.12,9.18 C3.03,9.15 2.91000001,9.15 2.82,9.15 C2.61,9.15 2.39999999,9.21000001 2.22,9.3 C1.95,9.45 1.74000001,9.72 1.65,10.02 C1.56,10.32 1.62,10.65 1.77,10.92 C2.07,11.52 2.82000001,11.73 3.39,11.4 Z M7.2,1.5 C6.54,1.5 6,2.04 6,2.7 C6,2.79 6,2.85 6.03,2.91 L6.03,2.94 C6.15,3.48 6.63,3.90000001 7.2,3.9 C7.77,3.89999998 8.28,3.47999999 8.37,2.94 L8.37,2.91 C8.4,2.84999999 8.4,2.79 8.4,2.7 C8.4,2.04 7.86,1.5 7.2,1.5 Z" id="Shape"></path>
                    </g>
                </g>
            </g>
        </g>
    </g>
</svg>