<?xml version="1.0" encoding="UTF-8"?>
<svg width="739px" height="487px" viewBox="0 0 739 487" version="1.1" xmlns="http://www.w3.org/2000/svg" xmlns:xlink="http://www.w3.org/1999/xlink">
    <!-- Generator: Sketch 52.6 (67491) - http://www.bohemiancoding.com/sketch -->
    <title>Dennis Roelofsen-04</title>
    <desc>Created with Sketch.</desc>
    <defs>
        <linearGradient x1="84.5652713%" y1="82.4065753%" x2="4.79612403%" y2="32.909863%" id="linearGradient-1">
            <stop stop-color="#0034DA" offset="0.4132231%"></stop>
            <stop stop-color="#1460CB" stop-opacity="0.8753" offset="12.83%"></stop>
            <stop stop-color="#2990BB" stop-opacity="0.72" offset="28.3%"></stop>
            <stop stop-color="#3BB8AE" stop-opacity="0.5653" offset="43.7%"></stop>
            <stop stop-color="#48D7A3" stop-opacity="0.4141" offset="58.76%"></stop>
            <stop stop-color="#52ED9C" stop-opacity="0.2673" offset="73.38%"></stop>
            <stop stop-color="#58FA98" stop-opacity="0.1269" offset="87.36%"></stop>
            <stop stop-color="#5AFF96" stop-opacity="0" offset="100%"></stop>
        </linearGradient>
        <linearGradient x1="42.4777778%" y1="-3.86214286%" x2="49.8204204%" y2="78.4435714%" id="linearGradient-2">
            <stop stop-color="#EC7463" offset="0.4132231%"></stop>
            <stop stop-color="#EC7463" stop-opacity="0.9995" offset="0.6614937%"></stop>
            <stop stop-color="#F19873" stop-opacity="0.942" offset="29.18%"></stop>
            <stop stop-color="#F5B17F" stop-opacity="0.8879" offset="56%"></stop>
            <stop stop-color="#F7C186" stop-opacity="0.839" offset="80.23%"></stop>
            <stop stop-color="#F8C688" stop-opacity="0.8" offset="99.59%"></stop>
        </linearGradient>
        <linearGradient x1="0%" y1="50.0254762%" x2="100.040412%" y2="50.0254762%" id="linearGradient-3">
            <stop stop-color="#E6288E" offset="0.4132231%"></stop>
            <stop stop-color="#E42990" offset="46.16%"></stop>
            <stop stop-color="#DD2B97" offset="64.26%"></stop>
            <stop stop-color="#D130A3" offset="77.46%"></stop>
            <stop stop-color="#C036B4" offset="88.29%"></stop>
            <stop stop-color="#A93ECA" offset="97.55%"></stop>
            <stop stop-color="#A241D1" offset="100%"></stop>
        </linearGradient>
        <linearGradient x1="32.8095658%" y1="50.1173313%" x2="68.3685795%" y2="68.1158313%" id="linearGradient-4">
            <stop stop-color="#E6288E" offset="0.4132231%"></stop>
            <stop stop-color="#E42990" offset="46.16%"></stop>
            <stop stop-color="#DD2B97" offset="64.26%"></stop>
            <stop stop-color="#D130A3" offset="77.46%"></stop>
            <stop stop-color="#C036B4" offset="88.29%"></stop>
            <stop stop-color="#A93ECA" offset="97.55%"></stop>
            <stop stop-color="#A241D1" offset="100%"></stop>
        </linearGradient>
        <radialGradient cx="49.7685185%" cy="49.7685185%" fx="49.7685185%" fy="49.7685185%" r="49.7685185%" id="radialGradient-5">
            <stop stop-color="#EC7463" offset="0.4132231%"></stop>
            <stop stop-color="#EC7463" stop-opacity="0.9995" offset="0.6614937%"></stop>
            <stop stop-color="#F19873" stop-opacity="0.942" offset="29.18%"></stop>
            <stop stop-color="#F5B17F" stop-opacity="0.8879" offset="56%"></stop>
            <stop stop-color="#F7C186" stop-opacity="0.839" offset="80.23%"></stop>
            <stop stop-color="#F8C688" stop-opacity="0.8" offset="99.59%"></stop>
        </radialGradient>
        <linearGradient x1="51.39525%" y1="61.1547619%" x2="15.116%" y2="6.5302381%" id="linearGradient-6">
            <stop stop-color="#E6288E" offset="0.4132231%"></stop>
            <stop stop-color="#E62B8C" offset="1.725808%"></stop>
            <stop stop-color="#E8457D" offset="15.54%"></stop>
            <stop stop-color="#EA5A72" offset="30.65%"></stop>
            <stop stop-color="#EB6969" offset="47.61%"></stop>
            <stop stop-color="#EC7164" offset="67.85%"></stop>
            <stop stop-color="#EC7463" offset="100%"></stop>
        </linearGradient>
        <linearGradient x1="0%" y1="49.9958495%" x2="100%" y2="49.9958495%" id="linearGradient-7">
            <stop stop-color="#EC7463" offset="0.4132231%"></stop>
            <stop stop-color="#EC7463" stop-opacity="0.9995" offset="0.6614937%"></stop>
            <stop stop-color="#F19873" stop-opacity="0.942" offset="29.18%"></stop>
            <stop stop-color="#F5B17F" stop-opacity="0.8879" offset="56%"></stop>
            <stop stop-color="#F7C186" stop-opacity="0.839" offset="80.23%"></stop>
            <stop stop-color="#F8C688" stop-opacity="0.8" offset="99.59%"></stop>
        </linearGradient>
        <linearGradient x1="0%" y1="49.9556279%" x2="99.9214386%" y2="49.9556279%" id="linearGradient-8">
            <stop stop-color="#EC7463" offset="0.4132231%"></stop>
            <stop stop-color="#EC7463" stop-opacity="0.9995" offset="0.6614937%"></stop>
            <stop stop-color="#F19873" stop-opacity="0.942" offset="29.18%"></stop>
            <stop stop-color="#F5B17F" stop-opacity="0.8879" offset="56%"></stop>
            <stop stop-color="#F7C186" stop-opacity="0.839" offset="80.23%"></stop>
            <stop stop-color="#F8C688" stop-opacity="0.8" offset="99.59%"></stop>
        </linearGradient>
        <linearGradient x1="44.1507895%" y1="-1.6954717%" x2="50.0997368%" y2="78.7075472%" id="linearGradient-9">
            <stop stop-color="#EC7463" offset="0.4132231%"></stop>
            <stop stop-color="#EC7463" stop-opacity="0.9995" offset="0.6614937%"></stop>
            <stop stop-color="#F19873" stop-opacity="0.942" offset="29.18%"></stop>
            <stop stop-color="#F5B17F" stop-opacity="0.8879" offset="56%"></stop>
            <stop stop-color="#F7C186" stop-opacity="0.839" offset="80.23%"></stop>
            <stop stop-color="#F8C688" stop-opacity="0.8" offset="99.59%"></stop>
        </linearGradient>
        <linearGradient x1="42.4760532%" y1="-3.25077299%" x2="54.3006652%" y2="78.5448332%" id="linearGradient-10">
            <stop stop-color="#EC7463" offset="0.4132231%"></stop>
            <stop stop-color="#EC7463" stop-opacity="0.9995" offset="0.6614937%"></stop>
            <stop stop-color="#F19873" stop-opacity="0.942" offset="29.18%"></stop>
            <stop stop-color="#F5B17F" stop-opacity="0.8879" offset="56%"></stop>
            <stop stop-color="#F7C186" stop-opacity="0.839" offset="80.23%"></stop>
            <stop stop-color="#F8C688" stop-opacity="0.8" offset="99.59%"></stop>
        </linearGradient>
        <linearGradient x1="0.0963133641%" y1="49.9907789%" x2="100%" y2="49.9907789%" id="linearGradient-11">
            <stop stop-color="#EC7463" offset="0.4132231%"></stop>
            <stop stop-color="#EC7463" stop-opacity="0.9995" offset="0.6614937%"></stop>
            <stop stop-color="#F19873" stop-opacity="0.942" offset="29.18%"></stop>
            <stop stop-color="#F5B17F" stop-opacity="0.8879" offset="56%"></stop>
            <stop stop-color="#F7C186" stop-opacity="0.839" offset="80.23%"></stop>
            <stop stop-color="#F8C688" stop-opacity="0.8" offset="99.59%"></stop>
        </linearGradient>
        <linearGradient x1="52.4811628%" y1="15.2037662%" x2="49.1274419%" y2="71.0164935%" id="linearGradient-12">
            <stop stop-color="#EC7463" offset="0.4132231%"></stop>
            <stop stop-color="#EC7463" stop-opacity="0.9995" offset="0.6614937%"></stop>
            <stop stop-color="#F19873" stop-opacity="0.942" offset="29.18%"></stop>
            <stop stop-color="#F5B17F" stop-opacity="0.8879" offset="56%"></stop>
            <stop stop-color="#F7C186" stop-opacity="0.839" offset="80.23%"></stop>
            <stop stop-color="#F8C688" stop-opacity="0.8" offset="99.59%"></stop>
        </linearGradient>
        <linearGradient x1="0%" y1="50%" x2="100%" y2="50%" id="linearGradient-13">
            <stop stop-color="#EC7463" offset="0.4132231%"></stop>
            <stop stop-color="#EC7463" offset="0.6614937%"></stop>
            <stop stop-color="#F19873" offset="29.18%"></stop>
            <stop stop-color="#F5B17F" offset="56%"></stop>
            <stop stop-color="#F7C186" offset="80.23%"></stop>
            <stop stop-color="#F8C688" offset="99.59%"></stop>
        </linearGradient>
        <radialGradient cx="50%" cy="50%" fx="50%" fy="50%" r="50.84%" gradientTransform="translate(0.500000,0.500000),scale(0.967742,1.000000),translate(-0.500000,-0.500000)" id="radialGradient-14">
            <stop stop-color="#EC7463" offset="0.4132231%"></stop>
            <stop stop-color="#EC7463" stop-opacity="0.9995" offset="0.6614937%"></stop>
            <stop stop-color="#F19873" stop-opacity="0.942" offset="29.18%"></stop>
            <stop stop-color="#F5B17F" stop-opacity="0.8879" offset="56%"></stop>
            <stop stop-color="#F7C186" stop-opacity="0.839" offset="80.23%"></stop>
            <stop stop-color="#F8C688" stop-opacity="0.8" offset="99.59%"></stop>
        </radialGradient>
        <linearGradient x1="78.3004006%" y1="31.4969953%" x2="10.4854968%" y2="117.659906%" id="linearGradient-15">
            <stop stop-color="#5AFF96" offset="0.4132231%"></stop>
            <stop stop-color="#9CFFC0" stop-opacity="0.6613" offset="11.82%"></stop>
            <stop stop-color="#D2FFE2" stop-opacity="0.3543" offset="22.16%"></stop>
            <stop stop-color="#F3FFF7" stop-opacity="0.1254" offset="29.87%"></stop>
            <stop stop-color="#FFFFFF" stop-opacity="0" offset="34.09%"></stop>
        </linearGradient>
        <radialGradient cx="50%" cy="50%" fx="50%" fy="50%" r="150.906364%" id="radialGradient-16">
            <stop stop-color="#E6288E" offset="0.4132231%"></stop>
            <stop stop-color="#EB53A5" stop-opacity="0.8344" offset="5.989923%"></stop>
            <stop stop-color="#F49CCB" stop-opacity="0.5355" offset="16.06%"></stop>
            <stop stop-color="#FAD2E7" stop-opacity="0.2869" offset="24.43%"></stop>
            <stop stop-color="#FEF3F8" stop-opacity="0.1015" offset="30.67%"></stop>
            <stop stop-color="#FFFFFF" stop-opacity="0" offset="34.09%"></stop>
        </radialGradient>
        <linearGradient x1="0%" y1="50.2873134%" x2="100%" y2="50.2873134%" id="linearGradient-17">
            <stop stop-color="#EC7463" offset="0.4132231%"></stop>
            <stop stop-color="#EC7463" stop-opacity="0.9995" offset="0.6614937%"></stop>
            <stop stop-color="#F19873" stop-opacity="0.942" offset="29.18%"></stop>
            <stop stop-color="#F5B17F" stop-opacity="0.8879" offset="56%"></stop>
            <stop stop-color="#F7C186" stop-opacity="0.839" offset="80.23%"></stop>
            <stop stop-color="#F8C688" stop-opacity="0.8" offset="99.59%"></stop>
        </linearGradient>
        <radialGradient cx="50.1246976%" cy="50.04348%" fx="50.1246976%" fy="50.04348%" r="59.4399878%" gradientTransform="translate(0.501247,0.500435),scale(1.000000,0.740299),translate(-0.501247,-0.500435)" id="radialGradient-18">
            <stop stop-color="#EC7463" offset="0.4132231%"></stop>
            <stop stop-color="#EC7463" stop-opacity="0.9995" offset="0.6614937%"></stop>
            <stop stop-color="#F19873" stop-opacity="0.942" offset="29.18%"></stop>
            <stop stop-color="#F5B17F" stop-opacity="0.8879" offset="56%"></stop>
            <stop stop-color="#F7C186" stop-opacity="0.839" offset="80.23%"></stop>
            <stop stop-color="#F8C688" stop-opacity="0.8" offset="99.59%"></stop>
        </radialGradient>
        <linearGradient x1="81.5162992%" y1="104.39325%" x2="15.4790551%" y2="-9.578875%" id="linearGradient-19">
            <stop stop-color="#A241D1" offset="0%"></stop>
            <stop stop-color="#A93ECA" offset="2.4463%"></stop>
            <stop stop-color="#C036B4" offset="11.71%"></stop>
            <stop stop-color="#D130A3" offset="22.54%"></stop>
            <stop stop-color="#DD2B97" offset="35.74%"></stop>
            <stop stop-color="#E42990" offset="53.84%"></stop>
            <stop stop-color="#E6288E" offset="99.59%"></stop>
        </linearGradient>
        <linearGradient x1="0%" y1="50%" x2="100%" y2="50%" id="linearGradient-20">
            <stop stop-color="#EC7463" offset="0.4132231%"></stop>
            <stop stop-color="#EC7463" stop-opacity="0.9995" offset="0.6614937%"></stop>
            <stop stop-color="#F19873" stop-opacity="0.942" offset="29.18%"></stop>
            <stop stop-color="#F5B17F" stop-opacity="0.8879" offset="56%"></stop>
            <stop stop-color="#F7C186" stop-opacity="0.839" offset="80.23%"></stop>
            <stop stop-color="#F8C688" stop-opacity="0.8" offset="99.59%"></stop>
        </linearGradient>
        <radialGradient cx="49.7666667%" cy="49.9222222%" fx="49.7666667%" fy="49.9222222%" r="50.1166667%" id="radialGradient-21">
            <stop stop-color="#EC7463" offset="0.4132231%"></stop>
            <stop stop-color="#EC7463" stop-opacity="0.9995" offset="0.6614937%"></stop>
            <stop stop-color="#F19873" stop-opacity="0.942" offset="29.18%"></stop>
            <stop stop-color="#F5B17F" stop-opacity="0.8879" offset="56%"></stop>
            <stop stop-color="#F7C186" stop-opacity="0.839" offset="80.23%"></stop>
            <stop stop-color="#F8C688" stop-opacity="0.8" offset="99.59%"></stop>
        </radialGradient>
        <radialGradient cx="49.9611111%" cy="49.9222222%" fx="49.9611111%" fy="49.9222222%" r="50.1166667%" id="radialGradient-22">
            <stop stop-color="#EC7463" offset="0.4132231%"></stop>
            <stop stop-color="#EC7463" stop-opacity="0.9995" offset="0.6614937%"></stop>
            <stop stop-color="#F19873" stop-opacity="0.942" offset="29.18%"></stop>
            <stop stop-color="#F5B17F" stop-opacity="0.8879" offset="56%"></stop>
            <stop stop-color="#F7C186" stop-opacity="0.839" offset="80.23%"></stop>
            <stop stop-color="#F8C688" stop-opacity="0.8" offset="99.59%"></stop>
        </radialGradient>
        <linearGradient x1="40.1434211%" y1="108.7325%" x2="138.451316%" y2="2.97125%" id="linearGradient-23">
            <stop stop-color="#A241D1" offset="0%"></stop>
            <stop stop-color="#A93ECA" offset="2.4463%"></stop>
            <stop stop-color="#C036B4" offset="11.71%"></stop>
            <stop stop-color="#D130A3" offset="22.54%"></stop>
            <stop stop-color="#DD2B97" offset="35.74%"></stop>
            <stop stop-color="#E42990" offset="53.84%"></stop>
            <stop stop-color="#E6288E" offset="99.59%"></stop>
        </linearGradient>
        <linearGradient x1="30.3774737%" y1="28.3383673%" x2="89.8543158%" y2="93.9958163%" id="linearGradient-24">
            <stop stop-color="#EC7463" offset="0.4132231%"></stop>
            <stop stop-color="#EC7463" stop-opacity="0.9995" offset="0.6614937%"></stop>
            <stop stop-color="#F19873" stop-opacity="0.942" offset="29.18%"></stop>
            <stop stop-color="#F5B17F" stop-opacity="0.8879" offset="56%"></stop>
            <stop stop-color="#F7C186" stop-opacity="0.839" offset="80.23%"></stop>
            <stop stop-color="#F8C688" stop-opacity="0.8" offset="99.59%"></stop>
        </linearGradient>
    </defs>
    <g id="Page-1" stroke="none" stroke-width="1" fill="none" fill-rule="evenodd">
        <g id="01-Sign-in" transform="translate(0.000000, -537.000000)">
            <g id="Dennis-Roelofsen-04" transform="translate(-42.000000, 534.000000)">
                <g id="Group" transform="translate(31.000000, 251.000000)" fill="#FFFFFF" fill-rule="nonzero">
                    <path d="M48.3,97.4 L18.5,239" id="Path" stroke="#0034DA" stroke-width="6"></path>
                    <path d="M98.2,97.4 L124.9,225.6" id="Path" stroke="#0034DA" stroke-width="6"></path>
                    <path d="M73.3,0 L73.1,239" id="Path" stroke="#0034DA" stroke-width="6"></path>
                    <rect id="Rectangle" x="0" y="16.7" width="143.2" height="103.2"></rect>
                </g>
                <path d="M377,303 L335,256 L346.9,251.4 C343.2,244.2 339.5,237.1 335.7,230.2 L305,254 L359,297 L377,303 Z" id="Path" fill="#F8C688" fill-rule="nonzero"></path>
                <polyline id="Path" fill="#A241D1" fill-rule="nonzero" points="192 354 141 433 138 490 177.7 490 185.5 490 201 490 240.3 490 283 368 258 351"></polyline>
                <polygon id="Path" fill="url(#linearGradient-1)" fill-rule="nonzero" opacity="0.22" points="147 299 84 283 18 356 147 352.3"></polygon>
                <polyline id="Path" fill="url(#linearGradient-2)" fill-rule="nonzero" points="237 192 231 236 249 248 264.3 238.8 256.3 197.8"></polyline>
                <path d="M226.5,228.3 C225.4,253.6 212,321.7 213,347 L276,331 L288,227 L226.5,228.3 Z" id="Path" fill="#FFFFFF" fill-rule="nonzero"></path>
                <path d="M226.5,228.3 L212,229 L171,177 L199.3,136.1 C194.5,124.2 190,112.1 185.3,100.3 L143,182 L189,244 L190,357 L228,357 C228,315 225.4,253.6 226.5,228.3 Z" id="Path" fill="#EC7463" fill-rule="nonzero"></path>
                <circle id="Oval" fill="#0034DA" fill-rule="nonzero" cx="212.5" cy="247.5" r="3.5"></circle>
                <circle id="Oval" fill="#0034DA" fill-rule="nonzero" cx="212.5" cy="271.5" r="3.5"></circle>
                <circle id="Oval" fill="#0034DA" fill-rule="nonzero" cx="212.5" cy="295.5" r="3.5"></circle>
                <g id="Group" transform="translate(147.000000, 280.000000)" fill-rule="nonzero">
                    <path d="M78.4,54.6 L78,54.6 L78,34.7 L78.4,34.7 C83.9,34.7 88.4,39.2 88.4,44.7 C88.4,50.1 83.9,54.6 78.4,54.6 Z" id="Path" fill="#A241D1"></path>
                    <rect id="Rectangle" fill="#E6288E" x="42.5" y="28.6" width="39" height="32.9"></rect>
                    <polyline id="Path" fill="url(#linearGradient-3)" points="48.5 28.9 0 0 0 84 48.5 61.1"></polyline>
                    <polygon id="Path" fill="url(#linearGradient-4)" points="57.4 84.3 44.9 84.3 62.2 54.3 71.2 59.5"></polygon>
                </g>
                <path d="M230,363 L217,363 C202.1,363 190,350.9 190,336 L230,336 L230,363 Z" id="Path" fill="#F8C688" fill-rule="nonzero"></path>
                <polygon id="Path" fill="#EC7463" fill-rule="nonzero" points="230 363 230 336 309 328 309 363"></polygon>
                <path d="M276,170 L218,170 C215.2,170 213,167.7 213,165 C213,162.2 215.3,160 218,160 L276,160 C278.8,160 281,162.3 281,165 C281,167.8 278.8,170 276,170 Z" id="Path" fill="#EC7463" fill-rule="nonzero"></path>
                <path d="M246.5,203 C231.9,203 220,191.1 220,176.5 L220,150.5 C220,135.9 231.9,124 246.5,124 C261.1,124 273,135.9 273,150.5 L273,176.5 C273,191.1 261.1,203 246.5,203 Z" id="Path" fill="#F8C688" fill-rule="nonzero"></path>
                <path d="M237.3,190.3 C240.2,197.8 250.6,197.7 253.1,189.9 C253.7,188.1 250.8,187.3 250.2,189.1 C248.6,193.9 242.1,194.3 240.2,189.5 C239.5,187.7 236.6,188.5 237.3,190.3 Z" id="Path" fill="#0034DA" fill-rule="nonzero"></path>
                <circle id="Oval" fill="url(#radialGradient-5)" fill-rule="nonzero" cx="264.3" cy="170.8" r="10.8"></circle>
                <circle id="Oval" fill="url(#radialGradient-5)" fill-rule="nonzero" cx="231.3" cy="170.8" r="10.8"></circle>
                <path d="M224,111 L190,92 L185.3,100.3 C190,112.1 165.2,174 170,186 L224,111 Z" id="Path" fill="#EC7463" fill-rule="nonzero"></path>
                <polygon id="Path" fill="#0034DA" fill-rule="nonzero" points="220 132 220 171.5 235 135 283 124 261 108"></polygon>
                <path d="M190,92 L211,59 C221.9,64.2 225.3,78 218,87.6 L217,89 L220,88.8 C226.5,88.4 232,93.5 232,100 L215.1,106 L190,92 Z" id="Path" fill="#F8C688" fill-rule="nonzero"></path>
                <path d="M309,353 L269,353 L269,227 L283.5,227 C297.6,227 309,238.4 309,252.5 L309,353 Z" id="Path" fill="#EC7463" fill-rule="nonzero"></path>
                <path d="M308,353 L268,353 L268,227 L282.5,227 C296.6,227 308,238.4 308,252.5 L308,353 Z" id="Path" fill="url(#linearGradient-6)" fill-rule="nonzero"></path>
                <polyline id="Path" fill="#0034DA" fill-rule="nonzero" points="579.7 140 525 238 627 238 621.8 124"></polyline>
                <g id="Group" transform="translate(518.000000, 81.000000)" fill-rule="nonzero">
                    <path d="M101,225 L109,157 L122.5,164.8 C126.1,159.1 130.1,153.5 134,147.9 L114,133 L94,133 L56,133 L38,144 L41,219 L37,407 L169,407 L128,245 L101,225 Z" id="Path" fill="#EC7463"></path>
                    <path d="M27,80 L15,0 L0,8 L11,89 L27.6,122.9 C33.5,119.9 39.4,116.7 45.1,113.2 L27,80 Z" id="Path" fill="#F8C688"></path>
                    <path d="M56,133 L45.2,113.2 C39.5,116.6 33.6,119.8 27.7,122.9 L38,144 L56,133 Z" id="Path" fill="#EC7463"></path>
                    <path d="M117,225 L191,288 L191,226 L117,225 Z M180,265.8 L144.5,235.6 L180,236 L180,265.8 Z" id="Shape" fill="#E6288E"></path>
                    <g transform="translate(105.000000, 147.000000)" id="Path">
                        <path d="M29,0.9 C25.1,6.5 21.2,12.1 17.5,17.8 L30,25 L0,78 L56,21 L29,0.9 Z" fill="url(#linearGradient-7)"></path>
                        <path d="M17.4,65.9 L12.5,65.3 L0,78 L8.5,85.6 C13.8,90.4 22.1,89.1 25.8,83.1 C30.1,76 25.6,66.9 17.4,65.9 Z" fill="url(#linearGradient-8)"></path>
                    </g>
                    <polyline id="Path" fill="#F8C688" points="67 97.7 56 135 74 147 94 135 86 94"></polyline>
                    <polyline id="Path" fill="url(#linearGradient-9)" points="67 97.7 56 135 74 147 94 135 86 94"></polyline>
                    <path d="M104,69 L46,69 C43.2,69 41,66.7 41,64 C41,61.2 43.3,59 46,59 L104,59 C106.8,59 109,61.3 109,64 C109,66.8 106.8,69 104,69 Z" id="Path" fill="#EC7463"></path>
                    <path d="M74.5,102 C59.9,102 48,90.1 48,75.5 L48,49.5 C48,34.9 59.9,23 74.5,23 C89.1,23 101,34.9 101,49.5 L101,75.5 C101,90.1 89.1,102 74.5,102 Z" id="Path" fill="#F8C688"></path>
                    <circle id="Oval" fill="#0034DA" cx="107" cy="32" r="28"></circle>
                    <circle id="Oval" fill="#0034DA" cx="72" cy="18" r="14"></circle>
                    <path d="M65.3,89.3 C68.2,96.8 78.6,96.7 81.1,88.9 C81.7,87.1 78.8,86.3 78.2,88.1 C76.6,92.9 70.1,93.3 68.2,88.5 C67.5,86.7 64.6,87.5 65.3,89.3 Z" id="Path" fill="#0034DA"></path>
                    <path d="M27,80 L15,0 L0,8 L11,89 L27.6,122.9 C33.5,119.9 39.4,116.7 45.1,113.2 L27,80 Z" id="Path" fill="url(#linearGradient-10)"></path>
                </g>
                <g id="Group" transform="translate(525.000000, 3.000000)" fill-rule="nonzero">
                    <path d="M0,81 L0,0.2 L27.9,0.2 C31.8,0.2 35,3.4 35,7.3 L35,74 C35,77.9 31.8,81.1 27.9,81.1 L0,81.1 L0,81 Z" id="Path" fill="#A241D1"></path>
                    <rect id="Rectangle" fill="#0034DA" x="4.4" y="6.3" width="6.1" height="7"></rect>
                    <rect id="Rectangle" fill="#0034DA" x="4.4" y="18.5" width="6.1" height="7"></rect>
                    <rect id="Rectangle" fill="#0034DA" x="4.4" y="30.7" width="6.1" height="7"></rect>
                    <rect id="Rectangle" fill="#0034DA" x="4.4" y="42.9" width="6.1" height="7"></rect>
                    <rect id="Rectangle" fill="#0034DA" x="4.4" y="55.1" width="6.1" height="7"></rect>
                    <rect id="Rectangle" fill="#0034DA" x="13.9" y="6.3" width="6.1" height="7"></rect>
                    <rect id="Rectangle" fill="#0034DA" x="23.5" y="6.3" width="6.1" height="7"></rect>
                    <rect id="Rectangle" fill="#0034DA" x="23.5" y="18.5" width="6.1" height="43.6"></rect>
                    <rect id="Rectangle" fill="#0034DA" x="13.9" y="18.5" width="6.1" height="7"></rect>
                    <rect id="Rectangle" fill="#0034DA" x="13.9" y="30.7" width="6.1" height="7"></rect>
                    <rect id="Rectangle" fill="#0034DA" x="13.9" y="42.9" width="6.1" height="7"></rect>
                    <rect id="Rectangle" fill="#0034DA" x="13.9" y="55.1" width="6.1" height="7"></rect>
                    <rect id="Rectangle" fill="#0034DA" x="13.9" y="66.3" width="6.1" height="7"></rect>
                    <rect id="Rectangle" fill="#0034DA" x="23.5" y="66.3" width="6.1" height="7"></rect>
                </g>
                <g id="Group" transform="translate(496.000000, 23.000000)" fill-rule="nonzero">
                    <rect id="Rectangle" fill="#0034DA" x="7" y="0" width="5" height="30"></rect>
                    <path d="M10,77 C6.7,77 4,74.3 4,71 L4,14 C4,10.7 6.7,8 10,8 C13.3,8 16,10.7 16,14 L16,71 C16,74.3 13.3,77 10,77 Z" id="Path" fill="#E6288E"></path>
                    <rect id="Rectangle" fill="#0034DA" x="0" y="57" width="16" height="6"></rect>
                </g>
                <polyline id="Path" fill="#0034DA" fill-rule="nonzero" points="477.9 382.5 440 408 440 489 625 489 646 489 530 383"></polyline>
                <polygon id="Path" fill="#0034DA" fill-rule="nonzero" points="465 440 355 432 375 300 450 300"></polygon>
                <path d="M429,210 L369,208 L373,233 L372,304 L451,304 L451,230 L475.1,185.7 C467.3,181.1 459.6,176.4 451.7,171.5 L429,210 Z" id="Path" fill="#EC7463" fill-rule="nonzero"></path>
                <path d="M495,74 L481,74 L469,142 L451.6,171.5 C459.5,176.4 467.2,181.1 475,185.7 L495,149 L495,74 Z" id="Path" fill="url(#linearGradient-11)" fill-rule="nonzero"></path>
                <path d="M374,241 L369,208 L335.7,230.2 C339.5,237.2 343.3,244.2 346.9,251.4 L374,241 Z" id="Path" fill="#EC7463" fill-rule="nonzero"></path>
                <polygon id="Path" fill="#FFFFFF" fill-rule="nonzero" points="446 174 477 192 484 183 450 163"></polygon>
                <polygon id="Path" fill="#F8C688" fill-rule="nonzero" points="397 166 386 209 414 243 429 210 419 166"></polygon>
                <polygon id="Path" fill="url(#linearGradient-12)" fill-rule="nonzero" points="397 166 386 209 414 243 429 210 419 166"></polygon>
                <path d="M445,155 L364,155 C361.2,155 359,152.7 359,150 C359,147.2 361.3,145 364,145 L445,145 C447.8,145 450,147.3 450,150 C450,152.8 447.8,155 445,155 Z" id="Path" fill="#EC7463" fill-rule="nonzero"></path>
                <path d="M416.5,171 L394.5,171 C380.5,171 369,159.5 369,145.5 C369,131.5 380.5,120 394.5,120 L416.5,120 C430.5,120 442,131.5 442,145.5 C442,159.5 430.5,171 416.5,171 Z" id="Path" fill="#F8C688" fill-rule="nonzero"></path>
                <path d="M367,132 L394,132 L397,120 L403,132 L446,132 L443.5,127.3 C436.9,115.2 426.4,108 415.1,108 L397.6,108 C384.9,108 373.2,117.2 367,132 Z" id="Path" fill="#0034DA" fill-rule="nonzero"></path>
                <path d="M397.3,161.3 C400.2,168.8 410.6,168.7 413.1,160.9 C413.7,159.1 410.8,158.3 410.2,160.1 C408.6,164.9 402.1,165.3 400.2,160.5 C399.5,158.7 396.6,159.5 397.3,161.3 Z" id="Path" fill="#0034DA" fill-rule="nonzero"></path>
                <circle id="Oval" fill="url(#radialGradient-5)" fill-rule="nonzero" cx="382.3" cy="144.8" r="10.8"></circle>
                <circle id="Oval" fill="url(#radialGradient-5)" fill-rule="nonzero" cx="429.3" cy="145.8" r="10.8"></circle>
                <polygon id="Path" fill="#FFFFFF" fill-rule="nonzero" points="341 219 358 251 348 254 331 225"></polygon>
                <polygon id="Path" fill="#FFFFFF" fill-rule="nonzero" points="395 243 435 243 429 208 413 240.5 386 208"></polygon>
                <rect id="Rectangle" fill="#FFFFFF" fill-rule="nonzero" x="530.6" y="377" width="61.8" height="90.9"></rect>
                <path d="M582.5,474 L527,474 L527,423.4 L597.3,423.4 L597.3,459.2 C597.3,467.4 590.7,474 582.5,474 Z" id="Path" fill="#E6288E" fill-rule="nonzero"></path>
                <rect id="Rectangle" fill="#E6288E" fill-rule="nonzero" x="562.2" y="404.9" width="35.2" height="28.2"></rect>
                <rect id="Rectangle" fill="#0034DA" fill-rule="nonzero" x="537.9" y="384.3" width="47.3" height="6.1"></rect>
                <rect id="Rectangle" fill="#0034DA" fill-rule="nonzero" x="537.9" y="396.4" width="47.3" height="6.1"></rect>
                <rect id="Rectangle" fill="#0034DA" fill-rule="nonzero" x="537.9" y="408.5" width="21.8" height="6.1"></rect>
                <path d="M604,465 L580,465 L571.2,445.5 C570.3,443.5 570.3,441.4 570.9,439.5 C572.3,435.6 576.5,433.5 580.5,434.5 L604,440 L604,465 Z" id="Path" fill="#F8C688" fill-rule="nonzero"></path>
                <polygon id="Path" fill="#FFFFFF" fill-rule="nonzero" points="477 383 503 405 489 422"></polygon>
                <polyline id="Path" fill="#FFFFFF" fill-rule="nonzero" points="530 383 503 405 516 422"></polyline>
                <polygon id="Path" fill="#F8C688" fill-rule="nonzero" points="477 383 530 383 503 405"></polygon>
                <polygon id="Path" fill="url(#linearGradient-13)" fill-rule="nonzero" points="512 338 493 338 477 383 503 405 530 383"></polygon>
                <circle id="Oval" fill="#FFFFFF" fill-rule="nonzero" cx="503.5" cy="428.5" r="3.5"></circle>
                <circle id="Oval" fill="#FFFFFF" fill-rule="nonzero" cx="503.5" cy="449.5" r="3.5"></circle>
                <circle id="Oval" fill="#FFFFFF" fill-rule="nonzero" cx="503.5" cy="470.5" r="3.5"></circle>
                <polyline id="Path" fill="url(#radialGradient-14)" fill-rule="nonzero" points="481 74 484 49 512 49 507 79 495 74"></polyline>
                <polyline id="Path" stroke="#A241D1" stroke-width="6" points="693 380 729 432 729 489"></polyline>
                <polygon id="Path" fill="url(#linearGradient-15)" fill-rule="nonzero" points="656 381.5 569.2 488 641.5 488 694 424"></polygon>
                <polygon id="Path" fill="#E6288E" fill-rule="nonzero" points="651 380 695.8 428 695.8 380"></polygon>
                <g id="Group" transform="translate(253.000000, 0.000000)" fill-rule="nonzero">
                    <circle id="Oval" fill="url(#radialGradient-16)" cx="60.5" cy="60.5" r="60.5"></circle>
                    <path d="M61,119 C54.9,119 50,114.1 50,108 L50,92 L72,92 L72,108 C72,114.1 67.1,119 61,119 Z" id="Path" fill="#E6288E"></path>
                    <path d="M72.5,102 L50.5,102 C48.6,102 47,100.4 47,98.5 C47,96.6 48.6,95 50.5,95 L72.5,95 C74.4,95 76,96.6 76,98.5 C76,100.4 74.4,102 72.5,102 Z" id="Path" fill="#E6288E"></path>
                    <path d="M72.5,109 L50.5,109 C48.6,109 47,107.4 47,105.5 C47,103.6 48.6,102 50.5,102 L72.5,102 C74.4,102 76,103.6 76,105.5 C76,107.4 74.4,109 72.5,109 Z" id="Path" fill="#E6288E"></path>
                    <rect id="Rectangle" fill="#FFFFFF" x="50" y="76" width="22" height="16"></rect>
                    <path d="M60.5,86 C50.3,86 42,77.7 42,67.5 L42,57.5 C42,47.3 50.3,39 60.5,39 C70.7,39 79,47.3 79,57.5 L79,67.5 C79,77.7 70.7,86 60.5,86 Z" id="Path" fill="#FFFFFF"></path>
                </g>
                <g id="Group" transform="translate(460.000000, 256.000000)" fill-rule="nonzero">
                    <path d="M5,63.2 L82,63.2 C84.8,63.2 87,60.9 87,58.2 L87,54.8 C87,52 84.7,49.8 82,49.8 L5,49.8 C2.2,49.8 0,52 0,54.8 L0,58.2 C0,61 2.3,63.2 5,63.2 Z" id="Path" fill="url(#linearGradient-17)"></path>
                    <path d="M42.6,90 L44.3,90 C61.5,90 75.5,76 75.5,58.8 L75.5,17.1 C75.5,9.3 69.2,2.9 61.3,2.9 L25.6,2.9 C17.8,2.9 11.4,9.2 11.4,17.1 L11.4,58.8 C11.5,76 25.4,90 42.6,90 Z" id="Path" fill="#F8C688"></path>
                    <path d="M22.9,0.1 L65,0.1 L75.5,0.1 L76.5,0.1 L76.5,44.8 C76.5,47.9 74.1,50.7 70.9,50.8 C67.7,50.9 65,48.3 65,45.1 L65,21.4 C60.5,24.8 54.9,26.9 48.7,26.9 L38.2,26.9 C32.5,26.9 27.2,25.1 22.9,22.1 L22.9,44.8 C22.9,47.9 20.5,50.7 17.3,50.8 C14.1,50.9 11.4,48.3 11.4,45.1 L11.4,11.6 C11.5,5.3 16.6,0.1 22.9,0.1 Z" id="Path" fill="#0034DA"></path>
                    <path d="M48.5,75.2 C46.7,79.8 40.5,79.4 39,74.8 C38.4,73 35.5,73.8 36.1,75.6 C38.6,83.1 48.5,83.2 51.4,76 C52.1,74.2 49.2,73.4 48.5,75.2 Z" id="Path" fill="#0034DA"></path>
                </g>
                <path d="M702.5,326.5 L707.5,326.5" id="Path" stroke="#FFFFFF" stroke-width="2" fill="#FFFFFF" fill-rule="nonzero"></path>
                <path d="M703,335.5 L708,335.5" id="Path" stroke="#FFFFFF" stroke-width="2" fill="#FFFFFF" fill-rule="nonzero"></path>
                <path d="M703,344.5 L708,344.5" id="Path" stroke="#FFFFFF" stroke-width="2" fill="#FFFFFF" fill-rule="nonzero"></path>
                <path d="M703,353.5 L708,353.5" id="Path" stroke="#FFFFFF" stroke-width="2" fill="#FFFFFF" fill-rule="nonzero"></path>
                <path d="M703,363 L708,363" id="Path" stroke="#FFFFFF" stroke-width="2" fill="#FFFFFF" fill-rule="nonzero"></path>
                <g id="Group" transform="translate(0.000000, 390.000000)" stroke="#FFFFFF" stroke-width="4">
                    <polyline id="Path" points="43.3 0.7 58 17.3 43.3 30.7"></polyline>
                </g>
                <g id="Group" transform="translate(742.000000, 354.000000)" stroke="#FFFFFF" stroke-width="4">
                    <polyline id="Path" points="1 15 14 35 37 0"></polyline>
                    <circle id="Oval" cx="14.5" cy="32.5" r="14.5"></circle>
                </g>
                <rect id="Rectangle" fill="#0034DA" fill-rule="nonzero" x="671" y="475" width="62" height="14"></rect>
                <rect id="Rectangle" fill="#FFFFFF" fill-rule="nonzero" transform="translate(607.500000, 453.000000) rotate(-90.000000) translate(-607.500000, -453.000000) " x="590.5" y="445.5" width="34" height="15"></rect>
                <g id="Group" transform="translate(434.000000, 339.000000)" fill-rule="nonzero">
                    <rect id="Rectangle" fill="#E6288E" x="8" y="0" width="31.8" height="53"></rect>
                    <path d="M31,59 L2,59 L2,30 C18,30 31,43 31,59 Z" id="Path" fill="#F8C688"></path>
                    <rect id="Rectangle" fill="#FFFFFF" x="0" y="59" width="34" height="15"></rect>
                    <circle id="Oval" fill="#FFFFFF" cx="24.5" cy="7.5" r="2.5"></circle>
                </g>
                <path d="M534,88 L539.5,77.3 C542.8,70.9 538,63.3 530.8,63.5 L516.5,64 L519,96 L534,88 Z" id="Path" fill="url(#radialGradient-18)" fill-rule="nonzero"></path>
                <path d="M408.8,345.1 C408.8,345.8 408.8,346.5 408.8,347.2 C408.8,348.1 408.6,348.3 407.7,348.4 C406.9,348.5 406.1,348.6 405.2,348.7 C404.6,348.7 404.3,349 404.1,349.6 C403.9,350.2 403.7,350.8 403.4,351.3 C403,351.9 403.2,352.5 403.6,353 C404.1,353.6 404.5,354.2 405,354.7 C405.6,355.5 405.6,355.7 404.9,356.4 C403.9,357.4 403,358.3 402,359.3 C401.2,360.1 401.1,360.1 400.3,359.4 C399.6,358.8 399,358.2 398.2,357.8 C397.9,357.6 397.4,357.6 397.1,357.7 C396.6,357.8 396.1,358.2 395.5,358.4 C394.5,358.6 394.2,359.2 394.1,360.2 C394.1,360.9 393.9,361.7 393.9,362.4 C393.9,363 393.5,363.2 393,363.3 C391.4,363.3 389.8,363.3 388.2,363.3 C387.7,363.3 387.4,363 387.3,362.4 C387.2,361.5 387.1,360.6 387,359.7 C386.9,359.1 386.6,358.7 386,358.5 C385.4,358.3 384.8,358.1 384.3,357.8 C383.7,357.5 383.3,357.6 382.8,358 C382.1,358.6 381.4,359.1 380.7,359.7 C380.3,360.1 379.9,360 379.5,359.6 C378.4,358.5 377.3,357.4 376.2,356.3 C375.7,355.8 375.8,355.4 376.2,354.9 C376.8,354.2 377.3,353.5 377.9,352.8 C378.2,352.4 378.3,352 378,351.5 C377.8,351.1 377.5,350.6 377.4,350.2 C377.2,349.1 376.5,348.7 375.4,348.7 C374.7,348.7 374,348.6 373.3,348.5 C372.8,348.4 372.5,348.2 372.5,347.7 C372.5,346.1 372.5,344.4 372.5,342.8 C372.5,342.3 372.8,342 373.3,342 C374.2,341.9 375.1,341.8 376,341.7 C376.6,341.6 377,341.3 377.2,340.8 C377.4,340.2 377.7,339.5 378,338.9 C378.3,338.4 378.2,338 377.9,337.6 C377.3,336.9 376.8,336.2 376.3,335.6 C375.9,335.1 375.8,334.6 376.3,334.1 C377.4,333.1 378.4,332 379.5,330.9 C380,330.4 380.4,330.4 380.9,330.8 C381.6,331.4 382.3,331.9 382.9,332.5 C383.4,332.9 383.8,332.9 384.4,332.6 C384.9,332.3 385.4,332.1 385.9,332 C386.7,331.8 387.1,331.3 387.1,330.5 C387.2,329.7 387.3,328.9 387.4,328.1 C387.4,327.5 387.7,327.2 388.3,327.2 C389.9,327.2 391.5,327.2 393.1,327.2 C393.7,327.2 394,327.6 394,328.1 C394.1,329 394.2,329.8 394.3,330.7 C394.3,331.3 394.6,331.7 395.2,331.9 C395.9,332.1 396.5,332.5 397.1,332.7 C397.4,332.8 397.9,332.8 398.2,332.6 C398.9,332.1 399.6,331.5 400.3,330.9 C400.9,330.4 401.3,330.4 401.9,331 C402.9,332 404,333.1 405,334.1 C405.5,334.6 405.5,335 405.1,335.6 C404.6,336.2 404.1,336.9 403.5,337.5 C403.1,338 403,338.5 403.3,339 C403.5,339.3 403.7,339.7 403.8,340.1 C404,341.4 404.9,341.9 406.1,341.9 C406.7,341.9 407.2,342 407.8,342.1 C408.5,342.1 408.8,342.5 408.8,343.2 C408.7,343.6 408.8,344.4 408.8,345.1 Z M390.7,352.5 C394.7,352.5 398.1,349.1 398.1,345.1 C398.1,341.1 394.8,337.7 390.7,337.7 C386.5,337.7 383.3,340.9 383.2,345.1 C383.2,349.1 386.6,352.5 390.7,352.5 Z" id="Shape" fill="#A241D1" fill-rule="nonzero"></path>
                <path d="M375.8,371.8 C375.8,372.3 375.8,372.8 375.8,373.3 C375.8,374 375.7,374.1 375,374.2 C374.4,374.3 373.8,374.4 373.2,374.4 C372.8,374.4 372.5,374.7 372.4,375.1 C372.2,375.5 372.1,376 371.9,376.4 C371.6,376.9 371.7,377.3 372.1,377.6 C372.5,378 372.8,378.5 373.1,378.9 C373.6,379.5 373.6,379.6 373,380.1 C372.3,380.8 371.6,381.5 370.9,382.2 C370.3,382.8 370.2,382.8 369.6,382.3 C369.1,381.9 368.6,381.5 368.1,381.1 C367.9,381 367.5,381 367.3,381 C366.9,381.1 366.6,381.4 366.2,381.5 C365.5,381.7 365.2,382.1 365.2,382.8 C365.2,383.3 365.1,383.9 365,384.4 C365,384.8 364.7,385 364.3,385 C363.1,385 362,385 360.8,385 C360.4,385 360.2,384.8 360.1,384.4 C360,383.7 359.9,383.1 359.9,382.4 C359.9,382 359.6,381.7 359.2,381.5 C358.8,381.4 358.3,381.2 357.9,381 C357.5,380.8 357.2,380.9 356.8,381.1 C356.3,381.5 355.8,381.9 355.3,382.3 C355,382.6 354.7,382.5 354.4,382.2 C353.6,381.4 352.8,380.6 351.9,379.8 C351.6,379.5 351.6,379.1 351.9,378.8 C352.3,378.3 352.7,377.8 353.1,377.3 C353.3,377 353.4,376.7 353.2,376.4 C353,376.1 352.8,375.8 352.8,375.4 C352.6,374.6 352.1,374.3 351.4,374.3 C350.9,374.3 350.3,374.2 349.8,374.1 C349.4,374.1 349.2,373.8 349.2,373.5 C349.2,372.3 349.2,371.1 349.2,369.9 C349.2,369.5 349.4,369.3 349.8,369.3 C350.5,369.2 351.1,369.1 351.8,369.1 C352.2,369.1 352.5,368.8 352.7,368.4 C352.9,367.9 353,367.5 353.3,367 C353.5,366.6 353.4,366.4 353.2,366.1 C352.8,365.6 352.4,365.1 352,364.6 C351.7,364.2 351.7,363.9 352,363.5 C352.8,362.7 353.6,362 354.3,361.2 C354.6,360.8 355,360.8 355.3,361.1 C355.8,361.5 356.3,361.9 356.8,362.3 C357.2,362.6 357.5,362.6 357.9,362.4 C358.2,362.2 358.6,362 359,361.9 C359.6,361.7 359.9,361.4 359.9,360.8 C359.9,360.2 360,359.6 360.1,359.1 C360.1,358.7 360.4,358.5 360.7,358.5 C361.9,358.5 363,358.5 364.2,358.5 C364.6,358.5 364.8,358.8 364.9,359.2 C365,359.8 365.1,360.5 365.1,361.1 C365.1,361.6 365.3,361.8 365.8,362 C366.3,362.2 366.7,362.4 367.2,362.6 C367.5,362.7 367.8,362.7 368,362.5 C368.6,362.1 369,361.7 369.6,361.3 C370,361 370.4,361 370.7,361.3 C371.5,362.1 372.2,362.8 373,363.6 C373.4,364 373.4,364.3 373,364.7 C372.6,365.2 372.2,365.6 371.9,366.1 C371.6,366.5 371.5,366.8 371.8,367.2 C371.9,367.4 372.1,367.7 372.1,368 C372.3,369 372.9,369.3 373.8,369.3 C374.2,369.3 374.6,369.4 375,369.4 C375.5,369.4 375.7,369.7 375.7,370.2 C375.8,370.7 375.8,371.3 375.8,371.8 Z M362.5,377.2 C365.5,377.2 368,374.7 368,371.7 C368,368.7 365.6,366.2 362.6,366.3 C359.5,366.3 357.2,368.6 357.1,371.8 C357,374.7 359.5,377.2 362.5,377.2 Z" id="Shape" fill="#A241D1" fill-rule="nonzero"></path>
                <polygon id="Path" fill="#FFFFFF" fill-rule="nonzero" points="393.4 304 401 297 400.4 288.9 393.6 289.4 393.9 294.2 391.1 296.8 384.9 296.1 383.2 294.2 383 288 385.9 285.4 390.7 286.2 391.8 279.5 383.8 278.1 376.1 285.1 376.4 294.1 357.2 311.5 348.3 310.5 340.6 317.4 341.2 325.6 348 325.1 347.7 320.2 350.6 317.6 356.7 318.3 358.5 320.2 358.6 326.4 355.7 329.1 350.9 328.3 349.8 335 357.9 336.3 365.5 329.4 365.3 320.4 384.4 302.9"></polygon>
                <g id="Group" transform="translate(188.000000, 278.000000)" fill-rule="nonzero">
                    <polygon id="Path" fill="#0034DA" points="89 23 0 159 108 159 116 27"></polygon>
                    <polygon id="Path" fill="#F8C688" points="106 73 98 118 139 118 124 69"></polygon>
                    <polyline id="Path" fill="#E6288E" points="54 199 111 182 110 212 27 212 87 117 148 117 160 136"></polyline>
                    <polygon id="Path" fill="url(#linearGradient-19)" points="159 212 33 212 38.7 198.3 160 132"></polygon>
                    <polygon id="Path" fill="url(#linearGradient-20)" points="106 72 98 117 139 117 124 68"></polygon>
                    <path d="M149.4,46.2 L74.6,46.2 C72.1,46.2 70,44.1 70,41.6 C70,39.1 72.1,37 74.6,37 L149.4,37 C151.9,37 154,39.1 154,41.6 C154,44.1 151.9,46.2 149.4,46.2 Z" id="Path" fill="#EC7463"></path>
                    <path d="M121.1,72 L104.7,72 C90.7,72 79.2,60.5 79.2,46.5 L79.2,39.3 C79.2,25.3 90.7,13.8 104.7,13.8 L121.1,13.8 C135.1,13.8 146.6,25.3 146.6,39.3 L146.6,46.5 C146.6,60.5 135.1,72 121.1,72 Z" id="Path" fill="#F8C688"></path>
                    <path d="M94.9,36.9 C86.7,36.9 80.1,30.3 80.1,22.1 C80.1,13.9 86.7,7.3 94.9,7.3 C103.1,7.3 109.7,13.9 109.7,22.1 C109.7,30.3 103.1,36.9 94.9,36.9 Z" id="Path" fill="#0034DA"></path>
                    <path d="M138.3,36.9 L131.8,36.9 C117.6,36.9 106,25.3 106,11.1 C106,5 111,-5.68434189e-14 117.1,-5.68434189e-14 L123.6,-5.68434189e-14 C137.8,-5.68434189e-14 149.4,11.6 149.4,25.8 C149.4,31.9 144.4,36.9 138.3,36.9 Z" id="Path" fill="#0034DA"></path>
                    <polygon id="Path" fill="#0034DA" points="79.2 36.9 94.9 36.9 80.2 22.2"></polygon>
                    <path d="M108.9,63.1 C111.7,70.2 121.3,70.1 123.7,62.8 C124.3,61 121.4,60.2 120.8,62 C119.4,66.3 113.5,66.7 111.8,62.3 C111.1,60.5 108.2,61.3 108.9,63.1 Z" id="Path" fill="#0034DA"></path>
                    <circle id="Oval" fill="url(#radialGradient-21)" cx="95.2" cy="52.4" r="9.9"></circle>
                    <circle id="Oval" fill="url(#radialGradient-22)" cx="136.7" cy="52.4" r="9.9"></circle>
                    <path d="M150,212 L110,212 L110,182 L120,182 C136.6,182 150,195.4 150,212 Z" id="Path" fill="#F8C688"></path>
                    <polygon id="Path" fill="url(#linearGradient-23)" points="110 182 72 182 106 150"></polygon>
                    <path d="M102.5,145 C98.9,145 96,142.1 96,138.5 C96,134.9 98.9,132 102.5,132 C106.1,132 109,134.9 109,138.5 C109,142.1 106.1,145 102.5,145 Z" id="Path" fill="#FFFFFF"></path>
                    <path d="M113.5,145 C109.9,145 107,142.1 107,138.5 C107,134.9 109.9,132 113.5,132 C117.1,132 120,134.9 120,138.5 C120,142.1 117.1,145 113.5,145 Z" id="Path" fill="#FFFFFF"></path>
                    <rect id="Rectangle" fill="#EC7463" x="148" y="201" width="28" height="11"></rect>
                    <g transform="translate(159.000000, 114.000000)">
                        <rect id="Rectangle" fill="#EC7463" x="0" y="0" width="96" height="98"></rect>
                        <rect id="Rectangle" fill="url(#linearGradient-24)" opacity="0.61" x="0" y="0" width="95" height="98"></rect>
                        <circle id="Oval" fill="#FFFFFF" cx="52" cy="34" r="13"></circle>
                    </g>
                </g>
                <rect id="Rectangle" fill="#A241D1" fill-rule="nonzero" x="679" y="470" width="21" height="5"></rect>
                <g id="Group" transform="translate(607.000000, 423.000000)" fill-rule="nonzero">
                    <rect id="Rectangle" fill="#E6288E" x="12.1" y="58.7" width="22.6" height="7.3"></rect>
                    <path d="M33.9,59.5 L12.1,59.5 C5.4,59.5 0,54.1 0,47.4 C0,40.7 5.4,35.3 12.1,35.3 L33.9,35.3 C40.6,35.3 46,40.7 46,47.4 C46,54.1 40.6,59.5 33.9,59.5 Z" id="Path" fill="#E6288E"></path>
                    <path d="M14.8,20.3 L8,20.3 L8,8.5 C8,6.6 9.5,5.1 11.4,5.1 C13.3,5.1 14.8,6.6 14.8,8.5 L14.8,20.3 Z" id="Path" fill="#5AFF96"></path>
                    <path d="M28.3,20.3 L21.5,20.3 L21.5,8.5 C21.5,6.6 23,5.1 24.9,5.1 C26.8,5.1 28.3,6.6 28.3,8.5 L28.3,20.3 Z" id="Path" fill="#5AFF96"></path>
                    <path d="M35.1,22 L28.3,22 L28.3,10.2 C28.3,8.3 29.8,6.8 31.7,6.8 C33.6,6.8 35.1,8.3 35.1,10.2 L35.1,22 Z" id="Path" fill="#5AFF96"></path>
                    <path d="M21.5,22 L14.7,22 L14.7,3.4 C14.7,1.5 16.2,0 18.1,0 C20,0 21.5,1.5 21.5,3.4 L21.5,22 Z" id="Path" fill="#5AFF96"></path>
                    <polyline id="Path" fill="#E6288E" points="10.5 38.6 4 20 40.4 20 32.3 41.8"></polyline>
                </g>
                <g id="Group" transform="translate(704.000000, 181.000000)" fill-rule="nonzero">
                    <g id="Path">
                        <polygon fill="#0034DA" points="41.1 88.4 14.9 88.4 9.3 71.6 46.7 71.6"></polygon>
                        <polygon fill="#0034DA" points="9.3 71.6 28 0.7 46.7 71.6"></polygon>
                        <polygon fill="#A241D1" points="9.3 71.6 0 98.7 14.9 88.4"></polygon>
                        <polygon fill="#A241D1" points="46.7 71.6 56 98.7 41.1 88.4"></polygon>
                        <polygon fill="#E6288E" points="19.6 91.2 38.3 91.2 46.7 112.7 35.5 108 35.5 136 27.1 110.8 19.6 122 19.6 101.5 9.3 105.2"></polygon>
                    </g>
                    <circle id="Oval" fill="#A241D1" cx="28" cy="70.7" r="5.6"></circle>
                    <circle id="Oval" fill="#A241D1" cx="28" cy="52" r="5.6"></circle>
                </g>
                <g id="Group" transform="translate(98.000000, 426.000000)" fill-rule="nonzero">
                    <path d="M64,39 L28,39 L28,29 C28,20.2 35.2,13 44,13 L48,13 C56.8,13 64,20.2 64,29 L64,39 Z" id="Path" fill="#EC7463"></path>
                    <path d="M44,46 L8,46 L8,40 C8,31.2 15.2,24 24,24 L28,24 C36.8,24 44,31.2 44,40 L44,46 Z" id="Path" fill="#E6288E"></path>
                    <path d="M80,46 L44,46 L44,40 C44,31.2 51.2,24 60,24 L64,24 C72.8,24 80,31.2 80,40 L80,46 Z" id="Path" fill="#5AFF96"></path>
                    <polygon id="Path" fill="#EC7463" points="0 42 92 42 71 64 19 64"></polygon>
                    <path d="M67.4,41.4 L59.6,33.6 C58.9,32.9 58.9,31.8 59.6,31.1 L73.8,16.9 C76.6,14.1 81.2,14.1 84.1,16.9 C86.9,19.7 86.9,24.3 84.1,27.2 L69.9,41.4 C69.2,42.1 68.1,42.1 67.4,41.4 Z" id="Path" fill="#5AFF96"></path>
                    <path d="M52,19 L38,19 L38,7 C38,3.1 41.1,0 45,0 C48.9,0 52,3.1 52,7 L52,19 Z" id="Path" fill="#EC7463"></path>
                </g>
                <rect id="Rectangle" fill="#FFFFFF" fill-rule="nonzero" x="143" y="314" width="4" height="19"></rect>
                <path d="M379,304 C379,315.2 367.4,322.6 357.2,317.9 L353,316 L359.2,282.4 L379,303.2" id="Path" fill="#F8C688" fill-rule="nonzero"></path>
            </g>
        </g>
    </g>
</svg>