<?xml version="1.0" encoding="UTF-8"?>
<svg width="730px" height="581px" viewBox="0 0 730 581" version="1.1" xmlns="http://www.w3.org/2000/svg" xmlns:xlink="http://www.w3.org/1999/xlink">
    <!-- Generator: Sketch 52.6 (67491) - http://www.bohemiancoding.com/sketch -->
    <title>Group</title>
    <desc>Created with Sketch.</desc>
    <defs>
        <path d="M72.73932,0.6564 L82.02456,14.3856 L87.92088,2.7216 L104.22324,2.49 L113.05572,19.4088 L118.71588,15.0696 L129.1248,14.8416 L140.6814,29.0088 L164.3652,83.8824 L164.00508,163.8948 L175.2882,433.2 L35.7492,433.2 L60.8028,176.9304 L10.4724,126.8604 L0.05604,48.21 L10.0212,42.4872 L8.88408,25.3536 L16.8096,10.0368 L34.47756,7.5216 L46.7334,23.3796 L47.8362,19.8756 L56.89584,3.4104 L72.73932,0.6564 Z M69.8424,185.9232 L69.81204,238.14 L72.28356,188.3508 L69.8424,185.9232 Z M69.90384,83.838 L60.8028,176.9304 L69.8424,185.9232 L69.90384,83.838 Z" id="path-1"></path>
        <path d="M73.22012,0.6564 L79.82792,20.7768 L79.82792,50.2764 L76.96892,67.0056 L62.91908,69.2016 L52.4978,61.4664 L65.36312,28.6452 L45.43304,62.1228 L23.78936,65.1228 L39.2882,74.0436 L41.78948,96.222 L28.35584,107.4276 L41.56844,101.2488 L39.7436,116.5692 L45.89,103.7652 L67.07972,101.2488 C67.07972,101.2488 103.0664,122.5128 102.84092,123.1956 C102.611,123.888 120.83804,149.2608 120.83804,149.2608 L96.23168,90.2748 L141.56636,88.9044 L147.89,108.5556 L142.17356,164.4504 L124.25312,175.2588 L135.97916,178.944 L109.2098,190.9788 L112.86536,264.7992 L139.22,369.1644 L141.56636,392.8884 L126.326,433.2 L36.00992,433.2 L70.27544,238.14 L72.7616,188.3508 L10.58276,126.8604 L0.10436,48.21 L10.11224,42.4932 L8.98496,25.3536 L16.95752,10.0368 L34.73072,7.5216 L45.4826,26.9436 L46.00424,26.7168 L48.1688,19.8756 L57.28232,3.4104 L73.22012,0.6564 Z M101.59232,188.2392 L100.46624,201.03 L103.45868,297.4788 L103.77488,195.6156 L101.59232,188.2392 Z M107.08352,161.7576 L97.12052,178.7748 L73.99724,182.7228 L107.08352,180.2352 L107.08352,161.7576 Z" id="path-3"></path>
        <polygon id="path-5" points="81.66 0.0756 92.07516 15.3072 98.68968 2.3652 116.9736 2.1096 126.87732 20.8812 133.22808 16.0668 144.90684 15.8136 157.87356 31.5348 184.434 92.4192 184.029 181.194 196.6902 480 40.164 480 78.37632 263.5716 81.15 208.3284 11.8122 140.1036 0.12528 52.8372 11.30208 46.4892 10.03032 27.4788 18.92328 10.4832 38.73612 7.6932 52.4874 25.2888 53.7228 21.3972 63.88356 3.1296"></polygon>
        <polygon id="path-7" points="21.31184 0.0756 25.9022 9.1584 23.49416 44.9172 23.49416 66.588 12.95216 78.0252 -0.0016 71.6148 -0.0016 15.6924 3.88184 0.3312"></polygon>
        <polygon id="path-9" points="23.19804 0.96 35.87244 16.6992 29.15832 45.9096 17.00088 57.5112 6.43116 52.836 0.82596 44.8896 11.78244 1.2132"></polygon>
        <path d="M80.79156,0.0756 L88.08,22.398 L88.08,55.1292 L84.92712,73.6932 L69.42228,76.1292 L57.93048,67.548 L72.1212,31.1304 L50.13348,68.2728 L26.25384,71.6052 L43.3524,81.5028 L46.11912,106.11 L31.29468,118.5432 L45.8688,111.6876 L43.857,128.6844 L50.63808,114.48 L74.01312,111.6876 C74.01312,111.6876 113.71584,135.282 113.46684,136.038 C113.21388,136.8072 133.32288,164.958 133.32288,164.958 L106.17444,99.51 L156.19332,97.9872 L163.16748,119.7948 L156.86172,181.8096 L137.0922,193.8048 L150.02472,197.8908 L120.49296,211.2468 L124.52592,293.1516 L153.597,408.9492 L156.19332,435.2748 L139.37568,480 L39.73752,480 L77.5428,263.5716 L80.28696,208.3284 L11.68776,140.1036 L0.12528,52.8372 L11.17104,46.4964 L9.92484,27.4788 L18.72312,10.4832 L38.32476,7.6932 L50.18808,29.244 L50.766,28.9908 L53.15196,21.3972 L63.20436,3.1296 L80.79156,0.0756 Z M111.90372,207.9768 L110.48172,222.15 L114.26304,328.986 L114.66384,216.1536 L111.90372,207.9768 Z M117.99384,178.542 L107.0532,197.6184 L81.64644,202.044 L117.99384,199.254 L117.99384,178.542 Z" id="path-11"></path>
        <polygon id="path-13" points="8.085 0.4668 20.72988 127.326 6.79272 49.4664 0.921 6.426"></polygon>
        <path d="M86.59904,0.9216 L97.65908,17.2704 L104.68508,3.3816 L124.10312,3.1044 L134.62304,23.2512 L141.36692,18.0852 L153.76976,17.814 L167.53748,34.6848 L195.74864,100.0284 L195.31784,195.306 L208.76288,516 L42.528224,516 L42.3884,181.008 L12.41756,151.206 L0.008048,57.5484 L11.878448,50.736 L10.524644,30.3312 L19.969556,12.0924 L41.011484,9.0972 L55.615724,27.9816 L56.925788,23.8068 L67.72016,4.2 L86.59904,0.9216 Z M69.4268,207.8928 L83.10848,283.7196 L86.05664,224.4288 L69.4268,207.8928 Z M42.337616,57.7524 L42.3884,181.008 L69.4268,207.8928 L42.337616,57.7524 Z" id="path-15"></path>
        <polygon id="path-17" points="24.59652 0.3792 29.72748 10.1736 27.03204 48.738 27.03204 72.108 15.25068 84.4416 0.77604 77.5284 0.77604 17.22 5.11608 0.6552"></polygon>
        <polygon id="path-19" points="24.92388 0.9348 38.69772 17.9484 31.40268 49.5276 18.18576 62.0712 6.69744 57.0144 0.60372 48.4248 12.51552 1.2084"></polygon>
        <path d="M87.02184,0.9216 L94.82868,24.8796 L94.82868,60.0096 L91.4514,79.932 L74.83668,82.5468 L62.523732,73.3356 L77.73252,34.2516 L54.169968,74.1156 L28.58142,77.6892 L46.904484,88.3116 L49.865916,114.7224 L33.9825,128.0664 L49.601748,120.7092 L47.444808,138.9504 L54.710292,123.7068 L79.7574,120.7092 C79.7574,120.7092 122.30124,146.0304 122.03496,146.8452 C121.76424,147.6696 143.30964,177.882 143.30964,177.882 L114.22152,107.6388 L167.81424,106.0068 L175.2882,129.4116 L168.53028,195.9684 L147.34836,208.8396 L161.20584,213.228 L129.56352,227.5596 L133.88172,315.4644 L165.03612,439.7436 L167.81424,467.9988 L149.79564,516 L43.030512,516 L83.53752,283.7196 L86.4804,224.4288 L12.974184,151.206 L0.587076,57.5484 L12.42294,50.7432 L11.084676,30.3312 L20.51256,12.0924 L41.516508,9.0972 L54.230004,32.2272 L54.847824,31.9524 L57.402096,23.8068 L68.17692,4.2 L87.02184,0.9216 Z M119.6514,223.7184 L118.1532,238.9608 L122.13168,353.8668 L122.5482,232.512 L119.6514,223.7184 Z M126.9432,192.8352 L115.03788,213.426 L87.3882,218.2032 L126.9432,215.1924 L126.9432,192.8352 Z" id="path-21"></path>
        <polygon id="path-23" points="8.18904 0.126 21.80268 136.1556 6.7956 52.668 0.47004 6.5172"></polygon>
        <polygon id="path-25" points="95.55528 0.3408 107.66616 18.192 115.35708 3.0252 136.6182 2.7228 148.13544 24.7248 155.52024 19.0812 169.09992 18.786 184.17372 37.2084 215.06112 108.5628 214.59048 212.6076 229.31244 562.8 47.30436 562.8 91.734 309.1524 94.96248 244.4064 14.33592 164.448 0.74868 62.1756 13.74576 54.738 12.2676 32.4552 22.60524 12.5364 45.64476 9.2676 61.632 29.8872 63.06948 25.3308 74.88432 3.9192"></polygon>
        <polygon id="path-27" points="26.38596 0.6696 32.05824 11.3556 29.07912 53.4252 29.07912 78.9192 16.05744 92.3748 0.05928 84.8352 0.05928 19.0416 4.85556 0.9708"></polygon>
        <path d="M28.28832,36.4728 L43.5234,54.8208 L35.45544,88.8792 L20.83488,102.4044 L10.8384,51.162 L14.56332,36.7668 L28.28832,36.4728 Z M6.0744,69.5748 L8.1264,96.9528 L1.3878,87.6864 L6.0744,69.5748 Z M0.85824,0 L10.8384,51.162 L6.0744,69.5748 L0.85824,0 Z" id="path-29"></path>
        <path d="M95.92356,0.3408 L104.50308,26.5032 L104.50308,64.8624 L100.794,86.6196 L82.53756,89.4732 L69.00612,79.416 L85.719,36.7344 L59.82696,80.2668 L31.71168,84.1692 L51.843,95.7696 L55.10016,124.6092 L37.64652,139.1808 L54.8088,131.1468 L52.43772,151.068 L60.42156,134.418 L87.9414,131.1468 C87.9414,131.1468 134.68944,158.7984 134.3964,159.684 C134.09568,160.5864 157.77216,193.5792 157.77216,193.5792 L125.81016,116.8764 L184.69812,115.0908 L192.90792,140.6472 L185.48472,213.3288 L162.21012,227.3868 L177.43548,232.1748 L142.67004,247.8288 L147.41292,343.818 L181.64568,479.5296 L184.69812,510.3816 L164.89968,562.8 L47.58768,562.8 L92.09556,309.1524 L95.3298,244.4064 L14.56128,164.448 L0.95004,62.1756 L13.95552,54.744 L12.48924,32.4552 L22.84512,12.5364 L45.9252,9.2676 L59.89488,34.524 L60.57204,34.2252 L63.38052,25.3308 L75.21624,3.9192 L95.92356,0.3408 Z M132.97452,243.5964 L131.48148,260.226 L135.45036,385.5864 L135.86904,253.1916 L132.97452,243.5964 Z M140.2566,209.4744 L127.37952,231.8124 L97.47744,236.9916 L140.2566,233.7264 L140.2566,209.4744 Z" id="path-31"></path>
        <polygon id="path-33" points="8.66952 0.8712 23.25708 149.1288 7.17552 58.134 0.40068 7.8348"></polygon>
    </defs>
    <g id="Page-1" stroke="none" stroke-width="1" fill="none" fill-rule="evenodd">
        <g id="Sign-in" transform="translate(0.000000, -443.000000)">
            <g id="Group" transform="translate(0.000000, 443.000000)">
                <g id="Group-338" transform="translate(554.600000, 147.600000)">
                    <mask id="mask-2" fill="white">
                        <use xlink:href="#path-1"></use>
                    </mask>
                    <g id="Clip-337"></g>
                    <polygon id="Fill-336" fill="#ED7463" mask="url(#mask-2)" points="-11.94396 445.2 187.2882 445.2 187.2882 -11.34312 -11.94396 -11.34312"></polygon>
                </g>
                <g id="Group-347" transform="translate(553.200000, 147.600000)">
                    <mask id="mask-4" fill="white">
                        <use xlink:href="#path-3"></use>
                    </mask>
                    <g id="Clip-346"></g>
                    <polygon id="Fill-345" fill="#F7BE72" mask="url(#mask-4)" points="-11.89564 445.2 159.89 445.2 159.89 -11.34312 -11.89564 -11.34312"></polygon>
                </g>
                <g id="Group-380" transform="translate(193.400000, 100.800000)">
                    <mask id="mask-6" fill="white">
                        <use xlink:href="#path-5"></use>
                    </mask>
                    <g id="Clip-379"></g>
                    <polygon id="Fill-378" fill="#ED7463" mask="url(#mask-6)" points="-11.87472 492 208.69008 492 208.69008 -11.92416 -11.87472 -11.92416"></polygon>
                </g>
                <g id="Group-383" transform="translate(288.000000, 100.800000)">
                    <mask id="mask-8" fill="white">
                        <use xlink:href="#path-7"></use>
                    </mask>
                    <g id="Clip-382"></g>
                    <polygon id="Fill-381" fill="#F7BE72" mask="url(#mask-8)" points="-12.0016 90.0252 37.902284 90.0252 37.902284 -11.924268 -12.0016 -11.924268"></polygon>
                </g>
                <g id="Group-386" transform="translate(314.600000, 115.200000)">
                    <mask id="mask-10" fill="white">
                        <use xlink:href="#path-9"></use>
                    </mask>
                    <g id="Clip-385"></g>
                    <polygon id="Fill-384" fill="#F7BE72" mask="url(#mask-10)" points="-11.17404 69.5112 47.872392 69.5112 47.872392 -11.040384 -11.17404 -11.040384"></polygon>
                </g>
                <g id="Group-389" transform="translate(193.400000, 100.800000)">
                    <mask id="mask-12" fill="white">
                        <use xlink:href="#path-11"></use>
                    </mask>
                    <g id="Clip-388"></g>
                    <polygon id="Fill-387" fill="#F7BE72" mask="url(#mask-12)" points="-11.87472 492 175.16736 492 175.16736 -11.92416 -11.87472 -11.92416"></polygon>
                </g>
                <g id="Group-392" transform="translate(320.600000, 331.200000)">
                    <mask id="mask-14" fill="white">
                        <use xlink:href="#path-13"></use>
                    </mask>
                    <g id="Clip-391"></g>
                    <polygon id="Fill-390" fill="#F7BE72" mask="url(#mask-14)" points="-11.079 139.326 32.729856 139.326 32.729856 -11.53296 -11.079 -11.53296"></polygon>
                </g>
                <g id="Group-395" transform="translate(0.000000, 64.800000)">
                    <mask id="mask-16" fill="white">
                        <use xlink:href="#path-15"></use>
                    </mask>
                    <g id="Clip-394"></g>
                    <polygon id="Fill-393" fill="#540E31" mask="url(#mask-16)" points="-11.991952 528 220.762928 528 220.762928 -11.07792 -11.991952 -11.07792"></polygon>
                </g>
                <g id="Group-398" transform="translate(61.400000, 68.400000)">
                    <mask id="mask-18" fill="white">
                        <use xlink:href="#path-17"></use>
                    </mask>
                    <g id="Clip-397"></g>
                    <polygon id="Fill-396" fill="#EA288B" mask="url(#mask-18)" points="-11.22396 96.4416 41.727444 96.4416 41.727444 -11.621556 -11.22396 -11.621556"></polygon>
                </g>
                <g id="Group-401" transform="translate(127.400000, 81.600000)">
                    <mask id="mask-20" fill="white">
                        <use xlink:href="#path-19"></use>
                    </mask>
                    <g id="Clip-400"></g>
                    <polygon id="Fill-399" fill="#EA288B" mask="url(#mask-20)" points="-11.39628 74.0712 50.697672 74.0712 50.697672 -11.065644 -11.39628 -11.065644"></polygon>
                </g>
                <g id="Group-404" transform="translate(0.200000, 64.800000)">
                    <mask id="mask-22" fill="white">
                        <use xlink:href="#path-21"></use>
                    </mask>
                    <g id="Clip-403"></g>
                    <polygon id="Fill-402" fill="#EA288B" mask="url(#mask-22)" points="-11.412924 528 187.288116 528 187.288116 -11.07792 -11.412924 -11.07792"></polygon>
                </g>
                <g id="Group-407" transform="translate(138.200000, 313.200000)">
                    <mask id="mask-24" fill="white">
                        <use xlink:href="#path-23"></use>
                    </mask>
                    <g id="Clip-406"></g>
                    <polygon id="Fill-405" fill="#EA288B" mask="url(#mask-24)" points="-11.52996 148.1556 33.802656 148.1556 33.802656 -11.87388 -11.52996 -11.87388"></polygon>
                </g>
                <g id="Group-410" transform="translate(348.200000, 18.000000)">
                    <mask id="mask-26" fill="white">
                        <use xlink:href="#path-25"></use>
                    </mask>
                    <g id="Clip-409"></g>
                    <polygon id="Fill-408" fill="#1C1463" mask="url(#mask-26)" points="-11.25132 574.8 241.31244 574.8 241.31244 -11.65896 -11.25132 -11.65896"></polygon>
                </g>
                <g id="Group-413" transform="translate(458.600000, 19.200000)">
                    <mask id="mask-28" fill="white">
                        <use xlink:href="#path-27"></use>
                    </mask>
                    <g id="Clip-412"></g>
                    <polygon id="Fill-411" fill="#0034DA" mask="url(#mask-28)" points="-11.94072 104.3748 44.058204 104.3748 44.058204 -11.33046 -11.94072 -11.33046"></polygon>
                </g>
                <g id="Group-416" transform="translate(489.800000, 0.000000)">
                    <mask id="mask-30" fill="white">
                        <use xlink:href="#path-29"></use>
                    </mask>
                    <g id="Clip-415"></g>
                    <polygon id="Fill-414" fill="#0034DA" mask="url(#mask-30)" points="-11.14176 114.4044 55.523472 114.4044 55.523472 -11.99976 -11.14176 -11.99976"></polygon>
                </g>
                <g id="Group-419" transform="translate(345.800000, 18.000000)">
                    <mask id="mask-32" fill="white">
                        <use xlink:href="#path-31"></use>
                    </mask>
                    <g id="Clip-418"></g>
                    <polygon id="Fill-417" fill="#0034DA" mask="url(#mask-32)" points="-11.04996 574.8 204.90792 574.8 204.90792 -11.65896 -11.04996 -11.65896"></polygon>
                </g>
                <g id="Group-422" transform="translate(499.400000, 288.000000)">
                    <mask id="mask-34" fill="white">
                        <use xlink:href="#path-33"></use>
                    </mask>
                    <g id="Clip-421"></g>
                    <polygon id="Fill-420" fill="#0034DA" mask="url(#mask-34)" points="-11.59932 161.1288 35.257056 161.1288 35.257056 -11.12808 -11.59932 -11.12808"></polygon>
                </g>
            </g>
        </g>
    </g>
</svg>