<?xml version="1.0" encoding="UTF-8"?>
<svg width="12px" height="12px" viewBox="0 0 12 12" version="1.1" xmlns="http://www.w3.org/2000/svg" xmlns:xlink="http://www.w3.org/1999/xlink">
    <!-- Generator: Sketch 52.6 (67491) - http://www.bohemiancoding.com/sketch -->
    <title>multiple_inputs</title>
    <desc>Created with Sketch.</desc>
    <g id="Page-1" stroke="none" stroke-width="1" fill="none" fill-rule="evenodd">
        <g id="07-Agreement-05-execute" transform="translate(-52.000000, -210.000000)" fill="#ffffff" fill-rule="nonzero">
            <g id="Group-13" transform="translate(44.000000, 164.000000)">
                <g id="Group-8" transform="translate(0.000000, 40.000000)">
                    <g id="multiple_inputs" transform="translate(8.000000, 6.000000)">
                        <path d="M10.8,9.3 L10.8,10.8 L1.2,10.8 L1.2,9.3 L-4.68750052e-09,9.3 L-4.68750052e-09,10.8 C-4.68750052e-09,11.46 0.539999995,12 1.2,12 L10.8,12 C11.46,12 12,11.46 12,10.8 L12,9.3 L10.8,9.3 Z" id="Path"></path>
                        <polygon id="Path" points="6 5.82 3.9 3.3 8.1 3.3"></polygon>
                        <path d="M5.4,-4.68753569e-09 L6.6,-4.68753569e-09 L6.6,4.2 L5.4,4.2 L5.4,-4.68753569e-09 Z M8.25,6.87 L8.04,7.2 L9.09,7.77 L9.27,7.41 C9.74999999,6.51 10.05,6 10.32,5.85 C10.59,5.69999999 11.1,5.69999999 12,5.7 L12,4.5 C9.69,4.5 9.48,4.61999999 8.25,6.87 Z" id="Shape"></path>
                        <path d="M10.32,8.1 L7.62,9.3 L7.2,6.3 L10.32,8.1 Z M3.75,6.87 L3.93,7.23 L2.88,7.8 L2.7,7.44 C2.22,6.54 1.91999999,6.03 1.65,5.88 C1.41,5.7 0.899999995,5.7 -4.68750052e-09,5.7 L-4.68750052e-09,4.5 C2.31,4.5 2.52,4.61999999 3.75,6.87 Z" id="Shape"></path>
                        <polygon id="Path" points="4.8 6.3 4.38 9.3 1.68 8.1"></polygon>
                    </g>
                </g>
            </g>
        </g>
    </g>
</svg>