<?xml version="1.0" encoding="UTF-8"?>
<svg width="140px" height="140px" viewBox="0 0 140 140" version="1.1" xmlns="http://www.w3.org/2000/svg" xmlns:xlink="http://www.w3.org/1999/xlink">
    <!-- Generator: Sketch 52.6 (67491) - http://www.bohemiancoding.com/sketch -->
    <title>nature (2)</title>
    <desc>Created with Sketch.</desc>
    <g id="Page-1" stroke="none" stroke-width="1" fill="none" fill-rule="evenodd">
        <g id="05-Profile-04-Transactions" transform="translate(-220.000000, -283.000000)" fill-rule="nonzero">
            <g id="nature-(2)" transform="translate(220.000000, 283.000000)">
                <path d="M91.8465625,78.5290625 L91.8465625,59.1560156 L106.091836,59.1560156 L106.091836,44.051875 C106.091836,38.7105469 110.437031,34.365625 115.778359,34.365625 C121.119414,34.365625 125.464609,38.7108203 125.464609,44.051875 L125.464609,63.0525 C125.464609,71.5864844 118.522031,78.5290625 109.98832,78.5290625 L91.8465625,78.5290625 Z" id="Path" fill="#39F0B7"></path>
                <path d="M48.1537109,107.80957 L48.1537109,88.4365234 L36.7185547,88.4365234 L36.7185547,63.9009766 C36.7185547,58.5596484 32.3733594,54.2147266 27.0320312,54.2147266 C21.6909766,54.2147266 17.3457813,58.5599219 17.3457813,63.9009766 L17.3457813,92.3330078 C17.3457813,100.866992 24.2883594,107.80957 32.8220703,107.80957 L48.1537109,107.80957 Z" id="Path" fill="#59FD97"></path>
                <path d="M137.265625,140 C137.087891,140 136.907148,139.980859 136.732422,139.945312 C136.557422,139.9125 136.385156,139.857812 136.221094,139.789453 C136.054297,139.721094 135.895977,139.636328 135.74832,139.537891 C135.597656,139.439453 135.458203,139.324609 135.332422,139.198828 C135.206641,139.073047 135.091797,138.933594 134.993359,138.783203 C134.892188,138.635547 134.810156,138.476953 134.741797,138.310156 C134.673438,138.146094 134.61875,137.973828 134.586211,137.798828 C134.550391,137.623828 134.531523,137.443359 134.531523,137.265625 C134.531523,137.087891 134.550391,136.907422 134.586211,136.732422 C134.61875,136.557422 134.673438,136.385156 134.741797,136.221094 C134.810156,136.054297 134.892188,135.895703 134.993359,135.748047 C135.091797,135.597656 135.206641,135.458203 135.332422,135.332422 C135.458203,135.206641 135.597656,135.091797 135.74832,134.993359 C135.895977,134.894922 136.054297,134.810156 136.221094,134.741797 C136.38543,134.673437 136.557422,134.61875 136.732422,134.585938 C137.085156,134.514844 137.448828,134.514844 137.798828,134.585938 C137.973828,134.61875 138.146094,134.673437 138.309883,134.741797 C138.47668,134.810156 138.635273,134.894922 138.78293,134.993359 C138.93332,135.091797 139.072773,135.206641 139.198555,135.332422 C139.324609,135.458203 139.439453,135.597656 139.537617,135.748047 C139.636055,135.895703 139.72082,136.054297 139.78918,136.221094 C139.857539,136.385156 139.912227,136.557422 139.945039,136.732422 C139.980586,136.907422 139.999727,137.087891 139.999727,137.265625 C139.999727,137.443359 139.980586,137.623828 139.945039,137.798828 C139.912227,137.973828 139.857539,138.146094 139.78918,138.310156 C139.72082,138.476953 139.636055,138.635547 139.537617,138.783203 C139.439453,138.933594 139.324609,139.073047 139.198555,139.198828 C139.072773,139.324609 138.93332,139.439453 138.78293,139.537891 C138.635273,139.636328 138.47668,139.721094 138.309883,139.789453 C138.14582,139.857812 137.973828,139.9125 137.798828,139.945312 C137.623828,139.980859 137.443086,140 137.265625,140 Z" id="Path" fill="#000000"></path>
                <path d="M2.73464844,140 C2.55691406,140 2.37644531,139.983594 2.20144531,139.948047 C2.02644531,139.9125 1.85417969,139.857813 1.69011719,139.789453 C1.52332031,139.721094 1.36472656,139.636328 1.21707031,139.537891 C1.06667969,139.439453 0.927226563,139.324609 0.801445313,139.198828 C0.675664063,139.073047 0.560820313,138.933594 0.462382813,138.783203 C0.363945313,138.635547 0.279179688,138.476953 0.210820313,138.312891 C0.142460938,138.146094 0.0877734375,137.973828 0.0549609375,137.798828 C0.0194140625,137.623828 0.0002734375,137.443359 0.0002734375,137.265625 C0.0002734375,137.087891 0.0194140625,136.907422 0.0549609375,136.732422 C0.0877734375,136.557422 0.142460938,136.385156 0.210820313,136.221094 C0.279179688,136.054297 0.363945313,135.895703 0.462382813,135.748047 C0.560820313,135.597656 0.675664063,135.458203 0.801445313,135.332422 C0.927226563,135.206641 1.06667969,135.091797 1.21707031,134.993359 C1.36472656,134.894922 1.52332031,134.810156 1.69011719,134.741797 C1.85417969,134.673438 2.02644531,134.61875 2.20144531,134.585938 C3.09011719,134.405469 4.03347656,134.698047 4.66785156,135.332422 C4.79363281,135.458203 4.90847656,135.597656 5.00691406,135.748047 C5.10535156,135.895703 5.19011719,136.054297 5.25847656,136.221094 C5.32683594,136.385156 5.38152344,136.557422 5.41433594,136.732422 C5.44988281,136.907422 5.46902344,137.087891 5.46902344,137.265625 C5.46902344,137.443359 5.44988281,137.623828 5.41433594,137.798828 C5.38152344,137.973828 5.32683594,138.146094 5.25847656,138.312891 C5.19011719,138.476953 5.10535156,138.635547 5.00691406,138.783203 C4.90847656,138.933594 4.79363281,139.073047 4.66785156,139.198828 C4.15925781,139.707422 3.45378906,140 2.73464844,140 Z" id="Path" fill="#000000"></path>
                <path d="M70,9.16535156 C57.9345703,9.16535156 48.1534375,18.9464844 48.1534375,31.0119141 L48.1534375,137.265625 L70,137.265625 L70,9.16535156 Z" id="Path" fill="#39F0B7"></path>
                <path d="M91.8465625,31.0119141 C91.8465625,18.9464844 82.0654297,9.16535156 70,9.16535156 L70,137.265625 L91.8465625,137.265625 L91.8465625,31.0119141 Z" id="Path" fill="#59FD97"></path>
                <path d="M125.508359,134.53125 L94.5809375,134.53125 L94.5809375,81.2634375 L109.988594,81.2634375 C120.030039,81.2634375 128.199258,73.0942188 128.199258,63.0525 L128.199258,44.051875 C128.199258,37.2030859 122.627422,31.63125 115.778633,31.63125 C108.929844,31.63125 103.357734,37.2030859 103.357734,44.051875 L103.357734,56.4216406 L94.5809375,56.4216406 L94.5809375,31.0119141 C94.5809375,17.4578906 83.5540234,6.43097656 70,6.43097656 C56.4459766,6.43097656 45.4190625,17.4578906 45.4190625,31.0119141 L45.4190625,85.7021484 L39.4526562,85.7021484 L39.4526562,63.9009766 C39.4526562,57.0521875 33.8808203,51.4800781 27.0317578,51.4800781 C20.1829687,51.4800781 14.6111328,57.0519141 14.6111328,63.9009766 L14.6111328,92.3330078 C14.6111328,102.374727 22.7803516,110.543945 32.8217969,110.543945 L45.4190625,110.543945 L45.4190625,134.53125 L14.4921875,134.53125 C12.9819922,134.53125 11.7578125,135.75543 11.7578125,137.265625 C11.7578125,138.77582 12.9819922,140 14.4921875,140 L125.508359,140 C127.018281,140 128.242734,138.77582 128.242734,137.265625 C128.242734,135.75543 127.018008,134.53125 125.508359,134.53125 Z M106.092109,61.8903906 C107.602031,61.8903906 108.826484,60.6662109 108.826484,59.1560156 L108.826484,44.051875 C108.826484,40.2185547 111.945039,37.1 115.778633,37.1 C119.611953,37.1 122.730508,40.2185547 122.730508,44.051875 L122.730508,63.0525 C122.730508,70.0784766 117.01457,75.7946875 109.988594,75.7946875 L94.5809375,75.7946875 L94.5809375,61.8903906 L106.092109,61.8903906 Z M45.4193359,105.075195 L32.8223437,105.075195 C25.7963672,105.075195 20.0804297,99.3589844 20.0804297,92.3330078 L20.0804297,63.9009766 C20.0804297,60.0676562 23.1989844,56.9488281 27.0323047,56.9488281 C30.8658984,56.9488281 33.9844531,60.0676562 33.9844531,63.9009766 L33.9844531,88.4365234 C33.9844531,89.9467188 35.2086328,91.1708984 36.7188281,91.1708984 L45.4196094,91.1708984 L45.4193359,105.075195 Z M50.8880859,134.53125 L50.8880859,31.0119141 C50.8880859,21.4016797 58.0179687,13.4252344 67.2658984,12.0946875 L67.2658984,134.53125 L50.8880859,134.53125 Z M72.734375,134.53125 L72.734375,12.0946875 C81.9823047,13.4252344 89.1121875,21.4014062 89.1121875,31.0119141 L89.1121875,134.53125 L72.734375,134.53125 Z" id="Shape" fill="#000000"></path>
                <path d="M80.9232812,42.0224219 C79.4133594,42.0224219 78.1889062,40.7982422 78.1889062,39.2880469 L78.1889062,37.9208594 C78.1889062,36.4106641 79.4133594,35.1864844 80.9232812,35.1864844 C82.4332031,35.1864844 83.6576562,36.4106641 83.6576562,37.9208594 L83.6576562,39.2880469 C83.6576562,40.7982422 82.4334766,42.0224219 80.9232812,42.0224219 Z" id="Path" fill="#000000"></path>
                <path d="M80.9232812,84.2220312 C79.4133594,84.2220312 78.1889062,82.9978516 78.1889062,81.4876562 L78.1889062,78.9299219 C78.1889062,77.4197266 79.4133594,76.1955469 80.9232812,76.1955469 C82.4332031,76.1955469 83.6576562,77.4197266 83.6576562,78.9299219 L83.6576562,81.4876562 C83.6576562,82.9978516 82.4334766,84.2220312 80.9232812,84.2220312 Z M80.9232812,70.1553125 C79.4133594,70.1553125 78.1889062,68.9311328 78.1889062,67.4209375 L78.1889062,64.8632031 C78.1889062,63.3530078 79.4133594,62.1288281 80.9232812,62.1288281 C82.4332031,62.1288281 83.6576562,63.3530078 83.6576562,64.8632031 L83.6576562,67.4209375 C83.6576562,68.9311328 82.4334766,70.1553125 80.9232812,70.1553125 Z M80.9232812,56.0888672 C79.4133594,56.0888672 78.1889062,54.8646875 78.1889062,53.3544922 L78.1889062,50.7967578 C78.1889062,49.2865625 79.4133594,48.0623828 80.9232812,48.0623828 C82.4332031,48.0623828 83.6576562,49.2865625 83.6576562,50.7967578 L83.6576562,53.3544922 C83.6576562,54.8646875 82.4334766,56.0888672 80.9232812,56.0888672 Z" id="Shape" fill="#000000"></path>
                <path d="M80.9232812,97.0982031 C79.4133594,97.0982031 78.1889062,95.8740234 78.1889062,94.3638281 L78.1889062,92.9966406 C78.1889062,91.4864453 79.4133594,90.2622656 80.9232812,90.2622656 C82.4332031,90.2622656 83.6576562,91.4864453 83.6576562,92.9966406 L83.6576562,94.3638281 C83.6576562,95.8740234 82.4334766,97.0982031 80.9232812,97.0982031 Z" id="Path" fill="#000000"></path>
                <path d="M59.0769922,60.5489063 C57.5667969,60.5489063 56.3426172,59.3247266 56.3426172,57.8145313 L56.3426172,56.4473438 C56.3426172,54.9371484 57.5667969,53.7129688 59.0769922,53.7129688 C60.5871875,53.7129688 61.8113672,54.9371484 61.8113672,56.4473438 L61.8113672,57.8145313 C61.8113672,59.3247266 60.5871875,60.5489063 59.0769922,60.5489063 Z" id="Path" fill="#000000"></path>
                <path d="M59.0769922,107.045859 C57.5667969,107.045859 56.3426172,105.82168 56.3426172,104.311484 L56.3426172,101.493438 C56.3426172,99.9832422 57.5667969,98.7590625 59.0769922,98.7590625 C60.5871875,98.7590625 61.8113672,99.9832422 61.8113672,101.493438 L61.8113672,104.311484 C61.8113672,105.82168 60.5871875,107.045859 59.0769922,107.045859 Z M59.0769922,91.546875 C57.5667969,91.546875 56.3426172,90.3226953 56.3426172,88.8125 L56.3426172,85.9944531 C56.3426172,84.4842578 57.5667969,83.2600781 59.0769922,83.2600781 C60.5871875,83.2600781 61.8113672,84.4842578 61.8113672,85.9944531 L61.8113672,88.8125 C61.8113672,90.3226953 60.5871875,91.546875 59.0769922,91.546875 Z M59.0769922,76.0478906 C57.5667969,76.0478906 56.3426172,74.8237109 56.3426172,73.3135156 L56.3426172,70.4954688 C56.3426172,68.9852734 57.5667969,67.7610938 59.0769922,67.7610938 C60.5871875,67.7610938 61.8113672,68.9852734 61.8113672,70.4954688 L61.8113672,73.3135156 C61.8113672,74.8237109 60.5871875,76.0478906 59.0769922,76.0478906 Z" id="Shape" fill="#000000"></path>
                <path d="M59.0769922,121.093984 C57.5667969,121.093984 56.3426172,119.869805 56.3426172,118.359609 L56.3426172,116.992422 C56.3426172,115.482227 57.5667969,114.258047 59.0769922,114.258047 C60.5871875,114.258047 61.8113672,115.482227 61.8113672,116.992422 L61.8113672,118.359609 C61.8113672,119.869805 60.5871875,121.093984 59.0769922,121.093984 Z" id="Path" fill="#000000"></path>
                <circle id="Oval" fill="#F5A740" cx="23.7893359" cy="18.3722656" r="15.6378906"></circle>
                <path d="M23.7896094,36.7450781 C13.6590234,36.7450781 5.41707031,28.503125 5.41707031,18.3725391 C5.41707031,8.24195312 13.6590234,0 23.7896094,0 C33.9201953,0 42.1621484,8.24195313 42.1621484,18.3725391 C42.1621484,28.503125 33.9201953,36.7450781 23.7896094,36.7450781 Z M23.7896094,5.46875 C16.6742188,5.46875 10.8858203,11.2574219 10.8858203,18.3725391 C10.8858203,25.4876563 16.6744922,31.2763281 23.7896094,31.2763281 C30.9047266,31.2763281 36.6933984,25.4876563 36.6933984,18.3725391 C36.6933984,11.2574219 30.9047266,5.46875 23.7896094,5.46875 Z" id="Shape" fill="#000000"></path>
            </g>
        </g>
    </g>
</svg>