<?xml version="1.0" encoding="UTF-8"?>
<svg width="124px" height="124px" viewBox="0 0 124 124" version="1.1" xmlns="http://www.w3.org/2000/svg" xmlns:xlink="http://www.w3.org/1999/xlink">
    <!-- Generator: Sketch 52.6 (67491) - http://www.bohemiancoding.com/sketch -->
    <title>Group 11</title>
    <desc>Created with Sketch.</desc>
    <g id="Page-1" stroke="none" stroke-width="1" fill="none" fill-rule="evenodd">
        <g id="06-Dashboard-03-Create-Project" transform="translate(-496.000000, -228.000000)">
            <g id="Group-4" transform="translate(459.000000, 200.000000)">
                <g id="Group-11" transform="translate(37.000000, 28.000000)">
                    <g id="Group-6">
                        <circle id="Oval" fill="#F5F7FE" cx="62" cy="62" r="62"></circle>
                        <g id="interface" transform="translate(33.000000, 35.000000)" fill-rule="nonzero">
                            <path d="M52.6978723,36.7659574 L13.4808511,36.7659574 C11.4538213,36.7659574 9.80425532,35.1163915 9.80425532,33.0893617 L9.80425532,20.8340426 C9.80425532,18.8070128 11.4538213,17.1574468 13.4808511,17.1574468 L52.6978723,17.1574468 C54.7249021,17.1574468 56.3744681,18.8070128 56.3744681,20.8340426 L56.3744681,33.0893617 C56.3744681,35.1163915 54.7249021,36.7659574 52.6978723,36.7659574 Z M13.4808511,19.6085106 C12.8068085,19.6085106 12.2553191,20.1575489 12.2553191,20.8340426 L12.2553191,33.0893617 C12.2553191,33.7658553 12.8068085,34.3148936 13.4808511,34.3148936 L52.6978723,34.3148936 C53.3719149,34.3148936 53.9234043,33.7658553 53.9234043,33.0893617 L53.9234043,20.8340426 C53.9234043,20.1575489 53.3719149,19.6085106 52.6978723,19.6085106 L13.4808511,19.6085106 Z" id="Shape" fill="#B6C5F4"></path>
                            <path d="M40.4425532,28.187234 L18.3829787,28.187234 C17.7064851,28.187234 17.1574468,27.6381957 17.1574468,26.9617021 C17.1574468,26.2852085 17.7064851,25.7361702 18.3829787,25.7361702 L40.4425532,25.7361702 C41.1190468,25.7361702 41.6680851,26.2852085 41.6680851,26.9617021 C41.6680851,27.6381957 41.1190468,28.187234 40.4425532,28.187234 Z" id="Path" fill-opacity="0.253824301" fill="#0034DA"></path>
                            <path d="M47.7957447,30.6382979 C47.1192511,30.6382979 46.5702128,30.0892596 46.5702128,29.412766 L46.5702128,24.5106383 C46.5702128,23.8341447 47.1192511,23.2851064 47.7957447,23.2851064 C48.4722383,23.2851064 49.0212766,23.8341447 49.0212766,24.5106383 L49.0212766,29.412766 C49.0212766,30.0892596 48.4722383,30.6382979 47.7957447,30.6382979 Z" id="Path" fill-opacity="0.253824301" fill="#0034DA"></path>
                            <path d="M47.7957447,19.6085106 L8.5787234,19.6085106 C6.55169362,19.6085106 4.90212766,17.9589447 4.90212766,15.9319149 L4.90212766,3.67659574 C4.90212766,1.64956596 6.55169362,0 8.5787234,0 L47.7957447,0 C49.8227745,0 51.4723404,1.64956596 51.4723404,3.67659574 L51.4723404,15.9319149 C51.4723404,17.9589447 49.8227745,19.6085106 47.7957447,19.6085106 Z M8.5787234,2.45106383 C7.90468085,2.45106383 7.35319149,3.00010213 7.35319149,3.67659574 L7.35319149,15.9319149 C7.35319149,16.6084085 7.90468085,17.1574468 8.5787234,17.1574468 L47.7957447,17.1574468 C48.4697872,17.1574468 49.0212766,16.6084085 49.0212766,15.9319149 L49.0212766,3.67659574 C49.0212766,3.00010213 48.4697872,2.45106383 47.7957447,2.45106383 L8.5787234,2.45106383 Z" id="Shape" fill="#B6C5F4"></path>
                            <path d="M35.5404255,11.0297872 L13.4808511,11.0297872 C12.8043574,11.0297872 12.2553191,10.4807489 12.2553191,9.80425532 C12.2553191,9.1277617 12.8043574,8.5787234 13.4808511,8.5787234 L35.5404255,8.5787234 C36.2169191,8.5787234 36.7659574,9.1277617 36.7659574,9.80425532 C36.7659574,10.4807489 36.2169191,11.0297872 35.5404255,11.0297872 Z" id="Path" fill-opacity="0.253824301" fill="#0034DA"></path>
                            <path d="M42.893617,13.4808511 C42.2171234,13.4808511 41.6680851,12.9318128 41.6680851,12.2553191 L41.6680851,7.35319149 C41.6680851,6.67669787 42.2171234,6.12765957 42.893617,6.12765957 C43.5701106,6.12765957 44.1191489,6.67669787 44.1191489,7.35319149 L44.1191489,12.2553191 C44.1191489,12.9318128 43.5701106,13.4808511 42.893617,13.4808511 Z" id="Path" fill-opacity="0.253824301" fill="#0034DA"></path>
                            <path d="M55.1489362,53.9234043 L3.67659574,53.9234043 C1.64956596,53.9234043 0,52.2738383 0,50.2468085 L0,37.9914894 C0,35.9644596 1.64956596,34.3148936 3.67659574,34.3148936 L55.1489362,34.3148936 C57.175966,34.3148936 58.8255319,35.9644596 58.8255319,37.9914894 L58.8255319,50.2468085 C58.8255319,52.2738383 57.175966,53.9234043 55.1489362,53.9234043 Z M3.67659574,36.7659574 C3.00255319,36.7659574 2.45106383,37.3149957 2.45106383,37.9914894 L2.45106383,50.2468085 C2.45106383,50.9233021 3.00255319,51.4723404 3.67659574,51.4723404 L55.1489362,51.4723404 C55.8229787,51.4723404 56.3744681,50.9233021 56.3744681,50.2468085 L56.3744681,37.9914894 C56.3744681,37.3149957 55.8229787,36.7659574 55.1489362,36.7659574 L3.67659574,36.7659574 Z" id="Shape" fill="#B6C5F4"></path>
                            <path d="M42.893617,45.3446809 L8.5787234,45.3446809 C7.90222979,45.3446809 7.35319149,44.7956426 7.35319149,44.1191489 C7.35319149,43.4426553 7.90222979,42.893617 8.5787234,42.893617 L42.893617,42.893617 C43.5701106,42.893617 44.1191489,43.4426553 44.1191489,44.1191489 C44.1191489,44.7956426 43.5701106,45.3446809 42.893617,45.3446809 Z" id="Path" fill-opacity="0.253824301" fill="#0034DA"></path>
                            <path d="M50.2468085,47.7957447 C49.5703149,47.7957447 49.0212766,47.2467064 49.0212766,46.5702128 L49.0212766,41.6680851 C49.0212766,40.9915915 49.5703149,40.4425532 50.2468085,40.4425532 C50.9233021,40.4425532 51.4723404,40.9915915 51.4723404,41.6680851 L51.4723404,46.5702128 C51.4723404,47.2467064 50.9233021,47.7957447 50.2468085,47.7957447 Z" id="Path" fill-opacity="0.253824301" fill="#0034DA"></path>
                        </g>
                    </g>
                </g>
            </g>
        </g>
    </g>
</svg>