<?xml version="1.0" encoding="UTF-8"?>
<svg width="23px" height="28px" viewBox="0 0 23 28" version="1.1" xmlns="http://www.w3.org/2000/svg" xmlns:xlink="http://www.w3.org/1999/xlink">
    <!-- Generator: Sketch 52.6 (67491) - http://www.bohemiancoding.com/sketch -->
    <title>notifications</title>
    <desc>Created with Sketch.</desc>
    <g id="Symbols" stroke="none" stroke-width="1" fill="none" fill-rule="evenodd">
        <g id="Header" transform="translate(-1176.000000, -17.000000)" fill-rule="nonzero">
            <g id="Group-2">
                <g id="notifications" transform="translate(1176.000000, 17.000000)">
                    <path d="M13.5757576,0.212121229 L13.5757576,2.58045455 C13.0257568,2.44776717 12.4648898,2.36505704 11.9,2.33333332 C11.0370445,2.2931723 10.1727741,2.37638512 9.33333332,2.58045455 L9.33333332,0.212121229 L13.5757576,0.212121229 Z" id="Path" fill="#C3CBD6"></path>
                    <path d="M21.3531818,19.3030303 L20.6468182,19.3030303 L20.6468182,12.5013636 C20.6643454,8.18243737 17.7546925,4.39993214 13.5757576,3.30909091 C13.0264179,3.1692401 12.4655412,3.07942882 11.9,3.04075759 C11.0366923,3.00309646 10.1724272,3.0888087 9.33333332,3.29530305 C5.19141319,4.27760426 2.26575191,7.97516267 2.26227273,12.2319697 L2.26227273,19.3030303 L1.55590909,19.3030303 C1.16520948,19.3030303 0.848484865,19.6197549 0.848484865,20.0104545 L0.848484865,21.4242424 C0.848484852,21.611863 0.923016827,21.7917991 1.05568461,21.9244669 C1.18835238,22.0571347 1.36828851,22.1316667 1.55590909,22.1316667 L21.3531818,22.1316667 C21.5408024,22.1316667 21.7207385,22.0571347 21.8534063,21.9244669 C21.9860741,21.7917991 22.0606061,21.611863 22.060606,21.4242424 L22.060606,20.0104545 C22.060606,19.6197549 21.7438814,19.3030303 21.3531818,19.3030303 Z M17.1107576,16.474394 C17.110758,16.8646798 16.7946793,17.1812331 16.404394,17.1818182 L15.6969697,17.1818182 C15.3062701,17.1818182 14.9895455,16.8650936 14.9895455,16.474394 L14.9895455,10.1107576 C14.9901306,9.72047223 15.3066839,9.40439352 15.6969697,9.40439396 L16.404394,9.40439396 C16.7942656,9.40497803 17.1101735,9.72088591 17.1107576,10.1107576 L17.1107576,16.474394 Z" id="Shape" fill="#8798AD"></path>
                    <path d="M6.56196968,22.8380303 C6.92957899,25.256171 9.0086221,27.0430416 11.4545455,27.0430416 C13.9004688,27.0430416 15.9795119,25.256171 16.3471212,22.8380303 L6.56196968,22.8380303 Z" id="Path" fill="#C3CBD6"></path>
                </g>
            </g>
        </g>
    </g>
</svg>