<?xml version="1.0" encoding="UTF-8"?>
<svg width="12px" height="11px" viewBox="0 0 12 11" version="1.1" xmlns="http://www.w3.org/2000/svg" xmlns:xlink="http://www.w3.org/1999/xlink">
    <!-- Generator: Sketch 52.6 (67491) - http://www.bohemiancoding.com/sketch -->
    <title>payment</title>
    <desc>Created with Sketch.</desc>
    <g id="Page-1" stroke="none" stroke-width="1" fill="none" fill-rule="evenodd">
        <g id="07-Agreement-05-execute" transform="translate(-461.000000, -211.000000)" fill="#ffffff" fill-rule="nonzero">
            <g id="Group-13" transform="translate(44.000000, 164.000000)">
                <g id="Group-8" transform="translate(409.000000, 40.000000)">
                    <g id="payment" transform="translate(8.000000, 7.100000)">
                        <path d="M0.887142853,2.66142857 L10.9414286,2.66142857 L10.9414286,2.36571429 C10.9414286,1.54912184 10.2794496,0.887142857 9.46285714,0.887142857 L2.36571429,0.887142857 C1.54912183,0.887142857 0.887142853,1.54912184 0.887142853,2.36571429 L0.887142853,2.66142857 Z M10.9414286,3.54857143 L0.887142853,3.54857143 L0.887142853,8.28 C0.887142853,9.09659245 1.54912183,9.75857143 2.36571429,9.75857143 L9.46285714,9.75857143 C10.2794496,9.75857143 10.9414286,9.09659245 10.9414286,8.28 L10.9414286,3.54857143 Z M2.36571429,6.06214285 C2.12073655,6.06214285 1.92214286,5.86354916 1.92214286,5.61857142 C1.92214286,5.37359369 2.12073655,5.175 2.36571429,5.175 L4.43571428,5.175 C4.68069202,5.175 4.87928571,5.37359369 4.87928571,5.61857142 C4.87928571,5.86354916 4.68069202,6.06214285 4.43571428,6.06214285 L2.36571429,6.06214285 Z M2.36571429,8.13214286 C2.12073655,8.13214286 1.92214286,7.93354917 1.92214286,7.68857143 C1.92214286,7.4435937 2.12073655,7.245 2.36571429,7.245 L5.61857143,7.245 C5.86354917,7.245 6.06214286,7.4435937 6.06214286,7.68857143 C6.06214286,7.93354917 5.86354917,8.13214286 5.61857143,8.13214286 L2.36571429,8.13214286 Z M2.36571429,0 L9.46285714,0 C10.7694051,-1.96985285e-16 11.8285714,1.05916637 11.8285714,2.36571429 L11.8285714,8.28 C11.8285714,9.58654792 10.7694051,10.6457143 9.46285714,10.6457143 L2.36571429,10.6457143 C1.05916636,10.6457143 -4.62053459e-09,9.58654792 -4.62053597e-09,8.28 L-4.62053597e-09,2.36571429 C-4.62053597e-09,1.05916637 1.05916636,3.9397057e-16 2.36571429,0 Z" id="Shape"></path>
                    </g>
                </g>
            </g>
        </g>
    </g>
</svg>