<?xml version="1.0" encoding="UTF-8"?>
<svg width="12px" height="12px" viewBox="0 0 12 12" version="1.1" xmlns="http://www.w3.org/2000/svg" xmlns:xlink="http://www.w3.org/1999/xlink">
    <!-- Generator: Sketch 52.6 (67491) - http://www.bohemiancoding.com/sketch -->
    <title>document</title>
    <desc>Created with Sketch.</desc>
    <g id="Page-1" stroke="none" stroke-width="1" fill="none" fill-rule="evenodd">
        <g id="07-Agreement-05-execute" transform="translate(-148.000000, -250.000000)" fill="#FF6761" fill-rule="nonzero">
            <g id="Group-13" transform="translate(44.000000, 164.000000)">
                <g id="Group-8" transform="translate(96.000000, 80.000000)">
                    <g id="document" transform="translate(8.000000, 6.000000)">
                        <path d="M10.5230769,11.9076923 L0.553846154,11.9076923 C0.249230765,11.9076923 -4.32692356e-09,11.6584615 -4.32692356e-09,11.3538461 L-4.32692356e-09,0.830769235 L-4.32692356e-09,0.803076919 L-4.32692356e-09,0.775384615 C-4.32692356e-09,0.719999996 0.027692299,0.692307692 0.027692312,0.636923073 C0.0553846154,0.581538453 0.0830769317,0.55384615 0.110769235,0.498461543 L0.138461538,0.470769226 C0.166153842,0.443076923 0.193846158,0.415384607 0.249230765,0.387692303 C0.276923068,0.332307684 0.332307688,0.332307684 0.387692308,0.30461538 L0.415384611,0.30461538 C0.443076914,0.276923077 0.498461534,0.276923077 0.553846154,0.276923077 L10.5230769,0.276923077 C10.5784615,0.276923077 10.6338461,0.276923077 10.6615385,0.30461538 L10.6892308,0.30461538 C10.7446154,0.332307684 10.7723077,0.332307684 10.8276923,0.36 C10.8553846,0.387692303 10.9107692,0.41538462 10.9384615,0.443076923 L10.9661538,0.470769226 C10.9938461,0.49846153 11.0215385,0.55384615 11.0492308,0.609230769 C11.0492308,0.664615389 11.0769231,0.719999996 11.0769231,0.747692312 L11.0769231,11.3261538 C11.0769231,11.6584615 10.8276923,11.9076923 10.5230769,11.9076923 Z M1.10769231,2.16 L1.10769231,10.8 L9.96923076,10.8 L9.96923076,2.16 L8.41846154,3.71076923 C8.30769232,3.82153845 8.16923077,3.87692307 8.03076923,3.87692307 L3.04615385,3.87692307 C2.9076923,3.87692307 2.76923077,3.82153845 2.65846153,3.71076923 L1.10769231,2.16 Z M9.19384615,1.38461538 L1.88307692,1.38461538 L3.26769231,2.76923077 L7.78153846,2.76923077 L9.19384615,1.38461538 Z" id="Shape"></path>
                        <path d="M5.53846154,4.7076923 C6.61846154,4.7076923 7.47692307,5.56615384 7.47692307,6.64615385 C7.47692307,7.72615386 6.61846154,8.58461538 5.53846154,8.58461538 C4.45846154,8.58461538 3.6,7.72615385 3.6,6.64615385 C3.6,5.56615385 4.45846154,4.70769232 5.53846154,4.7076923 Z M5.53846154,7.47692308 C6.00923077,7.47692308 6.36923077,7.11692309 6.36923077,6.64615385 C6.36923077,6.17538462 6.00923077,5.81538462 5.53846154,5.81538462 C5.0676923,5.81538462 4.70769231,6.17538462 4.70769231,6.64615385 C4.70769231,7.11692309 5.0676923,7.47692308 5.53846154,7.47692308 Z" id="Shape"></path>
                    </g>
                </g>
            </g>
        </g>
    </g>
</svg>