<?xml version="1.0" encoding="UTF-8"?>
<svg width="123px" height="120px" viewBox="0 0 123 120" version="1.1" xmlns="http://www.w3.org/2000/svg" xmlns:xlink="http://www.w3.org/1999/xlink">
    <!-- Generator: Sketch 52.6 (67491) - http://www.bohemiancoding.com/sketch -->
    <title>ribbon-design</title>
    <desc>Created with Sketch.</desc>
    <g id="Page-1" stroke="none" stroke-width="1" fill="none" fill-rule="evenodd">
        <g id="06-Dashboard-05-Switch-Instruction" transform="translate(-202.000000, -280.000000)" fill-rule="nonzero">
            <g id="ribbon-design" transform="translate(202.000000, 280.000000)">
                <path d="M71.76096,63.95736 C70.54248,64.61088 69.07656,64.61088 67.85808,63.95736 L20.2872,39.4308 C19.15512,38.8236 19.15992,37.20216 20.2956,36.60144 L66.96096,11.63736 C68.16816,10.99872 69.6144,10.99872 70.8216,11.63736 L98.86344,20.83512 L75.24576,8.3424 C66.61176,3.77544 56.2704,3.77544 47.6364,8.3424 L10.91184,27.768 C2.79072,32.06352 2.75712,43.65984 10.85304,48.0024 L47.48544,67.65168 C56.19936,72.32568 66.68256,72.32568 75.39648,67.65168 L88.61832,60.55968 L71.76096,63.95736 Z" id="Path" fill="#B2C2F3"></path>
                <path d="M61.44096,75.96888 C55.86792,75.96912 50.2968,74.60664 45.21648,71.88192 L8.58432,52.23264 C3.2724,49.3836 -0.01632,43.87392 0.00096,37.854 C0.01848,31.83408 3.33912,26.3436 8.66736,23.52504 L45.39192,4.09968 C55.44144,-1.21584 67.44048,-1.21584 77.49,4.09968 L114.21456,23.52504 C119.5428,26.34336 122.86344,31.83384 122.88096,37.854 C122.89824,43.87392 119.60952,49.3836 114.29784,52.23264 L77.6652,71.88192 C72.58632,74.6064 67.0128,75.9684 61.44096,75.96888 Z M61.44096,9.714 C57.4704,9.714 53.50008,10.67136 49.88064,12.58584 L13.15632,32.0112 C10.93752,33.1848 9.6084,35.3796 9.6012,37.88184 C9.594,40.38408 10.91016,42.58632 13.12224,43.77288 L49.75464,63.42192 C57.07272,67.34712 65.80992,67.34712 73.12776,63.42192 L109.7604,43.77288 C111.97248,42.58632 113.28864,40.38408 113.28144,37.88184 C113.27424,35.3796 111.94512,33.1848 109.72632,32.0112 L73.00128,12.58584 C69.38184,10.67136 65.41152,9.714 61.44096,9.714 Z M77.6652,115.32192 L120.34992,92.42736 C122.68608,91.17432 123.56424,88.26456 122.3112,85.92864 C121.05816,83.59248 118.14864,82.71432 115.81248,83.96736 L73.12752,106.86192 C65.81016,110.78712 57.07272,110.78712 49.73592,106.85208 L7.0512,84.19752 C4.70904,82.95456 1.8036,83.84568 0.56112,86.18712 C-0.68184,88.5288 0.20904,91.43424 2.55072,92.6772 L45.21648,115.32192 C50.2968,118.04688 55.86792,119.40888 61.44096,119.40888 C67.0128,119.40888 72.58632,118.0464 77.6652,115.32192 Z" id="Shape" fill="#1C1463"></path>
                <path d="M61.44096,97.80888 C55.86792,97.80888 50.2968,96.44664 45.21648,93.72192 L2.55072,71.0772 C0.20904,69.83424 -0.68184,66.9288 0.56112,64.58712 C1.8036,62.24568 4.70904,61.35456 7.0512,62.59752 L49.73592,85.25208 C57.07248,89.18712 65.81016,89.18736 73.12752,85.26192 L115.81248,62.36736 C118.14864,61.11456 121.05816,61.99224 122.3112,64.32864 C123.56424,66.66456 122.68632,69.57432 120.34992,70.82736 L77.6652,93.72192 C72.58632,96.4464 67.0128,97.80888 61.44096,97.80888 Z" id="Path" fill="#EA288B"></path>
            </g>
        </g>
    </g>
</svg>