<svg xmlns="http://www.w3.org/2000/svg" viewBox="0 0 48 48"><defs><style>.cls-1{fill:#e68abb;}.cls-2{fill:#6b85da;}</style></defs><g id="Warstwa_2" data-name="Warstwa 2"><circle class="cls-1" cx="12.92" cy="11.01" r="2.3"/><path class="cls-2" d="M12.92,13.81a2.8,2.8,0,1,1,2.8-2.8A2.81,2.81,0,0,1,12.92,13.81Zm0-4.6a1.8,1.8,0,1,0,1.8,1.8A1.81,1.81,0,0,0,12.92,9.21Z"/><path class="cls-2" d="M28.72,11.51H18.24a.5.5,0,0,1,0-1H28.72a.5.5,0,0,1,0,1Z"/><circle class="cls-1" cx="12.92" cy="22.06" r="2.3"/><path class="cls-2" d="M12.92,24.86a2.8,2.8,0,1,1,2.8-2.8A2.81,2.81,0,0,1,12.92,24.86Zm0-4.59a1.8,1.8,0,1,0,1.8,1.79A1.8,1.8,0,0,0,12.92,20.27Z"/><path class="cls-2" d="M28.32,22.56H18.24a.5.5,0,0,1-.5-.5.5.5,0,0,1,.5-.5H28.32a.5.5,0,0,1,.5.5A.5.5,0,0,1,28.32,22.56Z"/><path class="cls-2" d="M21.68,24.86H18.24a.5.5,0,0,1-.5-.5.5.5,0,0,1,.5-.5h3.44a.5.5,0,0,1,.5.5A.5.5,0,0,1,21.68,24.86Z"/><path class="cls-2" d="M25.84,24.86H23.68a.51.51,0,0,1-.5-.5.5.5,0,0,1,.5-.5h2.16a.5.5,0,0,1,.5.5A.5.5,0,0,1,25.84,24.86Z"/><circle class="cls-1" cx="12.92" cy="33.11" r="2.3"/><path class="cls-2" d="M12.92,35.91a2.8,2.8,0,1,1,2.8-2.8A2.8,2.8,0,0,1,12.92,35.91Zm0-4.59a1.8,1.8,0,1,0,1.8,1.79A1.8,1.8,0,0,0,12.92,31.32Z"/><path class="cls-2" d="M28.68,33.61H17.88a.5.5,0,0,1-.5-.5.5.5,0,0,1,.5-.5h10.8a.5.5,0,0,1,.5.5A.5.5,0,0,1,28.68,33.61Z"/><path class="cls-2" d="M27.32,47.51a.5.5,0,0,1-.46-.3c-1.18-2.76-4.95-11.35-2.35-12.66,1.84-.93,3,.36,4.1,1.5a4.11,4.11,0,0,0,3.19,1.42,1.13,1.13,0,0,0,.91-.32c.72-.76.6-3,.43-6.12-.1-1.88-.21-4-.2-6.48,0-3.21.51-4.69,1.56-4.83,2.23-.25,4.46,6.48,5.15,9.1.49,1.86.19,11.86,0,17.65a.49.49,0,0,1-.52.48.5.5,0,0,1-.48-.52c.38-9.62.41-16.11.08-17.36-1.28-4.83-3.3-8.36-4-8.36h0s-.66.24-.69,3.83c0,2.45.1,4.56.2,6.42.19,3.62.31,5.8-.71,6.87a2.12,2.12,0,0,1-1.63.63,5.07,5.07,0,0,1-3.93-1.74c-1.11-1.2-1.79-1.85-2.91-1.29s.57,6.14,2.82,11.37a.5.5,0,0,1-.26.66A.45.45,0,0,1,27.32,47.51Z"/><path class="cls-1" d="M38,3.65h0a4.12,4.12,0,0,0-4.1,3.89v9.61h8.2V8.38C42.09,5.73,40.47,3.65,38,3.65Z"/><path class="cls-2" d="M42.09,17.65h-8.2a.5.5,0,0,1-.5-.5V7.54A4.62,4.62,0,0,1,38,3.15c2.66,0,4.6,2.2,4.6,5.23v8.77A.5.5,0,0,1,42.09,17.65Zm-7.7-1h7.2V8.38c0-2.49-1.48-4.23-3.6-4.23a3.61,3.61,0,0,0-3.6,3.39Z"/><path class="cls-2" d="M25,42.46H6.41V8.51a4.36,4.36,0,0,1,4.35-4.36H36.3a15.83,15.83,0,0,0-2.81,3.09.47.47,0,0,0-.1.3V20.86c.23-.64.56-1,1-1.1v-12c1.26-1.65,2.46-3.2,4.2-3.57A.49.49,0,0,0,39,3.6a.5.5,0,0,0-.5-.45H10.76A5.36,5.36,0,0,0,5.41,8.51V43a.5.5,0,0,0,.5.5H25.33C25.2,43.14,25.08,42.8,25,42.46Z"/></g></svg>