<?xml version="1.0" encoding="UTF-8"?>
<svg width="24px" height="24px" viewBox="0 0 24 24" version="1.1" xmlns="http://www.w3.org/2000/svg" xmlns:xlink="http://www.w3.org/1999/xlink">
    <!-- Generator: Sketch 52.6 (67491) - http://www.bohemiancoding.com/sketch -->
    <title>tasks</title>
    <desc>Created with Sketch.</desc>
    <g id="Page-1" stroke="none" stroke-width="1" fill="none" fill-rule="evenodd">
        <g id="Dashboard" transform="translate(-1130.000000, -103.000000)" fill-rule="nonzero">
            <g id="tasks" transform="translate(1128.000000, 101.000000)">
                <rect id="Rectangle" fill="#000000" opacity="0" x="0" y="0" width="28" height="28"></rect>
                <path d="M21.9898438,2.625 L6.01015625,2.625 C4.17539062,2.625 2.625,4.17539062 2.625,6.01015625 L2.625,21.9898438 C2.625,23.8246094 4.17539062,25.375 6.01015625,25.375 L21.9898438,25.375 C23.8246094,25.375 25.375,23.8246094 25.375,21.9898438 L25.375,6.01015625 C25.375,4.17539062 23.8246094,2.625 21.9898438,2.625 Z M23.1875,21.4375 C23.1875,22.4 22.4,23.1875 21.4375,23.1875 L6.5625,23.1875 C5.6,23.1875 4.8125,22.4 4.8125,21.4375 L4.8125,6.5625 C4.8125,5.6 5.6,4.8125 6.5625,4.8125 L21.4375,4.8125 C22.4,4.8125 23.1875,5.6 23.1875,6.5625 L23.1875,21.4375 Z M12.3292969,7.39101562 L9.778125,9.9421875 L8.34804687,8.51210937 C8.00625,8.1703125 7.45117187,8.1703125 7.109375,8.51210937 C6.9453125,8.67617187 6.85507812,8.89765625 6.85507812,9.13007813 C6.85507812,9.3625 6.9453125,9.58398438 7.109375,9.74804688 L9.16015625,11.7988281 C9.32421875,11.9628906 9.54570312,12.053125 9.778125,12.053125 C10.0105469,12.053125 10.2320313,11.9628906 10.3960938,11.7988281 L13.5679688,8.62695313 C13.7320313,8.46289062 13.8222656,8.24140625 13.8222656,8.00898438 C13.8222656,7.7765625 13.7320313,7.55507812 13.5679688,7.39101562 C13.2261719,7.04921875 12.6710938,7.04921875 12.3292969,7.39101562 Z M20.3574219,8.61054688 L15.815625,8.61054688 C15.3808594,8.61054688 15.0253906,9.05078125 15.0253906,9.59492188 C15.0253906,10.1390625 15.378125,10.5792969 15.815625,10.5792969 L20.3574219,10.5792969 C20.7921875,10.5792969 21.1476563,10.1390625 21.1476563,9.59492188 C21.1476563,9.05078125 20.7921875,8.61054688 20.3574219,8.61054688 Z M20.3519531,16.7070312 L15.8101562,16.7070312 C15.3753906,16.7070312 15.0199219,17.1472656 15.0199219,17.6914062 C15.0199219,18.2355469 15.3753906,18.6757812 15.8101562,18.6757812 L20.3519531,18.6757812 C20.7867187,18.6757812 21.1421875,18.2355469 21.1421875,17.6914062 C21.1421875,17.1472656 20.7867187,16.7070312 20.3519531,16.7070312 Z M10.0871094,14.5195312 C8.33710938,14.5195312 6.91523437,15.9414062 6.91523437,17.6914062 C6.91523437,19.4414062 8.33710938,20.8632812 10.0871094,20.8632812 C11.8371094,20.8632812 13.2589844,19.4414062 13.2589844,17.6914062 C13.2589844,15.9414062 11.8371094,14.5195312 10.0871094,14.5195312 Z M10.0871094,19.1132812 C9.30234375,19.1132812 8.66523438,18.4761719 8.66523438,17.6914062 C8.66523438,16.9066406 9.30234375,16.2695312 10.0871094,16.2695312 C10.871875,16.2695312 11.5089844,16.909375 11.5089844,17.6914062 C11.5089844,18.4761719 10.871875,19.1132812 10.0871094,19.1132812 Z" id="Shape" fill="#FFFFFF"></path>
            </g>
        </g>
    </g>
</svg>