<?xml version="1.0" encoding="UTF-8"?>
<svg width="80px" height="90px" viewBox="0 0 80 90" version="1.1" xmlns="http://www.w3.org/2000/svg" xmlns:xlink="http://www.w3.org/1999/xlink">
    <!-- Generator: Sketch 52.6 (67491) - http://www.bohemiancoding.com/sketch -->
    <title>to-do-list</title>
    <desc>Created with Sketch.</desc>
    <g id="Page-1" stroke="none" stroke-width="1" fill="none" fill-rule="evenodd">
        <g id="06-Dashboard-05-Switch-Instruction" transform="translate(-1226.000000, -379.000000)" fill-rule="nonzero">
            <g id="Group-2" transform="translate(1117.000000, 101.000000)">
                <g id="to-do-list" transform="translate(109.000000, 278.000000)">
                    <path d="M61.4840339,28.1222707 L61.4840339,10.1310044 C61.4840339,5.50013642 65.2381277,1.74672489 69.8683134,1.74672489 C74.4991811,1.74672489 78.2525928,5.50013642 78.2525928,10.1310044 L78.2525928,24.628821 C78.2525928,26.5584061 76.6887282,28.1222707 74.7591431,28.1222707 L61.4840339,28.1222707 Z" id="Path" fill-opacity="0.2" fill="#0034DA"></path>
                    <path d="M69.8683134,1.74672489 L10.1310044,1.74672489 C5.50013642,1.74672489 1.74672489,5.50013642 1.74672489,10.1310044 L1.74672489,74.7591431 C1.74672489,76.6887282 3.31058952,78.2525928 5.24017467,78.2525928 L61.4840339,78.2525928 L61.4840339,10.1310044 C61.4840339,5.50013642 65.2381277,1.74672489 69.8683134,1.74672489" id="Path" fill="#FFFFFF"></path>
                    <path d="M46.4628821,87.6849072 L43.8926037,81.5174672 C42.9946779,79.3627183 42.5327511,77.0503548 42.5327511,74.7154749 L42.5327511,61.1722162 C42.5327511,59.1259553 44.1914575,57.4672489 46.2377184,57.4672489 C47.8322872,57.4672489 49.2480894,58.487309 49.7523198,60.0006823 L52.3853712,67.8984716 C53.0206059,69.804858 54.804858,71.0910208 56.8149563,71.0910208 C59.3941048,71.0910208 61.4840339,69.0010917 61.4840339,66.4219432 L61.4840339,32.2625546 L66.7992631,37.5675492 C71.2615993,42.0223799 73.7697871,48.0690501 73.7697871,54.3743177 L73.7697871,72.9421397 C73.7697871,78.0417576 72.6357806,83.0772381 70.4510098,87.6849072" id="Path" fill-opacity="0.1" fill="#0034DA"></path>
                    <g id="Group" transform="translate(11.004367, 11.179039)" fill="#DCE2FA">
                        <path d="M9.54899022,11.1790393 L1.8634007,11.1790393 C0.898608035,11.1790393 0.116675808,10.3971071 0.116675808,9.43231441 L0.116675808,1.74672489 C0.116675808,0.781932227 0.898608035,0 1.8634007,0 L9.54899022,0 C10.5131004,0 11.2957151,0.781932227 11.2957151,1.74672489 L11.2957151,9.43231441 C11.2957151,10.3971071 10.5131004,11.1790393 9.54899022,11.1790393 Z" id="Path"></path>
                        <path d="M9.54899022,32.139738 L1.8634007,32.139738 C0.898608035,32.139738 0.116675808,31.3578058 0.116675808,30.3930131 L0.116675808,22.7074236 C0.116675808,21.7426309 0.898608035,20.9606987 1.8634007,20.9606987 L9.54899022,20.9606987 C10.5131004,20.9606987 11.2957151,21.7426309 11.2957151,22.7074236 L11.2957151,30.3930131 C11.2957151,31.3578058 10.5131004,32.139738 9.54899022,32.139738 Z" id="Path"></path>
                        <path d="M9.54899022,53.0997544 L1.8634007,53.0997544 C0.898608035,53.0997544 0.116675808,52.317822 0.116675808,51.3530295 L0.116675808,43.6681223 C0.116675808,42.7033296 0.898608035,41.9213974 1.8634007,41.9213974 L9.54899022,41.9213974 C10.5131004,41.9213974 11.2957151,42.7033296 11.2957151,43.6681223 L11.2957151,51.3530295 C11.2957151,52.317822 10.5131004,53.0997544 9.54899022,53.0997544 Z" id="Path"></path>
                    </g>
                    <path d="M69.8683134,0 L10.1310044,0 C4.54489624,0 0,4.54489624 0,10.1310044 L0,74.7591431 C0,77.6487445 2.3505731,79.9993177 5.24017467,79.9993177 L28.1802674,79.9993177 C29.1450601,79.9993177 29.9269923,79.2173853 29.9269923,78.2525928 C29.9269923,77.2878002 29.1450601,76.5058679 28.1802674,76.5058679 L5.24017467,76.5058679 C4.27674672,76.5058679 3.49344978,75.722571 3.49344978,74.7591431 L3.49344978,10.1310044 C3.49344978,6.47106987 6.47106987,3.49344978 10.1310044,3.49344978 L62.224345,3.49344978 C60.6775382,5.27292576 59.737309,7.59347703 59.737309,10.1310044 L59.737309,66.4219432 C59.737309,68.03357 58.4265831,69.3442959 56.8149563,69.3442959 C55.555404,69.3442959 54.4411845,68.5412119 54.0420306,67.3464793 L51.4096615,59.4480077 C50.6666211,57.2182042 48.5876091,55.720524 46.2377184,55.720524 C43.231441,55.720524 40.7860262,58.1659389 40.7860262,61.1715338 L40.7860262,62.5320688 L31.7323963,62.5320688 C30.7676037,62.5320688 29.9856714,63.3146833 29.9856714,64.2787937 C29.9856714,65.2435862 30.7676037,66.0255186 31.7323963,66.0255186 L40.7860262,66.0255186 L40.7860262,74.7154749 C40.7860262,77.2946234 41.2888919,79.8096342 42.2809771,82.1895469 L44.8505731,88.3569869 C45.1303221,89.027702 45.7792031,89.4323144 46.4635644,89.4323144 C46.6873635,89.4323144 46.9152566,89.3893286 47.1342795,89.2978985 C48.025382,88.9267195 48.4463701,87.9039301 48.0751911,87.0135099 L45.5055949,80.8460699 C44.6922762,78.8939684 44.279476,76.8313319 44.279476,74.7161572 L44.279476,61.1722162 C44.279476,60.0921125 45.1576147,59.2139738 46.2377184,59.2139738 C47.0817413,59.2139738 47.8288755,59.7516376 48.0956604,60.5526746 L50.7280295,68.4511462 C51.6027565,71.0746452 54.0488538,72.8377457 56.8149563,72.8377457 C60.3527565,72.8377457 63.2307588,69.9597434 63.2307588,66.4219432 L63.2307588,36.4744814 L65.5649563,38.8039029 C69.7298035,42.9605623 72.0230622,48.4907205 72.0230622,54.3743177 L72.0230622,72.9421397 C72.0230622,77.751774 70.9334061,82.5907478 68.8728166,86.9364084 C68.4593341,87.8077238 68.8311955,88.8496178 69.7025109,89.2631004 C70.5738264,89.6765831 71.6157205,89.305404 72.0292031,88.4334061 C74.3101801,83.6230896 75.516512,78.2662391 75.516512,72.9421397 L75.516512,54.3743177 C75.516512,47.5559497 72.8588975,41.1483352 68.0328875,36.3311955 L63.2307588,31.5379368 L63.2307588,29.8689956 L74.7591431,29.8689956 C77.6487445,29.8689956 79.9993177,27.5184225 79.9993177,24.628821 L79.9993177,10.1310044 C79.9993177,4.54489624 75.4551038,-4.96449073e-15 69.8683134,0 Z M76.5058679,24.628821 C76.5058679,25.5915666 75.722571,26.3755459 74.7591431,26.3755459 L63.2307588,26.3755459 L63.2307588,10.1310044 C63.2307588,6.47106987 66.2083789,3.49344978 69.8683134,3.49344978 C73.5282479,3.49344978 76.5058679,6.47106987 76.5058679,10.1310044 L76.5058679,24.628821 Z" id="Shape" fill="#B2C2F3"></path>
                    <path d="M35.8078603,76.5058679 C35.3479804,76.5058679 34.8976528,76.692822 34.5728713,77.0176037 C34.2480894,77.3430676 34.0611354,77.7933953 34.0611354,78.2525928 C34.0611354,78.7124727 34.2480894,79.1628002 34.5728713,79.4875818 C34.8976528,79.8123635 35.3479804,79.9993177 35.8078603,79.9993177 C36.2670578,79.9993177 36.7173853,79.8123635 37.0428493,79.4875818 C37.3676311,79.1628002 37.5545852,78.7124727 37.5545852,78.2525928 C37.5545852,77.7933953 37.3676311,77.3430676 37.0428493,77.0176037 C36.7173853,76.692822 36.2670578,76.5058679 35.8078603,76.5058679 Z" id="Path" fill="#B2C2F3"></path>
                    <path d="M24.0468068,12.9257642 C24.0468068,10.9995906 22.4795305,9.43231441 20.553357,9.43231441 L12.8677675,9.43231441 C10.9409116,9.43231441 9.37431773,10.9995906 9.37431773,12.9257642 L9.37431773,20.6113537 C9.37431773,22.5375273 10.9409116,24.1048035 12.8677675,24.1048035 L20.553357,24.1048035 C22.4795305,24.1048035 24.0468068,22.5375273 24.0468068,20.6113537 L24.0468068,12.9257642 Z M20.553357,20.6113537 L12.8677675,20.6113537 L12.8677675,12.9257642 L20.553357,12.9257642 L20.555404,20.6113537 C20.555404,20.6113537 20.5547216,20.6113537 20.553357,20.6113537 Z" id="Shape" fill="#B2C2F3"></path>
                    <path d="M24.0468068,33.8864629 C24.0468068,31.9602893 22.4795305,30.3930131 20.553357,30.3930131 L12.8677675,30.3930131 C10.9409116,30.3930131 9.37431773,31.9602893 9.37431773,33.8864629 L9.37431773,41.5720524 C9.37431773,43.498226 10.9409116,45.0655022 12.8677675,45.0655022 L20.553357,45.0655022 C22.4795305,45.0655022 24.0468068,43.498226 24.0468068,41.5720524 L24.0468068,33.8864629 Z M20.553357,41.5720524 L12.8677675,41.5720524 L12.8677675,33.8864629 L20.553357,33.8864629 L20.555404,41.5720524 C20.555404,41.5720524 20.5547216,41.5720524 20.553357,41.5720524 Z" id="Shape" fill="#B2C2F3"></path>
                    <path d="M20.553357,51.3537118 L12.8677675,51.3537118 C10.9409116,51.3537118 9.37431773,52.9203057 9.37431773,54.8471616 L9.37431773,62.5320688 C9.37431773,64.4589247 10.9409116,66.0255186 12.8677675,66.0255186 L20.553357,66.0255186 C22.4795305,66.0255186 24.0468068,64.4589247 24.0468068,62.5320688 L24.0468068,54.8471616 C24.0468068,52.9203057 22.4795305,51.3537118 20.553357,51.3537118 Z M20.553357,62.5320688 L12.8677675,62.5320688 L12.8677675,54.8471616 L20.553357,54.8471616 L20.555404,62.5320688 C20.555404,62.5320688 20.5547216,62.5320688 20.553357,62.5320688 Z" id="Shape" fill="#B2C2F3"></path>
                    <path d="M51.7610534,24.1048035 C52.7258461,24.1048035 53.5077783,23.3228713 53.5077783,22.3580786 C53.5077783,21.3932859 52.7258461,20.6113537 51.7610534,20.6113537 L39.7195687,20.6113537 C38.7547762,20.6113537 37.9728438,21.3932859 37.9728438,22.3580786 C37.9728438,23.3228713 38.7547762,24.1048035 39.7195687,24.1048035 L51.7610534,24.1048035 Z" id="Path" fill="#B2C2F3"></path>
                    <path d="M31.7323963,24.1048035 C32.1922762,24.1048035 32.6426037,23.9178494 32.9673853,23.5930676 C33.292167,23.2682861 33.4791212,22.8172762 33.4791212,22.3580786 C33.4791212,21.898881 33.292167,21.4478711 32.9673853,21.1230896 C32.6426037,20.7983078 32.1922762,20.6113537 31.7323963,20.6113537 C31.2711518,20.6113537 30.8221888,20.7983078 30.4974072,21.1230896 C30.171261,21.4478711 29.9856714,21.898881 29.9856714,22.3580786 C29.9856714,22.8172762 30.171261,23.2682861 30.4974072,23.5930676 C30.8221888,23.9178494 31.2711518,24.1048035 31.7323963,24.1048035 Z" id="Path" fill="#B2C2F3"></path>
                    <path d="M31.7317139,45.0655022 L51.7610534,45.0655022 C52.7258461,45.0655022 53.5077783,44.28357 53.5077783,43.3187773 C53.5077783,42.3539846 52.7258461,41.5720524 51.7610534,41.5720524 L31.7317139,41.5720524 C30.7676037,41.5720524 29.984989,42.3539846 29.984989,43.3187773 C29.984989,44.28357 30.7676037,45.0655022 31.7317139,45.0655022 Z" id="Path" fill="#B2C2F3"></path>
                </g>
            </g>
        </g>
    </g>
</svg>