<?xml version="1.0" encoding="UTF-8"?>
<svg width="125px" height="125px" viewBox="0 0 125 125" version="1.1" xmlns="http://www.w3.org/2000/svg" xmlns:xlink="http://www.w3.org/1999/xlink">
    <!-- Generator: Sketch 52.6 (67491) - http://www.bohemiancoding.com/sketch -->
    <title>Group 4</title>
    <desc>Created with Sketch.</desc>
    <g id="Page-1" stroke="none" stroke-width="1" fill="none" fill-rule="evenodd">
        <g id="05-Profile-01-Basic" transform="translate(-122.000000, -302.000000)">
            <g id="Group-3" transform="translate(122.000000, 216.000000)">
                <g id="Group-4" transform="translate(0.000000, 86.000000)">
                    <circle id="Oval" fill="#F5F7FE" cx="62.5" cy="62.5" r="62.5"></circle>
                    <g id="business-(2)" transform="translate(36.000000, 33.000000)" fill="#0034DA" fill-opacity="0.25" fill-rule="nonzero">
                        <path d="M26.2222222,28.5925926 C18.162963,28.5925926 12,22.4296296 12,14.3703704 C12,6.31111111 18.162963,0.148148148 26.2222222,0.148148148 C34.2814815,0.148148148 40.4444444,6.31111111 40.4444444,14.3703704 C40.4444444,22.4296296 34.2814815,28.5925926 26.2222222,28.5925926 Z M26.2222222,4.88888889 C21.0074074,4.88888889 16.7407407,9.15555556 16.7407407,14.3703704 C16.7407407,19.5851852 21.0074074,23.8518519 26.2222222,23.8518519 C31.437037,23.8518519 35.7037037,19.5851852 35.7037037,14.3703704 C35.7037037,9.15555556 31.437037,4.88888889 26.2222222,4.88888889 Z" id="Shape"></path>
                        <path d="M49.9259259,59.4074074 C48.5037037,59.4074074 47.5555556,58.4592593 47.5555556,57.037037 L47.5555556,47.5555556 C47.5555556,43.762963 44.237037,40.4444444 40.4444444,40.4444444 L12,40.4444444 C8.20740741,40.4444444 4.88888889,43.762963 4.88888889,47.5555556 L4.88888889,57.037037 C4.88888889,58.4592593 3.94074074,59.4074074 2.51851852,59.4074074 C1.0962963,59.4074074 0.148148148,58.4592593 0.148148148,57.037037 L0.148148148,47.5555556 C0.148148148,40.9185185 5.36296296,35.7037037 12,35.7037037 L40.4444444,35.7037037 C47.0814815,35.7037037 52.2962963,40.9185185 52.2962963,47.5555556 L52.2962963,57.037037 C52.2962963,58.4592593 51.3481481,59.4074074 49.9259259,59.4074074 Z" id="Path"></path>
                    </g>
                </g>
            </g>
        </g>
    </g>
</svg>