<?xml version="1.0" encoding="UTF-8"?>
<svg width="30px" height="10px" viewBox="0 0 30 10" version="1.1" xmlns="http://www.w3.org/2000/svg" xmlns:xlink="http://www.w3.org/1999/xlink">
    <!-- Generator: Sketch 52.6 (67491) - http://www.bohemiancoding.com/sketch -->
    <title>visa</title>
    <desc>Created with Sketch.</desc>
    <g id="Page-1" stroke="none" stroke-width="1" fill="none" fill-rule="evenodd">
        <g id="Profile" transform="translate(-273.000000, -232.000000)" fill-rule="nonzero">
            <g id="Group-4" transform="translate(37.000000, 206.000000)">
                <g id="visa" transform="translate(236.000000, 26.000000)">
                    <g id="Group" transform="translate(0.024441, 0.113645)" fill="#2566AF">
                        <path d="M13.0074734,9.56389714 L10.5617682,9.56389714 L12.0903025,0.170057248 L14.536259,0.170057248 L13.0074734,9.56389714 Z M8.50429009,0.170057248 L6.17266586,6.63121189 L5.89676076,5.23987625 L5.89701204,5.24037881 L5.07407106,1.01586468 C5.07407106,1.01586468 4.9745643,0.170057248 3.91391274,0.170057248 L0.0592823063,0.170057248 L0.0140519623,0.329117292 C0.0140519623,0.329117292 1.19280498,0.574366268 2.57233048,1.4028354 L4.69715153,9.56414842 L7.24537885,9.56414842 L11.1364448,0.170057248 L8.50429009,0.170057248 Z M27.7410067,9.56389714 L29.9866933,9.56389714 L28.0287219,0.169805969 L26.0627096,0.169805969 C25.1548361,0.169805969 24.93371,0.869871182 24.93371,0.869871182 L21.286134,9.56389714 L23.8356178,9.56389714 L24.3454642,8.16854103 L27.4545478,8.16854103 L27.7410067,9.56389714 Z M25.0498012,6.24097453 L26.3348455,2.72557169 L27.0577772,6.24097453 L25.0498012,6.24097453 Z M21.4773579,2.42906165 L21.8263854,0.411788309 C21.8263854,0.411788309 20.7494006,0.00220241622 19.626683,0.00220241622 C18.4130021,0.00220241622 15.530824,0.53265384 15.530824,3.11203985 C15.530824,5.53889908 18.9135512,5.56905265 18.9135512,6.84379451 C18.9135512,8.11853637 15.879349,7.89012313 14.8779994,7.08627941 L14.5143977,9.19552112 C14.5143977,9.19552112 15.6064592,9.72597254 17.2749564,9.72597254 C18.9439561,9.72597254 21.4617785,8.86182169 21.4617785,6.5098438 C21.4617785,4.06740522 18.0486465,3.83999711 18.0486465,2.77808914 C18.0488978,1.7159299 20.430778,1.85237477 21.4773579,2.42906165 Z" id="Shape"></path>
                    </g>
                    <path d="M5.92145299,5.35377291 L5.098512,1.12925877 C5.098512,1.12925877 4.99900525,0.283451342 3.93835368,0.283451342 L0.0837232514,0.283451342 L0.0384929074,0.442511385 C0.0384929074,0.442511385 1.89117805,0.82646675 3.66822801,2.26504297 C5.36738127,3.64004543 5.92145299,5.35377291 5.92145299,5.35377291 Z" id="Path" fill="#E6A540"></path>
                </g>
            </g>
        </g>
    </g>
</svg>