<?xml version="1.0" encoding="UTF-8"?>
<svg width="221px" height="50px" viewBox="0 0 221 50" version="1.1" xmlns="http://www.w3.org/2000/svg" xmlns:xlink="http://www.w3.org/1999/xlink">
    <!-- Generator: Sketch 52.6 (67491) - http://www.bohemiancoding.com/sketch -->
    <title>01 yuraApp</title>
    <desc>Created with Sketch.</desc>
    <defs>
        <linearGradient x1="9.78239757%" y1="46.5436815%" x2="106.77519%" y2="63.0065741%" id="linearGradient-1">
            <stop stop-color="#0034DA" offset="0%"></stop>
            <stop stop-color="#5AFF96" offset="100%"></stop>
        </linearGradient>
        <linearGradient x1="-11.0042025%" y1="53.9658381%" x2="101.339828%" y2="39.2352273%" id="linearGradient-2">
            <stop stop-color="#912AD1" offset="0%"></stop>
            <stop stop-color="#EA288B" offset="100%"></stop>
        </linearGradient>
        <linearGradient x1="-10.2660936%" y1="44.8357955%" x2="96.0032474%" y2="58.7709517%" id="linearGradient-3">
            <stop stop-color="#FF6400" offset="0%"></stop>
            <stop stop-color="#DC1F00" offset="100%"></stop>
        </linearGradient>
    </defs>
    <g id="Page-1" stroke="none" stroke-width="1" fill="none" fill-rule="evenodd">
        <g id="01-Sign-in" transform="translate(-862.000000, -116.000000)" fill-rule="nonzero">
            <g id="01-yuraApp" transform="translate(862.000000, 116.000000)">
                <path d="M129.960356,0 L137.373825,0 L152.1446,38.4433291 L144.534562,38.4433291 L141.52986,30.5243964 L125.860483,30.5243964 L122.743456,38.4433291 L115.133418,38.4433291 L129.960356,0 Z M133.695172,10.1935197 L128.528208,23.3917408 L138.805972,23.3917408 L133.695172,10.1935197 Z" id="Shape" fill="url(#linearGradient-1)"></path>
                <g id="Group" opacity="0.4" transform="translate(133.386277, 5.616264)" fill="#AFF9DF">
                    <path d="M8.53672173,19.6288437 C7.04841169,19.6288437 5.72858958,18.7302414 5.19504447,17.3542567 L0.421219822,4.9703939 C-0.280813215,3.11702668 0.617789072,1.06709022 2.47115629,0.365057179 C4.32452351,-0.336975858 6.37445997,0.561626429 7.07649301,2.41499365 L11.8503177,14.7988564 C12.5523507,16.6522236 11.6256671,18.7021601 9.80038119,19.4041931 C9.40724269,19.5445997 8.98602287,19.6288437 8.53672173,19.6288437 Z" id="Path"></path>
                </g>
                <g id="Logo" transform="translate(0.000000, 8.986023)" fill="#0034DA">
                    <g id="yuraApplogo">
                        <g id="Yura-agency">
                            <g id="logo-2">
                                <polygon id="Path" points="22.6054638 0.982846252 15.3043202 18.9268107 7.24498094 0.982846252 0 0.982846252 17.6069886 40.0439644 24.9081321 40.0439644 19.1233799 27.4635324 29.7942821 0.982846252"></polygon>
                                <path d="M33.7818297,0.982846252 L41.054892,0.982846252 L41.054892,14.6584498 C40.970648,16.5398983 41.139136,18.3932656 41.6165184,20.2185515 C41.9534943,21.2013977 42.5712834,22.0438374 43.413723,22.6335451 C44.3123253,23.2232529 45.3794155,23.5040661 46.4465057,23.4759848 C47.5135959,23.5040661 48.5806861,23.2232529 49.5073698,22.6335451 C50.3778907,22.015756 51.0237611,21.1452351 51.360737,20.1343075 C51.7538755,18.4213469 51.9223634,16.6522236 51.8100381,14.8831004 L51.8100381,0.982846252 L58.9988564,0.982846252 L58.9988564,13.0297332 C58.9988564,17.9720457 58.6057179,21.3698856 57.7913596,23.2232529 C56.9208386,25.329352 55.4325286,27.1265565 53.5229987,28.3621347 C51.360737,29.5977128 48.8895807,30.2155019 46.3903431,30.1031766 C43.6945362,30.2155019 41.0268107,29.4853875 38.780305,28.0251588 C36.8146125,26.5930114 35.3824651,24.543075 34.680432,22.184244 C34.1188056,20.443202 33.8379924,17.3261753 33.8379924,12.7770013 L33.8379924,0.982846252 L33.7818297,0.982846252 Z" id="Path-2"></path>
                                <path d="M64.2500635,1.03900889 L70.3717916,1.03900889 L70.3717916,4.63341804 C70.933418,3.34167726 71.8601017,2.2184244 73.0114358,1.4321474 C74.078526,0.702033037 75.3141042,0.308894536 76.605845,0.308894536 C77.6167726,0.336975858 78.5996188,0.589707751 79.4982211,1.03900889 L77.307878,7.1888183 C76.6900889,6.82376112 75.9880559,6.59911055 75.2579416,6.5429479 C74.16277,6.5429479 73.2360864,7.24498094 72.4778907,8.59288437 C71.719695,9.9407878 71.3546379,12.6085133 71.3546379,16.596061 L71.3546379,29.4853875 L64.3062262,29.4853875 L64.3062262,1.03900889 L64.2500635,1.03900889 Z" id="Path-3"></path>
                                <path d="M96.7682338,6.87992376 C94.690216,6.82376112 92.7245235,7.66620076 91.3204574,9.21067344 C89.8602287,10.8393901 89.0739517,13.0016518 89.1301144,15.1919949 C89.0458704,17.4104193 89.8321474,19.6007624 91.3485388,21.229479 C94.2128335,24.2341804 98.9866582,24.374587 101.99136,21.5102922 L102.300254,21.229479 C103.816645,19.5445997 104.574841,17.3542567 104.490597,15.107751 C104.574841,12.8893266 103.788564,10.7270648 102.300254,9.09834816 C100.896188,7.63811944 98.8743329,6.7956798 96.7682338,6.87992376 Z M104.209784,1.03900889 L111.286277,1.03900889 L111.286277,29.4011436 L104.209784,29.4011436 L104.209784,26.3964422 C103.030368,27.603939 101.626302,28.5587039 100.053748,29.2326557 C98.621601,29.8223634 97.0771283,30.1312579 95.5326557,30.1031766 C91.9101652,30.1031766 88.484244,28.5306226 86.0973316,25.8067344 C83.4296061,22.9424396 81.9974587,19.1233799 82.109784,15.2200762 C81.9412961,11.2606099 83.3453621,7.41346887 85.956925,4.43684879 C88.315756,1.74104193 91.7416773,0.224650572 95.3360864,0.252731893 C96.9928844,0.224650572 98.621601,0.533545108 100.137992,1.1794155 C101.682465,1.85336722 103.086531,2.83621347 104.237865,4.07179161 L104.237865,0.982846252 L104.209784,1.03900889 Z" id="Shape"></path>
                            </g>
                        </g>
                    </g>
                </g>
                <circle id="Oval" fill="#39F0B7" cx="139.8169" cy="16.2310038" r="3.51016518"></circle>
                <path d="M163.461372,9.99695044 L163.461372,13.1420584 C164.668869,11.9064803 166.072935,10.9236341 167.645489,10.2496823 C169.161881,9.60381194 170.790597,9.26683609 172.447395,9.26683609 C176.15413,9.26683609 179.299238,10.6709022 181.910801,13.4790343 C184.522363,16.2871665 185.814104,19.8815756 185.814104,24.2622618 C185.814104,28.5025413 184.466201,32.0407878 181.798475,34.8770013 C179.13075,37.7132147 175.929479,39.1453621 172.250826,39.1453621 C170.678272,39.1453621 169.133799,38.8645489 167.673571,38.2748412 C166.101017,37.6008895 164.668869,36.6180432 163.461372,35.4105464 L163.461372,48.8053367 L156.412961,48.8053367 L156.412961,9.99695044 L163.461372,9.99695044 Z M170.959085,15.8659466 C168.852986,15.809784 166.831131,16.6522236 165.370902,18.168615 C163.882592,19.7130877 163.152478,21.7068615 163.152478,24.1780178 C163.152478,26.7053367 163.882592,28.7552732 165.370902,30.2997459 C166.80305,31.8442186 168.852986,32.6866582 170.959085,32.6304956 C173.037103,32.6585769 175.058958,31.7880559 176.463024,30.2435832 C177.951334,28.6710292 178.70953,26.6491741 178.70953,24.1780178 C178.70953,21.7068615 177.979416,19.7130877 176.519187,18.1966963 C175.087039,16.6522236 173.065184,15.809784 170.959085,15.8659466 Z" id="Shape" fill="url(#linearGradient-2)"></path>
                <g id="Group" opacity="0.5" transform="translate(156.132147, 17.691233)" fill="#F9A7D2">
                    <path d="M7.02033037,6.45870394 C7.02033037,5.58818297 7.10457433,4.74574333 7.30114358,3.98754765 L7.30114358,3.90330368 C7.30114358,3.84714104 7.30114358,3.76289708 7.30114358,3.70673443 C7.24498094,1.76912325 5.61626429,0.224650572 3.67865311,0.280813215 C1.74104193,0.336975858 0.19656925,1.9656925 0.252731893,3.90330368 L0.252731893,18.7302414 C0.252731893,18.7302414 0.252731893,18.7302414 0.252731893,18.7302414 C0.252731893,20.6678526 1.8252859,22.2404066 3.76289708,22.2404066 C3.76289708,22.2404066 3.76289708,22.2404066 3.76289708,22.2404066 C5.70050826,22.2404066 7.27306226,20.6678526 7.27306226,18.7302414 L7.27306226,8.98602287 C7.10457433,8.19974587 7.02033037,7.38538755 7.02033037,6.45870394 Z" id="Path"></path>
                </g>
                <path d="M198.422618,9.99695044 L198.422618,13.1420584 C199.630114,11.9064803 201.03418,10.9236341 202.606734,10.2496823 C204.123126,9.60381194 205.751842,9.26683609 207.40864,9.26683609 C211.115375,9.26683609 214.260483,10.6709022 216.872046,13.4790343 C219.483609,16.2871665 220.775349,19.8815756 220.775349,24.2622618 C220.775349,28.5025413 219.427446,32.0407878 216.75972,34.8770013 C214.091995,37.7132147 210.890724,39.1453621 207.212071,39.1453621 C205.639517,39.1453621 204.095044,38.8645489 202.634816,38.2748412 C201.062262,37.6008895 199.630114,36.6180432 198.422618,35.4105464 L198.422618,48.8053367 L191.374206,48.8053367 L191.374206,9.99695044 L198.422618,9.99695044 Z M205.92033,15.8659466 C203.814231,15.809784 201.792376,16.6522236 200.332147,18.168615 C198.843837,19.7130877 198.113723,21.7068615 198.113723,24.1780178 C198.113723,26.7053367 198.843837,28.7552732 200.332147,30.2997459 C201.764295,31.8442186 203.814231,32.6866582 205.92033,32.6304956 C207.998348,32.6585769 210.020203,31.7880559 211.424269,30.2435832 C212.912579,28.6710292 213.670775,26.6491741 213.670775,24.1780178 C213.670775,21.7349428 212.940661,19.7130877 211.452351,18.1966963 C210.048285,16.6522236 208.026429,15.809784 205.92033,15.8659466 Z" id="Shape" fill="url(#linearGradient-3)"></path>
                <g id="Group" opacity="0.3" transform="translate(205.274460, 23.026684)" fill="#FFDACC">
                    <path d="M3.84714104,16.1748412 C1.85336722,16.1748412 0.224650572,14.5461245 0.224650572,12.5523507 C0.224650572,10.9236341 1.31982211,9.49148666 2.89237611,9.07026684 C5.72858958,8.28398983 7.72236341,6.0094028 8.22782719,2.97662008 C8.59288437,1.01092757 10.4743329,-0.280813215 12.4400254,0.0842439644 C14.3495553,0.449301144 15.6412961,2.24650572 15.3604828,4.15603558 C14.4057179,9.96886912 10.3620076,14.5180432 4.80190597,16.0625159 C4.49301144,16.1186785 4.1841169,16.1748412 3.84714104,16.1748412 Z" id="Path"></path>
                </g>
                <circle id="Oval-2" fill="#F484C7" cx="159.923126" cy="27.0984752" r="3.51016518"></circle>
                <circle id="Oval-3" fill="#FF884D" cx="214.400889" cy="32.2092757" r="3.51016518"></circle>
            </g>
        </g>
    </g>
</svg>