<?xml version="1.0" encoding="UTF-8"?>
<svg width="126px" height="46px" viewBox="0 0 126 46" version="1.1" xmlns="http://www.w3.org/2000/svg" xmlns:xlink="http://www.w3.org/1999/xlink">
    <!-- Generator: Sketch 52.6 (67491) - http://www.bohemiancoding.com/sketch -->
    <title>01 yuraApp</title>
    <desc>Created with Sketch.</desc>
    <g id="Page-1" stroke="none" stroke-width="1" fill="none" fill-rule="evenodd">
        <g id="05-Profile-02-Payment-Methods" transform="translate(-1173.000000, -823.000000)" fill="#0034DA" fill-rule="nonzero">
            <g id="01-yuraApp" transform="translate(1173.000000, 823.000000)">
                <g id="Logo" transform="translate(0.000000, 0.062063)">
                    <g id="yuraApplogo">
                        <g id="Yura-agency">
                            <g id="logo-2">
                                <polygon id="Path" points="25.5136262 1.10928809 17.2732003 21.3617193 8.17703795 1.10928809 0 1.10928809 19.8721038 45.1955663 28.1125297 45.1955663 21.5835769 30.9966787 33.6272762 1.10928809"></polygon>
                                <path d="M38.1278165,1.10928809 L46.3365484,1.10928809 L46.3365484,16.5442396 C46.2414665,18.6677339 46.4316302,20.7595343 46.9704273,22.8196408 C47.3507546,23.9289289 48.0480214,24.8797472 48.9988398,25.5453201 C50.0130461,26.210893 51.217416,26.5278324 52.4217859,26.4961385 C53.6261558,26.5278324 54.8305258,26.210893 55.876426,25.5453201 C56.8589383,24.8480533 57.587899,23.865541 57.9682264,22.7245589 C58.4119416,20.7912283 58.6021053,18.7945097 58.4753295,16.7977911 L58.4753295,1.10928809 L66.5889796,1.10928809 L66.5889796,14.7059907 C66.5889796,20.2841251 66.1452643,24.1190926 65.2261399,26.210893 C64.2436276,28.5879389 62.5638485,30.6163514 60.4086602,32.010885 C57.9682264,33.4054186 55.1791592,34.1026854 52.358398,33.9759096 C49.3157793,34.1026854 46.3048544,33.2786428 43.7693388,31.6305576 C41.5507626,30.0141664 39.9343714,27.7005084 39.1420227,25.038217 C38.5081438,23.0731923 38.1912044,19.5551644 38.1912044,14.4207452 L38.1912044,1.10928809 L38.1278165,1.10928809 Z" id="Path-2"></path>
                                <path d="M72.5157474,1.17267598 L79.4250275,1.17267598 L79.4250275,5.22950101 C80.0589064,3.77157952 81.1048066,2.5038217 82.4042584,1.61639122 C83.6086283,0.792348638 85.0031619,0.348633401 86.4610834,0.348633401 C87.6020655,0.380327346 88.7113535,0.665572856 89.7255598,1.17267598 L87.2534321,8.11365006 C86.5561653,7.70162876 85.7638166,7.4480772 84.939774,7.38468931 C83.7037102,7.38468931 82.65781,8.17703795 81.8020734,9.69834733 C80.9463369,11.2196567 80.5343156,14.2305815 80.5343156,18.7311218 L80.5343156,33.2786428 L72.5791353,33.2786428 L72.5791353,1.17267598 L72.5157474,1.17267598 Z" id="Path-3"></path>
                                <path d="M109.217336,7.76501666 C106.871984,7.70162876 104.653408,8.65244713 103.068711,10.3956141 C101.420626,12.233863 100.533195,14.6742968 100.596583,17.1464245 C100.501501,19.6502462 101.388932,22.122374 103.100405,23.9606228 C106.333187,27.351875 111.721158,27.5103447 115.11241,24.2775623 L115.461044,23.9606228 C117.172517,22.0589861 118.028253,19.5868583 117.933171,17.0513427 C118.028253,14.547521 117.140823,12.1070872 115.461044,10.2688384 C113.876346,8.62075319 111.594382,7.66993482 109.217336,7.76501666 Z M117.616232,1.17267598 L125.603106,1.17267598 L125.603106,33.183561 L117.616232,33.183561 L117.616232,29.7923088 C116.285086,31.1551485 114.700389,32.2327426 112.925528,32.9933973 C111.309137,33.6589702 109.56597,34.0076036 107.822803,33.9759096 C103.734284,33.9759096 99.8676224,32.2010487 97.173637,29.1267359 C94.1627122,25.8939535 92.546321,21.5835769 92.6730967,17.1781185 C92.4829331,12.7092722 94.0676303,8.36720162 97.0151673,5.00764339 C99.6774587,1.96502462 103.54412,0.253551564 107.600945,0.28524551 C109.470888,0.253551564 111.309137,0.602184965 113.02061,1.33114571 C114.763777,2.09180041 116.348474,3.2010885 117.647926,4.5956221 L117.647926,1.10928809 L117.616232,1.17267598 Z" id="Shape"></path>
                            </g>
                        </g>
                    </g>
                </g>
            </g>
        </g>
    </g>
</svg>